<?xml version="1.0" standalone="no"?>
<!DOCTYPE svg PUBLIC "-//W3C//DTD SVG 1.1//EN" "http://www.w3.org/Graphics/SVG/1.1/DTD/svg11.dtd" >
<svg>
<metadata>
Created by FontForge 20090914 at Wed Jan 23 11:10:03 2013
 By www-data
Copyright (URW)++,Copyright 1999 by (URW)++ Design &#38; Development; Cyrillic glyphs added by Valek Filippov (c) 2001-2004
</metadata>
<defs>
<font id="URWChanceryL-MediItal" horiz-adv-x="450" >
  <font-face 
    font-family="URW Chancery L"
    font-weight="500"
    font-style="italic"
    font-stretch="normal"
    units-per-em="1024"
    panose-1="2 0 6 3 0 0 0 0 0 0"
    ascent="853"
    descent="-171"
    x-height="421"
    cap-height="694.001"
    bbox="-136.001 -297.001 1123 1018"
    underline-thickness="51"
    underline-position="-123"
    slope="-14"
    unicode-range="U+0020-U+FFFD"
  />
<missing-glyph horiz-adv-x="500" 
 />
    <glyph glyph-name="IJ" unicode="IJ" horiz-adv-x="610" 
d="M475 350l-78.001 -36c-6 23.333 -9 43 -9 59c0 44 11.833 82.333 35.5 115s57.834 57.667 102.501 75c40 15.333 102.667 23 188 23l-34 -30l-94 -378c-15.333 -62 -29.166 -103.167 -41.499 -123.5s-40.166 -47.833 -83.499 -82.5
c-48.667 -38 -86.834 -63.667 -114.501 -77s-57.5 -20 -89.5 -20c-14 0 -29 1.66699 -45 5l41 69c27.333 -6.66699 50.333 -10 69 -10c50.667 0 90 19 118 57c15.333 18 29.666 48.667 42.999 92c2 5.33301 13.667 47 35 125l12 41c-4 11.333 -12 21.333 -24 30
c14 14 27.667 26.667 41 38l56 225h-15c-39.333 0 -69.333 -10.5 -90 -31.5s-31 -51.5 -31 -91.5c0 -18 2.66699 -42.667 8 -74zM82.999 0l37 26.001l60 7c9.33301 32 14.666 50 15.999 54l80 315l22 84c0 2 1.83301 10.667 5.5 26s6.83398 29.666 9.50098 42.999l-92 6
l36 26c38.667 -0.666992 65 -1 79 -1c11.333 0 52 0.333008 122 1h35l-36 -26l-60 -6c-57.333 -211.333 -101.333 -385.333 -132 -522l95 -7l-36 -26l-160 1c-9.33301 0 -36.333 -0.333008 -81 -1z" />
    <glyph glyph-name="ij" unicode="ij" horiz-adv-x="479" 
d="M544 561l-21.001 -15c-3.33301 -2.66699 -18.666 -16 -45.999 -40c-20.667 29.333 -33.667 53.333 -39 72c11.333 6.66699 19.666 12.334 24.999 17.001c10.667 7.33301 16.667 11.666 18 12.999c2.66699 2.66699 7.33398 6.66699 14.001 12l8 7l6 4l5 -14l9 -20
c0.666992 -0.666992 1.5 -2 2.5 -4s2.5 -4.5 4.5 -7.5s4 -5.83301 6 -8.5c1.33301 -4 4 -9.33301 8 -16zM96.999 -247l48.001 62c26.667 -2.66699 45.334 -4 56.001 -4c15.333 0 27.5 1.83301 36.5 5.5s17.833 10 26.5 19s17.334 26 26.001 51s17.5 53.333 26.5 85
s20.833 77.167 35.5 136.5c32 124 48 196.333 48 217c0 3.33301 -1.33301 6.16602 -4 8.49902s-5.33398 3.5 -8.00098 3.5c-4.66699 0 -17 -5.33301 -37 -16c-8 -5.33301 -20 -12 -36 -20l2 30c71.333 44 114.166 70 128.499 78s25.5 12 33.5 12c10.667 0 16 -4 16 -12
c0 -6 -22.333 -99 -67 -279c-16 -63.333 -27.333 -107.166 -34 -131.499s-16.167 -49.5 -28.5 -75.5s-23.833 -44.667 -34.5 -56s-29.334 -30 -56.001 -56c-26 -25.333 -47.5 -42.333 -64.5 -51s-38.167 -13 -63.5 -13c-16 0 -32.667 2 -50 6zM248 506
c-20 29.333 -33 53.333 -39 72c2.66699 1.33301 6.66699 4 12 8l22 15c12.667 10 20 16.333 22 19c2 2 7 5.66699 15 11c0.666992 -2 1.66699 -4.33301 3 -7s2.33301 -5 3 -7c3.33301 -8.66699 8.33301 -19.334 15 -32.001c2.66699 -4 7 -12 13 -24
c-14.667 -11.333 -36.667 -29.666 -66 -54.999zM318 119l-4.00195 -29c-2 -1.33301 -6.33301 -4 -13 -8l-15 -9c-17.333 -12 -37 -24.667 -59 -38c-49.333 -32 -82.333 -48 -99 -48c-7.33301 0 -13.333 3.83301 -18 11.5s-7 17.5 -7 29.5c0 12.667 2 27.5 6 44.5
s18.333 70.167 43 159.5c12 47.333 18 76 18 86c0 12.667 -4 19 -12 19c-7.33301 0 -32.333 -11.667 -75 -35l2 29c90 60 144 90 162 90c8 0 12 -3.33301 12 -10c0 -6 -20.667 -94.333 -62 -265c-6.66699 -20.667 -10 -38 -10 -52c0 -18.667 6.33301 -28 19 -28
c6.66699 0 14.834 2.33301 24.501 7s38.834 20 87.501 46z" />
    <glyph glyph-name="afii61352" unicode="No" horiz-adv-x="716" 
d="M706 169l9 9.00098l12 16l11 11c0.666992 1.33301 4.66699 5.66602 12 12.999h203c-6 -6 -19.667 -22.333 -41 -49h-206zM893 451.001c21.333 0 38.333 -5.66699 51 -17s19 -27 19 -47c0 -32 -11.833 -60 -35.5 -84s-51.167 -36 -82.5 -36c-21.333 0 -38 5.66699 -50 17
s-18 27.333 -18 48c0 34 11 62.333 33 85s49.667 34 83 34zM879 428.001c-16.667 0 -30.5 -8 -41.5 -24s-16.5 -36.333 -16.5 -61c0 -15.333 3.33301 -28 10 -38s15 -15 25 -15c16 0 29.667 8.5 41 25.5s17 37.167 17 60.5c0 34.667 -11.667 52 -35 52zM41 0.000976562
l48.999 71.001c26 -2.66699 47.333 -4 64 -4c26.667 0 47 3.5 61 10.5s26.333 19.833 37 38.5c32.667 58 73 189.667 121 395c-26 1.33301 -52.333 2 -79 2c-42.667 0 -74.334 -5.66699 -95.001 -17c-30.667 -16.667 -46 -41.334 -46 -74.001
c0 -22.667 10.667 -57.334 32 -104.001l-70 -48c-17.333 34.667 -26 64.667 -26 90c0 28.667 10.167 59.667 30.5 93s47.166 63 80.499 89c35.333 26.667 80.333 40 135 40c13.333 0 32 -1 56 -3l35 31c54 -201.333 89.833 -329.833 107.5 -385.5
s38.834 -108.167 63.501 -157.5c7.33301 25.333 12.333 44.666 15 57.999c12.667 50.667 23.667 99 33 145c24.667 110.667 44.334 186.334 59.001 227.001s34.334 75.334 59.001 104.001c51.333 61.333 98.666 92 141.999 92c5.33301 0 16 -0.666992 32 -2l-38 -68
c-9.33301 1.33301 -18.666 2 -27.999 2c-23.333 0 -41.833 -4.5 -55.5 -13.5s-26.167 -24.5 -37.5 -46.5c-16 -32.667 -30.833 -71.167 -44.5 -115.5s-31.834 -112.166 -54.501 -203.499c-21.333 -90 -38.666 -168.667 -51.999 -236c52 -99.333 110.667 -149 176 -149
c27.333 0 50.333 12 69 36c10.667 11.333 22.334 32.333 35.001 63l25 -91c-40.667 -24 -85.667 -36 -135 -36c-120 0 -211.333 63.333 -274 190c-31.333 61.333 -61 151.666 -89 270.999l-38 159c-32 -130 -54 -211.333 -66 -244
c-36.667 -94.667 -81.334 -158 -134.001 -190c-24.667 -14.667 -57.667 -22 -99 -22c-9.33301 0 -28 1 -56 3z" />
    <glyph glyph-name="fi" unicode="fi" horiz-adv-x="532" 
d="M335 318l-53.998 0.00195312c-4.66699 -16 -10 -35.333 -16 -58c-29.333 -118 -50 -196.333 -62 -235s-26.667 -75.667 -44 -111c-16.667 -34 -43 -68 -79 -102c-28 -28 -50.5 -45.833 -67.5 -53.5s-41.5 -11.5 -73.5 -11.5c-12 0 -27 1.33301 -45 4
c1.33301 2 3.66602 5.16699 6.99902 9.5s6 8.16602 8 11.499c8 10.667 13.667 18.667 17 24c1.33301 2 3.66602 5 6.99902 9s6 7.66699 8 11c20 -3.33301 37.333 -5 52 -5c33.333 0 58.833 10 76.5 30s34.834 59 51.501 117c15.333 50.667 43 170.667 83 360l-136 1l37.5 20
c13.667 7.33301 21.834 11.666 24.501 12.999c25.333 0 52.666 0.333008 81.999 1c17.333 78 33 133.167 47 165.5s35 61.833 63 88.5c60.667 60 116 90 166 90c34.667 0 79 -7.33301 133 -22l-72 -84c-26.667 21.333 -48.667 36.166 -66 44.499s-35.333 12.5 -54 12.5
c-20 0 -36.5 -7.5 -49.5 -22.5s-26.167 -42.5 -39.5 -82.5s-30.333 -103 -51 -189h55c14.667 0 44.667 12.667 90 38c34.667 19.333 60.334 29 77.001 29c7.33301 0 11 -3 11 -9c0 -6.66699 -12.667 -61.667 -38 -165c-21.333 -86 -32 -136.667 -32 -152
c0 -18.667 6.33301 -28 19 -28c12 0 48.667 18.667 110 56l-4 -31l-88 -56c-48.667 -32 -80.334 -48 -95.001 -48c-17.333 0 -26 14.333 -26 43c0 16.667 9.33301 60 28 130c25.333 86.667 38 140.334 38 161.001c0 10 -5.66699 15 -17 15c-6 0 -17.667 -3.33301 -35 -10
c-14.667 -6 -30.334 -9 -47.001 -9z" />
    <glyph glyph-name="fl" unicode="fl" horiz-adv-x="532" 
d="M370 317l-23.9961 -0.00585938c-10 0.666992 -20 1 -30 1c-13.333 0 -25.333 -0.333008 -36 -1c-3.33301 -11.333 -7 -24.666 -11 -39.999s-6.33301 -24 -7 -26c-2 -9.33301 -16 -63.666 -42 -162.999c-26 -102 -56.667 -176.333 -92 -223
c-13.333 -18 -31.333 -37.667 -54 -59s-41 -36 -55 -44c-16.667 -9.33301 -42.334 -14 -77.001 -14c-12.667 0 -29.334 1.33301 -50.001 4l48 64c24.667 -2.66699 42.334 -4 53.001 -4c29.333 0 52.166 8 68.499 24s31.666 45.5 45.999 88.5s32.833 114.5 55.5 214.5
c16.667 76.667 26.667 120.334 30 131.001l12 47h-84h-51l20 12l23 13c0.666992 0.666992 5.66699 3.33398 15 8.00098c20.667 0.666992 49 1 85 1c19.333 83.333 35.5 140.166 48.5 170.499s33.833 58.833 62.5 85.5c40 38.667 75 64.667 105 78s69.333 20 118 20
c46 0 106 -5.33301 180 -16l-45 -53c-27.333 5.33301 -45.666 8 -54.999 8c-26 0 -45 -17.667 -57 -53c-20.667 -64 -45.334 -156.333 -74.001 -277s-43 -191.667 -43 -213c0 -23.333 6.33301 -35 19 -35c11.333 0 43 17 95 51c14.667 8.66699 23.667 14.334 27 17.001
l2 -23c-39.333 -30 -87.333 -64.333 -144 -103c-20 -14 -34.333 -21 -43 -21c-10 0 -18.833 6.33301 -26.5 19s-11.5 27.334 -11.5 44.001c0 10 0.666992 16.667 2 20l72 320l18.5 82c3.66699 16 9 34.5 16 55.5s12.167 34.667 15.5 41s9.83301 15.666 19.5 27.999
s18.334 21.333 26.001 27l37.5 28.5c-33.333 3.33301 -63 5 -89 5c-21.333 0 -38.333 -0.833008 -51 -2.5s-25.334 -6.66699 -38.001 -15s-22.667 -18.166 -30 -29.499s-15.833 -29.666 -25.5 -54.999s-18.334 -52.833 -26.001 -82.5s-17.5 -70.167 -29.5 -121.5h34l57 1
c10 0 21.333 -0.333008 34 -1z" />
    <glyph glyph-name=".notdef" unicode="&#xfffd;" horiz-adv-x="500" 
 />
    <glyph glyph-name="space" unicode=" " horiz-adv-x="225" 
 />
    <glyph glyph-name="exclam" unicode="!" horiz-adv-x="286" 
d="M217 82l7.99609 -11.001c4.66699 -8.66699 8.33398 -14 11.001 -16c-23.333 -23.333 -48.666 -44.666 -75.999 -63.999c-21.333 24.667 -37.333 51 -48 79l27 21l9 7c2.66699 2 6.83398 5.5 12.501 10.5s9.83398 8.5 12.501 10.5c4 4 8.66699 8 14 12l20 -33z
M263.996 557.999l49 23.999l42 19l-57 -173c-4 -14 -15 -48 -33 -102c-8 -30.667 -17 -58.667 -27 -84c-2 -5.33301 -4.83301 -13.333 -8.5 -24s-6.5 -18.667 -8.5 -24c-17.333 -11.333 -36 -22.666 -56 -33.999z" />
    <glyph glyph-name="quotedbl" unicode="&#x22;" horiz-adv-x="225" 
d="M174 415l49 190h42l-61 -178zM250 415l49 190h42l-61 -178z" />
    <glyph glyph-name="numbersign" unicode="#" 
d="M220 41l-86.0029 -41.998c24.667 66.667 46.334 129 65.001 187l-134 -12c16.667 27.333 32.667 50.666 48 69.999h107l8 24c9.33301 24.667 15.333 42.667 18 54l5 13c2.66699 4.66699 5.33398 13.334 8.00098 26.001l-134 -10c7.33301 11.333 18.333 26.333 33 45l6 8
c4 5.33301 7.33301 9.33301 10 12l105 2l5 15c2 6 3 9.33301 3 10l13 40l26 78l69 28l-29 -89l-28 -80l109 2l9 24l7.5 22c3 8.66699 5.16699 14.667 6.5 18l24 75l70 28c-2 -6.66699 -6.16699 -19.834 -12.5 -39.501s-11.5 -35.167 -15.5 -46.5l-15.5 -46
c-6.33301 -18.667 -10.5 -30.334 -12.5 -35.001h102l-26 -34l-90 -7l-22 -72c-6 -17.333 -12.667 -39 -20 -65h107l-27 -33l-93 -7c-20 -59.333 -36.333 -113.666 -49 -162.999l-86 -42c20.667 61.333 31.334 93.333 32.001 96l22 67
c0.666992 1.33301 5.66699 13.666 15 36.999l-107 -9zM282.997 244.002h104l9 26c4 14 8.33301 26.667 13 38l23 68l-109 -8z" />
    <glyph glyph-name="dollar" unicode="$" 
d="M61 5l49.001 64c28.667 -16 62 -25 100 -27l55 227c-24.667 20 -41.667 34.667 -51 44c-22.667 24.667 -34 50.334 -34 77.001c0 40 15.167 78.5 45.5 115.5s68.166 63.167 113.499 78.5c10.667 58.667 16.334 90 17.001 94l43 13c-10.667 -42 -18.667 -75 -24 -99
c6 0.666992 14 1 24 1c30 0 54.333 -12.333 73 -37l-43 -53c-19.333 28.667 -41 43.667 -65 45l-52 -207c36.667 -24 62 -45 76 -63s21 -39 21 -63c0 -41.333 -16.5 -82.5 -49.5 -123.5s-75.833 -73.167 -128.5 -96.5l-26 -127
c-7.33301 -2.66699 -11.333 -4.33398 -12 -5.00098l-16 -5c-2 0 -7 -1.66699 -15 -5l34 135c-20 -1.33301 -31.333 -2 -34 -2c-28.667 0 -62.334 6.33301 -101.001 19zM283.001 213l-15 -61l-25 -109c30.667 9.33301 53 21.333 67 36c26.667 23.333 40 52.333 40 87
c0 17.333 -3.66699 31.333 -11 42s-23 25 -47 43zM287.001 356c0.666992 2.66699 3 13.3301 7 31.9971s7.33301 32.667 10 42l22 90c0 0.666992 0.333008 2.33398 1 5.00098s1.5 6.33398 2.5 11.001s1.83301 9 2.5 13c-26.667 -8 -46 -17.667 -58 -29
c-23.333 -21.333 -35 -47.666 -35 -78.999c0 -32 16 -60.333 48 -85z" />
    <glyph glyph-name="percent" unicode="%" horiz-adv-x="696" 
d="M646 357c48 0 72.002 -29.667 72.002 -89c0 -30.667 -4.83301 -64 -14.5 -100s-21.834 -67 -36.501 -93c-32.667 -54.667 -76.334 -82 -131.001 -82c-53.333 0 -80 37 -80 111c0 70 19 131 57 183c15.333 20.667 35.333 37.5 60 50.5s49 19.5 73 19.5zM612.002 325
c-32 0 -56.999 -27.333 -74.999 -82c-15.333 -44 -23 -88 -23 -132c0 -27.333 4.83301 -49.333 14.5 -66s22.167 -25 37.5 -25c23.333 0 44.666 23.5 63.999 70.5s29 99.167 29 156.5c0 52 -15.667 78 -47 78zM237.003 0c144 224 266.665 423.334 367.998 598.001
c14.667 -2.66699 29.334 -5 44.001 -7c-35.333 -52.667 -94.166 -145.834 -176.499 -279.501l-189.5 -315.5c-16.667 2 -32 3.33301 -46 4zM356.001 598.001c22.667 0 40.167 -7.66602 52.5 -22.999s18.5 -37.333 18.5 -66c0 -72 -17 -137 -51 -195
c-32.667 -54.667 -76 -82 -130 -82c-53.333 0 -80 37.333 -80 112c0 70 19 130.667 57 182c15.333 21.333 35.333 38.666 60 51.999s49 20 73 20zM323.001 565.002c-34 0 -59.332 -27.3311 -75.999 -81.998c-15.333 -44 -23 -88.333 -23 -133
c0 -26.667 4.66699 -48.334 14 -65.001s21.666 -25 36.999 -25c24 0 45.667 23.667 65 71s29 99.666 29 156.999c0 24 -4.16699 42.833 -12.5 56.5s-19.5 20.5 -33.5 20.5z" />
    <glyph glyph-name="ampersand" unicode="&#x26;" horiz-adv-x="798" 
d="M856 511l19.999 -22.998c-8 -33.333 -18 -64.333 -30 -93s-22.667 -47 -32 -55c-6.66699 -6 -16 -9.83301 -28 -11.5s-37.667 -3.16699 -77 -4.5c-15.333 -55.333 -29.833 -96 -43.5 -122s-34.5 -53.667 -62.5 -83c-86.667 -90.667 -185.667 -136 -297 -136
c-58 0 -102.833 12 -134.5 36s-47.5 57.667 -47.5 101c0 56 16.667 114.667 50 176c19.333 34 51.333 66.333 96 97c34.667 25.333 65 38 91 38c32 0 54 -18.333 66 -55c32 18.667 54 35.334 66 50.001s18 32.334 18 53.001c0 12.667 -4 28.667 -12 48l72 43
c12.667 -15.333 19 -31 19 -47c0 -44.667 -35 -91 -105 -139c-2 -2.66699 -72.667 -47.334 -212 -134.001c-27.333 -17.333 -45.833 -32.333 -55.5 -45s-14.5 -28.334 -14.5 -47.001c0 -36.667 14.667 -66.167 44 -88.5s67.666 -33.5 114.999 -33.5c46 0 88 9.66699 126 29
s67.667 45.666 89 78.999c26 40.667 46.667 100.667 62 180c-7.33301 0.666992 -17.666 1 -30.999 1c-38 0 -67.667 -11.5 -89 -34.5s-42 -65.167 -62 -126.5l-24 6c27.333 93.333 50.833 153 70.5 179s50.834 39 93.501 39l48 -1c5.33301 0 11.333 0.333008 18 1
c29.333 17.333 50.666 28.666 63.999 33.999l-8 -34c42 1.33301 67.833 3.33301 77.5 6s17.834 10 24.501 22c15.333 25.333 27 57 35 95zM204.999 244.002l151.002 88c-6.66699 34 -21.334 51 -44.001 51c-11.333 0 -23.833 -5 -37.5 -15s-25.834 -23.333 -36.501 -40
c-10.667 -17.333 -21.667 -45.333 -33 -84z" />
    <glyph glyph-name="quotesingle" unicode="'" horiz-adv-x="163" 
d="M174 415l49 190h42l-61 -178z" />
    <glyph glyph-name="parenleft" unicode="(" horiz-adv-x="266" 
d="M414 679l8.00098 -4.00195c-40 -38 -72.5 -76 -97.5 -114s-48.5 -84.667 -70.5 -140c-45.333 -113.333 -68 -231 -68 -353c0 -74.667 11.667 -148 35 -220c-12 -5.33301 -33.333 -11 -64 -17c-25.333 56.667 -38 113.667 -38 171c0 74.667 9.66699 152.334 29 233.001
s46 155.334 80 224.001c24 47.333 48.5 88 73.5 122s55.833 68.333 92.5 103h10c3.33301 -1.33301 6.66602 -3 9.99902 -5z" />
    <glyph glyph-name="parenright" unicode=")" horiz-adv-x="225" 
d="M29 -167l-5 2.99902l-3 1c-2 0.666992 -3.33301 1.33398 -4 2.00098c39.333 37.333 71.5 75 96.5 113s48.833 85 71.5 141c45.333 113.333 68 232 68 356c0 74.667 -11.667 147 -35 217c18 6 40 11.667 66 17c24.667 -62 37 -119.333 37 -172
c0 -74 -9.83301 -151.5 -29.5 -232.5s-46.5 -155.5 -80.5 -223.5c-44.667 -88.667 -100 -163.667 -166 -225h-10c-3.33301 1.33301 -5.33301 2.33301 -6 3z" />
    <glyph glyph-name="asterisk" unicode="*" horiz-adv-x="430" 
d="M225 482l108 49l7 23l-71 63l33 31l62 -69l9 3l25 111h44l-35 -110l7 -8l96 52l14 -34l-105 -48l-3 -14l76 -68l-35 -30l-62 72l-11 -4l-28 -115h-45l40 116l-6 6l-100 -56z" />
    <glyph glyph-name="plus" unicode="+" horiz-adv-x="532" 
d="M343 197v-183h-55v183h-183v55h183v182h55v-182h182v-55h-182z" />
    <glyph glyph-name="comma" unicode="," horiz-adv-x="225" 
d="M58 -100l-26.998 11c39.333 35.333 67.166 70.5 83.499 105.5s26.833 81.167 31.5 138.5l74 22c-8 -50 -17 -88.333 -27 -115s-24.333 -51.167 -43 -73.5s-49.334 -51.833 -92.001 -88.5z" />
    <glyph glyph-name="hyphen" unicode="-" horiz-adv-x="286" 
d="M127 177l-9 0.000976562c14.667 24 31 45.667 49 65c15.333 0.666992 31 1 47 1l93 -1c-20 -24.667 -35.333 -46.334 -46 -65.001c-18 1.33301 -32.667 2 -44 2z" />
    <glyph glyph-name="period" unicode="." horiz-adv-x="225" 
d="M137 91l8.99805 7c2.66699 2 6.83398 5.5 12.501 10.5s9.83398 8.5 12.501 10.5c8 6.66699 12.667 10.667 14 12l25 -41l8 -13l15 -22c-21.333 -22 -46.333 -43.333 -75 -64c-22.667 26 -38.667 52.333 -48 79z" />
    <glyph glyph-name="slash" unicode="/" horiz-adv-x="348" 
d="M18 -173l-24.001 2l118 190l392 676c2 0 4.5 -0.333008 7.5 -1s4.83301 -1 5.5 -1l18 -1c4.66699 -0.666992 9 -1 13 -1c-30.667 -40.667 -200 -329 -508 -865c-7.33301 0.666992 -14.666 1 -21.999 1z" />
    <glyph glyph-name="zero" unicode="0" 
d="M389 590c74.667 0 112 -54.666 112 -163.999c0 -43.333 -6.66699 -92.333 -20 -147s-30.333 -101.334 -51 -140.001c-23.333 -46 -54 -81.833 -92 -107.5s-79 -38.5 -123 -38.5c-79.333 0 -119 56 -119 168c0 48 8.33301 101 25 159s37 105.667 61 143
c25.333 38 57 68.667 95 92s75.333 35 112 35zM339 547.001c-48 0 -86.001 -45.999 -114.001 -137.999c-10 -34 -19.167 -75.333 -27.5 -124s-12.5 -86.667 -12.5 -114c0 -40.667 7.33301 -74.167 22 -100.5s33.334 -39.5 56.001 -39.5c36.667 0 68 32.333 94 97
c36.667 88 55 176.667 55 266c0 49.333 -6.33301 87.166 -19 113.499s-30.667 39.5 -54 39.5z" />
    <glyph glyph-name="one" unicode="1" 
d="M84 0l30.001 28.001c4.66699 0.666992 32 4 82 10c16 2 26 5.16699 30 9.5s8.66699 17.5 14 39.5l97 419c-18 -6 -27.667 -9.33301 -29 -10l-30 -13c-28.667 -10.667 -47.334 -17.334 -56.001 -20.001l-31 15l101 45l105 55l35 18c-19.333 -72.667 -47.333 -190 -84 -352
c-16 -78 -25.667 -121.667 -29 -131c-4.66699 -16 -7 -30.333 -7 -43c0 -16 9 -26.333 27 -31c28 -6 63 -9.66699 105 -11l-24 -28h-42l-118 1l-112 -1h-64z" />
    <glyph glyph-name="two" unicode="2" 
d="M52 -17l-3.99902 29.0029c24 30.667 45.833 56 65.5 76s63.834 62.333 132.501 127c66 61.333 108 106.666 126 135.999c17.333 28 26 59 26 93c0 29.333 -7.66699 53.5 -23 72.5s-35.333 28.5 -60 28.5c-25.333 0 -45.833 -8.5 -61.5 -25.5s-23.5 -39.5 -23.5 -67.5
c0 -16.667 4.33301 -37 13 -61l-73 8c-2 12 -3 20.333 -3 25c0 43.333 18.667 79 56 107c44 36.667 93.667 55 149 55c31.333 0 56.666 -9.83301 75.999 -29.5s29 -45.834 29 -78.501c0 -41.333 -14 -83 -42 -125l-51 -48l-91 -85l-126 -117
c108.667 -17.333 169.667 -27 183 -29c9.33301 -2 16.666 -3 21.999 -3c13.333 0 25.166 4.66699 35.499 14s31.833 34.666 64.5 75.999l8 -24l-90 -135c-8 -3.33301 -15.667 -5 -23 -5c-27.333 0 -91.666 12 -192.999 36c-16 4 -29.333 6 -40 6
c-12.667 0 -24 -3.33301 -34 -10s-26 -22 -48 -46z" />
    <glyph glyph-name="three" unicode="3" 
d="M37 27l46.9971 52c38.667 -17.333 65.834 -28.333 81.501 -33s32.834 -7 51.501 -7c44 0 81.667 16.833 113 50.5s47 74.167 47 121.5c0 28.667 -8 52.167 -24 70.5s-36.667 27.5 -62 27.5c-11.333 0 -22 -1.5 -32 -4.5s-35 -11.833 -75 -26.5l3 26
c71.333 26.667 123 53.167 155 79.5s48 55.166 48 86.499c0 17.333 -5.33301 31.666 -16 42.999s-24.334 17 -41.001 17c-28.667 0 -63.667 -14.333 -105 -43v26c16.667 10.667 26.667 17.667 30 21l43 29l29 17c22 6 39.667 9 53 9c25.333 0 46 -6.83301 62 -20.5
s24 -31.5 24 -53.5c0 -29.333 -13 -59.666 -39 -90.999l-80 -59c30.667 -5.33301 53.334 -12.666 68.001 -21.999c25.333 -17.333 38 -43 38 -77c0 -66.667 -31.5 -128.667 -94.5 -186s-130.833 -86 -203.5 -86c-41.333 0 -81.666 11 -120.999 33z" />
    <glyph glyph-name="four" unicode="4" 
d="M249 -14l43 169.998c-13.333 -0.666992 -25.333 -1 -36 -1c-54 0 -115.667 1.33301 -185 4c12.667 29.333 29 56.333 49 81l85 104c36 45.333 64.333 79 85 101l80 91c10.667 12 18.667 21.333 24 28c28 14.667 52 26.334 72 35.001
c-9.33301 -32.667 -21.666 -84.334 -36.999 -155.001l-53 -235c28.667 -0.666992 44.667 -1 48 -1c13.333 0 25.666 0.333008 36.999 1l-38 -53h-16h-25h-18c-12 -53.333 -18 -88.666 -18 -105.999c0 -12 3.66699 -24.667 11 -38l-2 -7
c-26.667 -7.33301 -55 -17.666 -85 -30.999c-6.66699 1.33301 -13.667 5.33301 -21 12zM278 208.998h27l69 291c-132 -160 -209.333 -255.667 -232 -287l33 -1c32 -1.33301 49.333 -2 52 -2z" />
    <glyph glyph-name="five" unicode="5" 
d="M69 10l50.001 61c34.667 -17.333 67 -26 97 -26c45.333 0 83 15.5 113 46.5s45 70.167 45 117.5c0 30 -10.167 55.167 -30.5 75.5s-45.833 30.5 -76.5 30.5c-24 0 -51.667 -8.33301 -83 -25l-10 10c53.333 134 89 228.333 107 283c52 -6.66699 92.667 -10 122 -10
c36 0 65.167 5.33301 87.5 16s51.833 32.667 88.5 66l-10 -38l-71 -76c-16 -16.667 -32.333 -27.667 -49 -33s-42 -8 -76 -8c-20 0 -44.667 1.33301 -74 4c-4.66699 -12 -8 -20.333 -10 -25c-5.33301 -14.667 -11 -27.667 -17 -39c-5.33301 -14 -15.333 -37 -30 -69
c24.667 5.33301 45.667 8 63 8c45.333 0 81.333 -12 108 -36s40 -56.333 40 -97c0 -60 -33 -117.667 -99 -173c-62.667 -54 -124.334 -81 -185.001 -81c-32.667 0 -66 6 -100 18z" />
    <glyph glyph-name="six" unicode="6" 
d="M545 585l-43.999 -58c-26 19.333 -52 29 -78 29c-31.333 0 -62.833 -11.5 -94.5 -34.5s-59.167 -54.167 -82.5 -93.5c-26.667 -44.667 -47.667 -103.334 -63 -176.001c16.667 9.33301 27.667 15.333 33 18l30 19l29 17c27.333 10.667 51.666 16 72.999 16
c35.333 0 64.333 -11.5 87 -34.5s34 -52.5 34 -88.5c0 -53.333 -25.667 -101.166 -77 -143.499s-109.333 -63.5 -174 -63.5c-38 0 -67.667 13.167 -89 39.5s-32 62.833 -32 109.5c0 55.333 13.333 114.333 40 177s61.667 117 105 163c73.333 78.667 151.666 118 234.999 118
c20.667 0 43.334 -4.66699 68.001 -14zM180.001 217c-2.66699 -18 -4 -33.333 -4 -46c0 -43.333 9.16699 -77.333 27.5 -102s43.5 -37 75.5 -37c29.333 0 55.166 12.5 77.499 37.5s33.5 54.167 33.5 87.5c0 30.667 -9 56 -27 76s-40.667 30 -68 30
c-33.333 0 -71.666 -15.333 -114.999 -46z" />
    <glyph glyph-name="seven" unicode="7" 
d="M265 10l-92.0029 -27.998c-2.66699 24.667 -4 43.667 -4 57c0 18 2.33301 35.333 7 52c30.667 55.333 63.834 107.166 99.501 155.499s103.167 134.166 202.5 257.499c-84 -6 -150.667 -9 -200 -9c-18 0 -44 1 -78 3l-3 6c5.33301 17.333 16.333 49 33 95l11 27h15
c0.666992 -12 1.33398 -20.667 2.00098 -26s2.83398 -11 6.50098 -17s6.83398 -9.66699 9.50098 -11s9.66699 -2.83301 21 -4.5s21.666 -2.5 30.999 -2.5h48c76.667 0 136.667 1.66699 180 5c-26.667 -40 -53.667 -78 -81 -114
c-94 -123.333 -153.333 -206.666 -178 -249.999s-37 -86 -37 -128c0 -14.667 2.33301 -37.334 7 -68.001z" />
    <glyph glyph-name="eight" unicode="8" 
d="M257 305c-33.333 38.667 -49.999 75.6689 -49.999 111.002c0 44 21.167 83.333 63.5 118s90.833 52 145.5 52c26.667 0 48.334 -7.5 65.001 -22.5s25 -34.167 25 -57.5c0 -33.333 -18 -69.666 -54 -108.999c-33.333 -22.667 -68 -44 -104 -64
c3.33301 -2.66699 7.66602 -6.33398 12.999 -11.001s8.66602 -7.33398 9.99902 -8.00098c22.667 -18 36.834 -29.667 42.501 -35s11.167 -12 16.5 -20c12.667 -19.333 19 -38.333 19 -57c0 -28.667 -7.83301 -56.834 -23.5 -84.501s-36.834 -50.5 -63.501 -68.5
c-25.333 -17.333 -54.333 -31.5 -87 -42.5s-62 -16.5 -88 -16.5c-32 0 -58.333 9.66699 -79 29s-31 44.333 -31 75c0 52.667 22 101 66 145c43.333 24 81.333 46 114 66zM278.001 287.002l-24 -14c-58.667 -34.667 -88 -83.334 -88 -146.001c0 -30 7 -54 21 -72
s32.667 -27 56 -27c29.333 0 56 13.333 80 40s36 56.334 36 89.001c0 32 -12 60.333 -36 85zM328.001 349.002c66 35.333 99 81.999 99 139.999c0 18.667 -4.83301 34 -14.5 46s-22.5 18 -38.5 18c-23.333 0 -43.833 -10.667 -61.5 -32s-26.5 -46.333 -26.5 -75
c0 -33.333 14 -65.666 42 -96.999z" />
    <glyph glyph-name="nine" unicode="9" 
d="M43 15l49.001 55.001c40.667 -22 76 -33 106 -33c30.667 0 60.167 11 88.5 33s52.833 52.667 73.5 92c18 35.333 33.333 87.666 46 156.999c-51.333 -30.667 -86.333 -50.167 -105 -58.5s-37.334 -12.5 -56.001 -12.5c-34.667 0 -63 11.667 -85 35s-33 53.333 -33 90
c0 57.333 29.667 108.666 89 153.999c57.333 42 113 63 167 63c34.667 0 61.5 -13.5 80.5 -40.5s28.5 -64.833 28.5 -113.5c0 -46.667 -8.16699 -97.667 -24.5 -153s-36.833 -100.666 -61.5 -135.999c-31.333 -45.333 -71.833 -82.5 -121.5 -111.5s-97.5 -43.5 -143.5 -43.5
c-32 0 -64.667 7.66699 -98 23zM410.001 357.001c2 26 3.00098 43.667 3.00098 53c0 40 -8.83301 72 -26.5 96s-41.5 36 -71.5 36c-32 0 -58.167 -12.333 -78.5 -37s-30.5 -55.667 -30.5 -93c0 -30.667 8.16699 -56 24.5 -76s36.833 -30 61.5 -30
c35.333 0 74.666 17 117.999 51z" />
    <glyph glyph-name="colon" unicode=":" horiz-adv-x="266" 
d="M220 279l-11.999 20c-2.66699 3.33301 -5.66699 7.66602 -9 12.999l-5 7l-14 19c-0.666992 0.666992 -4.33398 6 -11.001 16c23.333 22.667 49.666 44 78.999 64c24 -29.333 40 -55.666 48 -78.999l-28 -22c-1.33301 -0.666992 -5.66602 -4 -12.999 -10l-21 -17z
M100.001 70l28 20.9971l34 28l14 12l21 -33c5.33301 -7.33301 9 -12.666 11 -15.999c1.33301 -1.33301 3 -3.66602 5 -6.99902c1.33301 -1.33301 2.33301 -2.66602 3 -3.99902c4 -4.66699 7.66699 -10 11 -16c-22.667 -22 -49 -43.333 -79 -64
c-21.333 26 -37.333 52.333 -48 79z" />
    <glyph glyph-name="semicolon" unicode=";" horiz-adv-x="245" 
d="M284 339c-12 -8 -21.332 -15.332 -27.999 -21.999c-1.33301 -0.666992 -5.66602 -4 -12.999 -10l-21 -17c-0.666992 -0.666992 -2.83398 -2.33398 -6.50098 -5.00098s-6.16699 -4.66699 -7.5 -6c-11.333 17.333 -18 28 -20 32l-17 27
c-0.666992 1.33301 -2.33398 3.66602 -5.00098 6.99902s-4.66699 6.33301 -6 9c20.667 22 46 43.333 76 64c21.333 -25.333 37.333 -51.666 48 -78.999zM57.001 -99.999l-26.998 11.001c39.333 35.333 67.166 70.5 83.499 105.5s26.833 81.167 31.5 138.5l40 12
c14 3.33301 25.333 6.66602 34 9.99902c-8 -50 -17 -88.333 -27 -115s-24.333 -51.167 -43 -73.5s-49.334 -51.833 -92.001 -88.5z" />
    <glyph glyph-name="less" unicode="&#x3c;" horiz-adv-x="532" 
d="M570 56v-54l-447 205v48l447 205v-54l-375 -176z" />
    <glyph glyph-name="equal" unicode="=" horiz-adv-x="532" 
d="M530 166v-55h-419v55h419zM530 338v-55h-419v55h419z" />
    <glyph glyph-name="greater" unicode="&#x3e;" horiz-adv-x="532" 
d="M122 56l375 174l-375 176v54l447 -205v-48l-447 -205v54z" />
    <glyph glyph-name="question" unicode="?" horiz-adv-x="389" 
d="M195 119l14 12.002l10 -16.5c4.66699 -7.66699 7.66699 -13.167 9 -16.5l18 -27c4 -4.66699 7.66699 -10 11 -16c-24 -24 -49.333 -45.333 -76 -64c-22.667 27.333 -38.667 53.666 -48 78.999l28 21c4.66699 3.33301 16 12.666 34 27.999zM224 179.002l-35 -11.001
c4 44.667 10 99.667 18 165l18 15c18.667 -4 34.334 -6 47.001 -6c46 0 83.333 16.333 112 49c27.333 32.667 41 67.667 41 105c0 20 -5.33301 36.167 -16 48.5s-24.334 18.5 -41.001 18.5c-44.667 0 -83 -29.333 -115 -88c-2.66699 6.66699 -6.16699 16.5 -10.5 29.5
l-11.5 33.5c43.333 38.667 96 58 158 58c36.667 0 65.834 -8.5 87.501 -25.5s32.5 -40.167 32.5 -69.5c0 -34 -9 -66.167 -27 -96.5s-41.667 -54.166 -71 -71.499c-18.667 -11.333 -35.834 -19 -51.501 -23s-41.5 -7.66699 -77.5 -11
c-17.333 0.666992 -30.5 -8.5 -39.5 -27.5s-15.167 -49.833 -18.5 -92.5z" />
    <glyph glyph-name="at" unicode="@" horiz-adv-x="716" 
d="M580 56l10.9961 -19.998c-113.333 -45.333 -223.333 -68 -330 -68c-55.333 0 -93.666 9 -114.999 27c-28 22.667 -42 59 -42 109c0 61.333 10.833 126.333 32.5 195s48.167 123 79.5 163c77.333 96 202 144 374 144c54.667 0 97.334 -6 128.001 -18
c20.667 -8.66699 36.667 -22.334 48 -41.001s17 -40.334 17 -65.001c0 -39.333 -9.16699 -82.833 -27.5 -130.5s-43.166 -92.5 -74.499 -134.5c-22 -28 -53.667 -55.167 -95 -81.5s-74 -39.5 -98 -39.5c-10.667 0 -16 6.66699 -16 20c0 6 3.33301 33.333 10 82
c-58.667 -43.333 -98.167 -71.333 -118.5 -84s-35.833 -19 -46.5 -19c-11.333 0 -20.666 6.83301 -27.999 20.5s-11 31.5 -11 53.5c0 40 7.33301 85 22 135s31 84.333 49 103c7.33301 8 35 28.333 83 61c22 12.667 48.333 19 79 19c36 0 74.333 -4.33301 115 -13
c-9.33301 -9.33301 -19 -20.333 -29 -33c-34 -138 -51 -221.333 -51 -250c0 -14.667 5.33301 -22 16 -22c40.667 0 76 35 106 105c32 76.667 48 139 48 187c0 74.667 -47 112 -141 112c-76.667 0 -146 -12.333 -208 -37c-74.667 -32 -127.667 -94.333 -159 -187
c-24 -68.667 -36 -139.667 -36 -213c0 -88 44 -132 132 -132c86.667 0 178.667 17.333 276 52zM487.996 233.002c1.33301 7.33301 4.00098 18.332 8.00098 32.999l9 44c3.33301 16 5 25 5 27c1.33301 6 9.66602 38 24.999 96c-32 7.33301 -59 11 -81 11
c-28 0 -52 -23.333 -72 -70c-24 -55.333 -36 -108.666 -36 -159.999c0 -33.333 8.66699 -50 26 -50c16 0 54.667 23 116 69z" />
    <glyph glyph-name="A" unicode="A" horiz-adv-x="634" 
d="M24 9l38.002 72c14.667 -4.66699 30 -7 46 -7c23.333 0 43.666 4 60.999 12s36.333 22 57 42c38.667 37.333 84.667 90.666 138 159.999l177 229c-33.333 2.66699 -51.333 4 -54 4l-15 1l-41 5c-18.667 1.33301 -31.334 2 -38.001 2
c-37.333 0 -66.5 -8.16699 -87.5 -24.5s-31.5 -39.166 -31.5 -68.499c0 -19.333 7.33301 -51 22 -95l-76 -41c-9.33301 25.333 -14 48.666 -14 69.999c0 52 26 102.667 78 152c48.667 47.333 96.667 71 144 71c17.333 0 48.333 -3.33301 93 -10c28 -5.33301 47.667 -8 59 -8
c14 0 28.333 7 43 21c2 2.66699 5.66699 6.66699 11 12l14 -10c-16 -79.333 -32.167 -177 -48.5 -293s-24.5 -190 -24.5 -222c0 -18 3.83301 -30.167 11.5 -36.5s21.5 -9.5 41.5 -9.5c13.333 0 30.666 1 51.999 3c2 0 9.66699 0.666992 23 2l-16 -25
c-32.667 -5.33301 -81.667 -14 -147 -26c-11.333 -2.66699 -21.333 -4 -30 -4c-6.66699 0 -12.334 2.16699 -17.001 6.5s-7 9.5 -7 15.5c0 12.667 2 27.334 6 44.001c1.33301 4.66699 3.33301 18.667 6 42l5 32.5c2 13 3 20.5 3 22.5c0.666992 8 2.33398 20 5.00098 36
c-35.333 2.66699 -95.666 4 -180.999 4c-67.333 -76.667 -117.5 -127.5 -150.5 -152.5s-66.833 -37.5 -101.5 -37.5c-16 0 -34 3 -54 9zM361.002 232h156l42 260z" />
    <glyph glyph-name="B" unicode="B" horiz-adv-x="614" 
d="M92 1l48.001 48.999c50 4.66699 83.833 18.667 101.5 42s37.167 79.333 58.5 168l76 303c-60 -4 -109 -18.333 -147 -43c-26 -16.667 -44.667 -36.5 -56 -59.5s-17 -51.833 -17 -86.5c0 -17.333 3.33301 -42.666 10 -75.999l-82 -38c-4.66699 28.667 -7 51 -7 67
c0 90 41.333 160.667 124 212c45.333 26 106.666 44.667 183.999 56l83 36l-8 -32h16c62.667 0 108.5 -7.83301 137.5 -23.5s43.5 -40.167 43.5 -73.5c0 -66 -50.667 -122 -152 -168c44.667 -4.66699 75.667 -14 93 -28c27.333 -20 41 -47 41 -81
c0 -74 -45.667 -133.667 -137 -179c-63.333 -32 -127.333 -48 -192 -48c-10.667 0 -40 0.666992 -88 2h-36h-34c-21.333 0.666992 -41.333 1 -60 1zM385.001 298.999l-10 -38.999c-11.333 -46 -24.666 -80.833 -39.999 -104.5s-48 -57.5 -98 -101.5
c83.333 -8.66699 133.666 -13 150.999 -13c52 0 92 16 120 48c28 31.333 42 69 42 113c0 31.333 -11 55.666 -33 72.999s-52.667 26 -92 26c-12.667 0 -26 -0.666992 -40 -2zM453.001 570l-61 -242c49.333 0.666992 88.333 11.667 117 33c18 13.333 32.333 31.333 43 54
s16 46 16 70c0 37.333 -13.333 62.333 -40 75c-12 6 -37 9.33301 -75 10z" />
    <glyph glyph-name="C" unicode="C" horiz-adv-x="532" 
d="M542 65l-6.99902 -31c-44.667 -33.333 -92.834 -59.833 -144.501 -79.5s-99.5 -29.5 -143.5 -29.5c-49.333 0 -87.833 15 -115.5 45s-41.5 71.333 -41.5 124c0 66.667 13.833 132.5 41.5 197.5s66.5 122.167 116.5 171.5c45.333 45.333 92.5 80.333 141.5 105
s95.833 37 140.5 37c36.667 0 64.667 -8.16699 84 -24.5s31.333 -42.166 36 -77.499l-76 -65c-3.33301 40.667 -12.833 70.667 -28.5 90s-38.834 29 -69.501 29c-49.333 0 -97.5 -20.5 -144.5 -61.5s-85 -94.5 -114 -160.5s-43.5 -133.667 -43.5 -203
c0 -48.667 11.833 -87.334 35.5 -116.001s55.834 -43 96.501 -43c68 0 146.667 30.667 236 92z" />
    <glyph glyph-name="D" unicode="D" horiz-adv-x="716" 
d="M88 0l49.001 46.998c55.333 4 93.666 18.667 114.999 44s42 81 62 167l77 305c-71.333 -7.33301 -125.666 -28.666 -162.999 -63.999s-56 -83.333 -56 -144c0 -16.667 2.33301 -35.667 7 -57l-84 -38c-4.66699 21.333 -7 40.666 -7 57.999c0 86 43 156.667 129 212
c50 32 114 54.667 192 68l73 31l-7 -29c93.333 -5.33301 158.666 -16.666 195.999 -33.999c70.667 -30.667 106 -82 106 -154c0 -43.333 -8.33301 -89.333 -25 -138s-38 -89 -64 -121c-20 -24.667 -49 -49.167 -87 -73.5s-77.667 -43.166 -119 -56.499
c-26.667 -10 -56 -16.333 -88 -19s-90.667 -4 -176 -4h-130zM467.001 567.998l-56 -222l-27.5 -109.5c-5 -19 -14.5 -40.833 -28.5 -65.5s-27 -42.834 -39 -54.501l-70 -66.5l131 -4h15c52.667 0 95.5 6.83301 128.5 20.5s62.167 36.5 87.5 68.5
c22.667 29.333 41.667 68.333 57 117s23 95 23 139c0 34.667 -7 65.334 -21 92.001s-33.667 46.667 -59 60c-27.333 14 -74.333 22.333 -141 25z" />
    <glyph glyph-name="E" unicode="E" horiz-adv-x="634" 
d="M371 314l183 -0.00488281l-39 -29c-3.33301 0 -8.33301 -0.166992 -15 -0.5s-11 -0.833008 -13 -1.5c-2 0 -4.83301 -0.166992 -8.5 -0.5s-9 -0.666016 -16 -0.999023s-13.5 -0.5 -19.5 -0.5c-8 -0.666992 -19.333 -1.5 -34 -2.5l-49 -3.5
c-18 -70 -32.833 -115 -44.5 -135s-42.5 -52.667 -92.5 -98h266c49.333 0 80.333 2.5 93 7.5s19 17.167 19 36.5c0 6.66699 -1.33301 19.667 -4 39l78 29c2.66699 -10 4 -18 4 -24c0 -22 -21.667 -52 -65 -90c-23.333 -21.333 -41.333 -34.666 -54 -39.999
s-32.334 -8 -59.001 -8c-30 0 -86.333 1.33301 -169 4c-32 1.33301 -59.333 2 -82 2l-92 1c-19.333 0 -38.666 0.333008 -57.999 1l39 34c42 10 70 25.333 84 46s30.667 70.334 50 149.001c2 6 6 19.667 12 41h-29c11.333 14 24.666 28.667 39.999 44l57 231
c-70 -2 -120.167 -12 -150.5 -30s-45.5 -47 -45.5 -87c0 -24.667 4.33301 -53 13 -85l-74 -49c-12 30.667 -18 58.334 -18 83.001c0 51.333 24.667 96.333 74 135c55.333 44 128.333 66.333 219 67l71 21l-6 -21l219 4c16.667 -5.33301 26.334 -18.666 29.001 -39.999
l-68 -68c-13.333 34 -24 55 -32 63s-22 12 -42 12c-10.667 0 -37.667 -1 -81 -3h-32z" />
    <glyph glyph-name="F" unicode="F" horiz-adv-x="593" 
d="M446 300l161.995 -0.000976562c-12.667 -12.667 -22.667 -21.167 -30 -25.5s-18 -7.5 -32 -9.5c-3.33301 -1.33301 -40 -3.66602 -110 -6.99902l-24 -98c-12.667 -49.333 -27.667 -87.833 -45 -115.5s-44.333 -56.5 -81 -86.5c-34 -28 -63.833 -47.5 -89.5 -58.5
s-53.5 -16.5 -83.5 -16.5c-12.667 0 -30 1 -52 3l40 67c11.333 0 24.5 -0.333008 39.5 -1s24.833 -1 29.5 -1c48.667 0 82.834 11.667 102.501 35s39.834 75.666 60.501 156.999l27 110h-25l37 47l65 263c-19.333 2 -35.666 3 -48.999 3
c-47.333 0 -85.166 -13.333 -113.499 -40s-42.5 -63 -42.5 -109c0 -25.333 7 -59.333 21 -102l-86 -39c-8.66699 32 -13 58.333 -13 79c0 38 8.16699 73.833 24.5 107.5s38.833 60.834 67.5 81.501c52 37.333 129 56 231 56l137 -1c53.333 0 99 12 137 36l-11 -29
c-21.333 -13.333 -42.666 -29 -63.999 -47l-164 4z" />
    <glyph glyph-name="G" unicode="G" horiz-adv-x="634" 
d="M596 246l-39.9951 -160.001c-15.333 -60 -29 -104.167 -41 -132.5s-29 -54.833 -51 -79.5c-66.667 -77.333 -139.667 -116 -219 -116c-18.667 0 -43.334 1.66699 -74.001 5l43 68c37.333 -6 74.333 -9 111 -9c27.333 0 49 6 65 18s29 32 39 60
c10 24.667 24.333 74.667 43 150c-82 -41.333 -151.667 -62 -209 -62c-44 0 -78.667 14.333 -104 43s-38 67.667 -38 117c0 54 12.167 110.167 36.5 168.5s57.166 109.833 98.499 154.5c83.333 89.333 181.666 134 294.999 134c39.333 0 69.333 -6.16699 90 -18.5
s35.667 -33.166 45 -62.499l-76 -85c-5.33301 37.333 -13.333 64.333 -24 81c-20.667 32 -53.334 48 -98.001 48c-71.333 0 -135.5 -39.333 -192.5 -118s-85.5 -168 -85.5 -268c0 -46.667 11 -83.667 33 -111s52 -41 90 -41c23.333 0 49 6.16699 77 18.5
s52.667 28.833 74 49.5l37 148c-48.667 -1.33301 -98.334 -3.33301 -149.001 -6v8l62 32c113.333 0 190.333 -2 231 -6l-48 -28h-21z" />
    <glyph glyph-name="H" unicode="H" horiz-adv-x="696" 
d="M401 330l219.004 0.00292969c6 19.333 9 29.666 9 30.999l27 100c9.33301 32 18.833 56.833 28.5 74.5s24.5 37.5 44.5 59.5c62 66 113.667 99 155 99c15.333 0 30.666 -2.33301 45.999 -7l-35 -56c-19.333 6.66699 -37.333 10 -54 10c-22 0 -38.667 -6 -50 -18
s-22.333 -36 -33 -72c-13.333 -40.667 -37.333 -125.334 -72 -254.001c-25.333 -97.333 -40 -155.333 -44 -174s-6 -35.667 -6 -51c0 -18.667 11.333 -28 34 -28c20 0 52 2 96 6l-18 -25c-84.667 -16 -136.334 -26.333 -155.001 -31c-12 -3.33301 -21.667 -5 -29 -5
c-6 0 -11.167 2.16699 -15.5 6.5s-6.5 9.16602 -6.5 14.499c0 17.333 19.667 98.666 59 243.999c0.666992 2 2 7.66699 4 17s4 17.666 6 24.999c-42.667 -0.666992 -116.334 -4.33398 -221.001 -11.001c-17.333 -54 -30.166 -88.667 -38.499 -104s-25.833 -37 -52.5 -65
c-58 -61.333 -103.333 -96.666 -136 -105.999c-20 -6.66699 -46.333 -10 -79 -10c-14 0 -30.667 1.33301 -50 4l48 67c18 -1.33301 36 -2 54 -2c23.333 0 42.166 1.66699 56.499 5s27.666 8.83301 39.999 16.5s23 20.334 32 38.001s17.333 38.334 25 62.001
s16.834 55.834 27.501 96.501l-26 2l37 39c27.333 109.333 46.666 183 57.999 221c-53.333 0 -91 -4.33301 -113 -13c-43.333 -18.667 -65 -57.334 -65 -116.001c0 -18 4 -41.667 12 -71l-77 -25c-6 20.667 -9 37.667 -9 51c0 61.333 26.667 112 80 152s128.333 60 225 60
c4 0 24 -0.666992 60 -2l-40 -34c-4 -20 -6.66699 -32.667 -8 -38c-31.333 -116 -48 -177 -50 -183z" />
    <glyph glyph-name="I" unicode="I" horiz-adv-x="389" 
d="M83 0l37 26.001l60 7c9.33301 32 14.666 50 15.999 54l80 315l22 84c0 2 1.83301 10.667 5.5 26s6.83398 29.666 9.50098 42.999l-92 6l36 26c38.667 -0.666992 65 -1 79 -1c11.333 0 52 0.333008 122 1h35l-36 -26l-60 -6c-57.333 -211.333 -101.333 -385.333 -132 -522
l95 -7l-36 -26l-160 1c-9.33301 0 -36.333 -0.333008 -81 -1z" />
    <glyph glyph-name="J" unicode="J" horiz-adv-x="409" 
d="M264 350l-78.001 -36c-6 23.333 -9 43 -9 59c0 44 11.833 82.333 35.5 115s57.834 57.667 102.501 75c40 15.333 102.667 23 188 23l-34 -30l-94 -378c-15.333 -62 -29.166 -103.167 -41.499 -123.5s-40.166 -47.833 -83.499 -82.5
c-48.667 -38 -86.834 -63.667 -114.501 -77s-57.5 -20 -89.5 -20c-14 0 -29 1.66699 -45 5l41 69c27.333 -6.66699 50.333 -10 69 -10c50.667 0 90 19 118 57c15.333 18 29.666 48.667 42.999 92c2 5.33301 13.667 47 35 125l12 41c-4 11.333 -12 21.333 -24 30
c14 14 27.667 26.667 41 38l56 225h-15c-39.333 0 -69.333 -10.5 -90 -31.5s-31 -51.5 -31 -91.5c0 -18 2.66699 -42.667 8 -74z" />
    <glyph glyph-name="K" unicode="K" horiz-adv-x="675" 
d="M860 -49l11.0029 -84.001c-32 -12 -62 -18 -90 -18c-76 0 -137 26 -183 78c-34 38.667 -71.333 124 -112 256l-18 62l-18 56c-4.66699 12 -7.33398 19.667 -8.00098 23c-16 -64 -33.333 -111 -52 -141s-59.334 -76.333 -122.001 -139h124
c-34.667 -21.333 -59 -34 -73 -38s-43.667 -6 -89 -6h-140l45 44h39c39.333 0 70.333 10.833 93 32.5s44 61.167 64 118.5c12.667 36.667 33.334 112.667 62.001 228c3.33301 14 7.5 30.5 12.5 49.5s8.83301 34.5 11.5 46.5s5 22 7 30c-22 2 -38.333 3 -49 3
c-47.333 0 -83.666 -9.5 -108.999 -28.5s-38 -46.5 -38 -82.5c0 -28.667 7.66699 -61 23 -97l-84 -36c-11.333 30.667 -17 56.334 -17 77.001c0 76 39.333 133.333 118 172c45.333 22 109.333 33 192 33c21.333 0 52.333 -1.33301 93 -4
c-7.33301 -9.33301 -14.333 -16 -21 -20s-17.334 -8 -32.001 -12l-54 -214c19.333 14 30.333 22.667 33 26l215 176c23.333 19.333 42 32.333 56 39s29.333 10 46 10c15.333 0 34.333 -4.33301 57 -13l-38 -76c-24 10 -44 15 -60 15
c-22.667 0 -49.334 -10.167 -80.001 -30.5s-86.334 -64.5 -167.001 -132.5l57 -156c25.333 -72 44 -122.5 56 -151.5s25.667 -57.5 41 -85.5c30 -56 63.667 -84 101 -84c17.333 0 32.833 5.16699 46.5 15.5s30.5 29.833 50.5 58.5z" />
    <glyph glyph-name="L" unicode="L" horiz-adv-x="593" 
d="M545 588l-40.0029 -58.0039c-25.333 1.33301 -45.666 2 -60.999 2c-41.333 0 -69.666 -20.667 -84.999 -62c-10.667 -32.667 -29.667 -107 -57 -223c-12.667 -53.333 -23.5 -88.666 -32.5 -105.999s-27.167 -38.666 -54.5 -63.999l-28 -27h194
c33.333 0 58.5 0.166992 75.5 0.5s34.833 2.33301 53.5 6s31.834 7.83398 39.501 12.501s17.167 13.5 28.5 26.5s20.5 26.333 27.5 40l29.5 60.5l11 -20c-16.667 -43.333 -36.334 -87.666 -59.001 -132.999c-9.33301 -18.667 -20.666 -31.5 -33.999 -38.5
s-33.333 -10.5 -60 -10.5c-22.667 0 -90 2.66699 -202 8c-86.667 3.33301 -139 5 -157 5c-17.333 0 -50.666 -1 -99.999 -3c12 16.667 24 30.334 36 41.001c7.33301 -0.666992 17.666 -1 30.999 -1c32.667 0 57.334 11.833 74.001 35.5s31.667 68.167 45 133.5
c20 94.667 36.667 160.167 50 196.5s32.666 67.166 57.999 92.499c47.333 47.333 86.333 75 117 83c18 4 36.333 6 55 6c9.33301 0 24.333 -1 45 -3z" />
    <glyph glyph-name="M" unicode="M" horiz-adv-x="860" 
d="M59 0l47 70.999c39.333 -3.33301 64.666 -5 75.999 -5c41.333 0 71 17 89 51c9.33301 16 25.666 64.5 48.999 145.5s46.666 168.167 69.999 261.5c-27.333 4 -52 6 -74 6c-44.667 0 -79 -8.83301 -103 -26.5s-36 -43.167 -36 -76.5c0 -25.333 11 -61.666 33 -108.999
l-78 -54c-15.333 34 -23 65.333 -23 94c0 26.667 7.66699 55.334 23 86.001s37 59.667 65 87c24 25.333 47.667 43 71 53s52 15 86 15c24 0 51.667 -2 83 -6l32 25c18.667 -102 36.334 -253 53.001 -453l26 37l116 168l138 192c18.667 26.667 33.667 45 45 55s31 23 59 39
c33.333 20 62 30 86 30c12.667 0 26.334 -2 41.001 -6l-42 -57c-16 2.66699 -25 4.33398 -27 5.00098c-12.667 2.66699 -24.667 4 -36 4c-13.333 0 -23.666 -7.66699 -30.999 -23s-21.333 -59 -42 -131c-10.667 -37.333 -33 -124 -67 -260
c-18 -74.667 -27 -121.667 -27 -141c0 -27.333 17 -41 51 -41c5.33301 0 19.333 0.666992 42 2c3.33301 0.666992 16.333 1.66699 39 3l-22 -26c-14.667 -2 -22.667 -3.33301 -24 -4l-48 -6c-39.333 -6 -71.666 -11.333 -96.999 -16c-10.667 -1.33301 -17 -2 -19 -2
c-6.66699 0 -12.5 2.66699 -17.5 8s-7.5 11.333 -7.5 18c0 12 4.66699 32 14 60c0 0.666992 24.333 91.667 73 273c12.667 43.333 20.667 73.666 24 90.999l10 45c-148 -210.667 -239 -352 -273 -424l-50 -39c-1.33301 53.333 -14.333 206.666 -39 459.999l-67 -251
c-11.333 -40.667 -21.5 -70.5 -30.5 -89.5s-21.833 -39.5 -38.5 -61.5c-42.667 -52 -102 -78 -178 -78c-16.667 0 -31.334 0.333008 -44.001 1z" />
    <glyph glyph-name="N" unicode="N" horiz-adv-x="716" 
d="M41 0l48.999 71.001c26 -2.66699 47.333 -4 64 -4c26.667 0 47 3.5 61 10.5s26.333 19.833 37 38.5c32.667 58 73 189.667 121 395c-26 1.33301 -52.333 2 -79 2c-42.667 0 -74.334 -5.66699 -95.001 -17c-30.667 -16.667 -46 -41.334 -46 -74.001
c0 -22.667 10.667 -57.334 32 -104.001l-70 -48c-17.333 34.667 -26 64.667 -26 90c0 28.667 10.167 59.667 30.5 93s47.166 63 80.499 89c35.333 26.667 80.333 40 135 40c13.333 0 32 -1 56 -3l35 31c54 -201.333 89.833 -329.833 107.5 -385.5
s38.834 -108.167 63.501 -157.5c7.33301 25.333 12.333 44.666 15 57.999c12.667 50.667 23.667 99 33 145c24.667 110.667 44.334 186.334 59.001 227.001s34.334 75.334 59.001 104.001c51.333 61.333 98.666 92 141.999 92c5.33301 0 16 -0.666992 32 -2l-38 -68
c-9.33301 1.33301 -18.666 2 -27.999 2c-23.333 0 -41.833 -4.5 -55.5 -13.5s-26.167 -24.5 -37.5 -46.5c-16 -32.667 -30.833 -71.167 -44.5 -115.5s-31.834 -112.166 -54.501 -203.499c-21.333 -90 -38.666 -168.667 -51.999 -236c52 -99.333 110.667 -149 176 -149
c27.333 0 50.333 12 69 36c10.667 11.333 22.334 32.333 35.001 63l25 -91c-40.667 -24 -85.667 -36 -135 -36c-120 0 -211.333 63.333 -274 190c-31.333 61.333 -61 151.666 -89 270.999l-38 159c-32 -130 -54 -211.333 -66 -244
c-36.667 -94.667 -81.334 -158 -134.001 -190c-24.667 -14.667 -57.667 -22 -99 -22c-9.33301 0 -28 1 -56 3z" />
    <glyph glyph-name="O" unicode="O" horiz-adv-x="614" 
d="M499 605c54.667 0 96.5 -16.998 125.5 -50.998s43.5 -83.333 43.5 -148c0 -126.667 -38.333 -227.334 -115 -302.001c-38.667 -36.667 -82 -65.334 -130 -86.001s-95.333 -31 -142 -31c-57.333 0 -100.833 17 -130.5 51s-44.5 83.667 -44.5 149
c0 64 11.167 123.5 33.5 178.5s53.833 100.5 94.5 136.5c35.333 30 77.833 54.667 127.5 74s95.5 29 137.5 29zM439 565.002c-69.333 0 -128.166 -32.667 -176.499 -98s-72.5 -145.333 -72.5 -240c0 -62.667 13.167 -111.5 39.5 -146.5s63.166 -52.5 110.499 -52.5
c38 0 73.5 10.667 106.5 32s60.5 51.666 82.5 90.999c36.667 64.667 55 139.334 55 224.001c0 59.333 -12.833 105.833 -38.5 139.5s-61.167 50.5 -106.5 50.5z" />
    <glyph glyph-name="P" unicode="P" horiz-adv-x="552" 
d="M80 43l146.001 -0.00195312c39.333 136.667 81.666 306 126.999 508c-58 -6 -103.667 -21.333 -137 -46c-40.667 -32 -61 -77.333 -61 -136c0 -21.333 5 -47 15 -77l-77 -46c-11.333 28.667 -17 56.334 -17 83.001c0 82 41.667 148.333 125 199
c45.333 27.333 104.333 45 177 53l68 34l-6 -25c16 0.666992 31 1 45 1c116.667 0 175 -34.667 175 -104c0 -37.333 -10.667 -72.833 -32 -106.5s-50.333 -60.5 -87 -80.5c-59.333 -32 -121.666 -50 -186.999 -54c-5.33301 -19.333 -13.666 -54 -24.999 -104
c-0.666992 -2 -5.33398 -22 -14.001 -60l-9 -39c71.333 0.666992 128.666 3.33398 171.999 8.00098l-2 -9c-42.667 -20.667 -79.5 -32.667 -110.5 -36s-116.167 -5 -255.5 -5h-72zM432.001 558.998l-66.999 -273c14 -2.66699 25.667 -4 35 -4
c49.333 0 90.166 17.667 122.499 53s48.5 80.333 48.5 135c0 60.667 -33 91 -99 91c-6.66699 0 -20 -0.666992 -40 -2z" />
    <glyph glyph-name="Q" unicode="Q" horiz-adv-x="614" 
d="M821 -30l50.002 -49.999c-72 -77.333 -145.333 -116 -220 -116c-28.667 0 -56.667 6.33301 -84 19s-61.666 35 -102.999 67c-38.667 30.667 -78 65 -118 103c-22.667 -4 -42.334 -6 -59.001 -6c-120.667 0 -181 68 -181 204c0 60.667 11.5 118.667 34.5 174
s54.167 100.666 93.5 135.999c36 31.333 79.167 56.5 129.5 75.5s98.833 28.5 145.5 28.5c48 0 86.333 -16.333 115 -49c30.667 -35.333 46 -87 46 -155c0 -102 -27.667 -189.667 -83 -263c-18.667 -24.667 -39.334 -45.5 -62.001 -62.5s-55.667 -36.167 -99 -57.5
c130.667 -108.667 228 -163 292 -163c27.333 0 50.166 10 68.499 30s29.833 48.333 34.5 85zM380.002 56.001l22.002 -19c34 14.667 60.667 30.5 80 47.5s37 40.833 53 71.5c15.333 28 27.666 62.167 36.999 102.5s14 78.5 14 114.5c0 60 -13 106.833 -39 140.5
s-61.667 50.5 -107 50.5c-69.333 0 -128.333 -33.167 -177 -99.5s-73 -146.833 -73 -241.5c0 -56.667 12 -103 36 -139s55 -54 93 -54c17.333 0 37.666 8.66699 60.999 26z" />
    <glyph glyph-name="R" unicode="R" horiz-adv-x="614" 
d="M39 1l39.999 45.001c66.667 -0.666992 112 10.666 136 33.999s46.667 78.333 68 165l51 202c4.66699 21.333 10.334 45.333 17.001 72l9 37c-56.667 -6.66699 -97.334 -21.667 -122.001 -45c-32 -30 -48 -69.333 -48 -118c0 -15.333 4 -40.666 12 -75.999l-86 -44
c-10 31.333 -15 58.666 -15 81.999c0 60 21.833 109.167 65.5 147.5s107.5 64.833 191.5 79.5l94 44l-9 -33c29.333 1.33301 49.333 2 60 2c46.667 0 82.334 -8.5 107.001 -25.5s37 -41.167 37 -72.5c0 -52.667 -25.333 -95.667 -76 -129
c-26.667 -18 -64.334 -35 -113.001 -51c46 -146 79.333 -243 100 -291c42 -102 87.333 -153 136 -153c20 0 37.833 6.5 53.5 19.5s31.834 34.5 48.501 64.5l50 -62c-29.333 -21.333 -54.5 -35.833 -75.5 -43.5s-45.833 -11.5 -74.5 -11.5c-80 0 -141.667 32.667 -185 98
c-40 58.667 -78.333 168.667 -115 330c-3.33301 13.333 -6.66602 22.5 -9.99902 27.5s-7.66602 7.16699 -12.999 6.5c-0.666992 0 -1.33398 -0.333008 -2.00098 -1c-16.667 -64.667 -32.167 -108.834 -46.5 -132.501s-50.5 -64.5 -108.5 -122.5
c24 -0.666992 45.167 -1.16699 63.5 -1.5s32.166 -0.666016 41.499 -0.999023s19.333 -0.5 30 -0.5l-76 -39c-40 -2.66699 -98.667 -4 -176 -4c-4 -0 -24 0.333008 -60 1zM435.999 564.001l-59.001 -239c48 6 84.667 16.667 110 32c21.333 13.333 38.5 31.5 51.5 54.5
s19.5 47.167 19.5 72.5c0 28.667 -7.16699 49.167 -21.5 61.5s-37.166 18.5 -68.499 18.5h-32z" />
    <glyph glyph-name="S" unicode="S" horiz-adv-x="471" 
d="M45 104l15.999 11.999c8 -41.333 20.667 -71.333 38 -90c30.667 -34 69.667 -51 117 -51c44.667 0 83.5 15.167 116.5 45.5s49.5 65.5 49.5 105.5c0 24 -6 44.833 -18 62.5s-35.333 40.167 -70 67.5c-30 22.667 -51 43.5 -63 62.5s-18 40.167 -18 63.5
c0 50.667 24.333 99.667 73 147s99.334 71 152.001 71c54.667 0 85 -28 91 -84l-67 -48c-5.33301 32.667 -13 54.834 -23 66.501s-25.667 17.5 -47 17.5c-30 0 -55.833 -12.333 -77.5 -37s-32.5 -53.667 -32.5 -87c0 -22 5.16699 -40.167 15.5 -54.5
s34.166 -36.166 71.499 -65.499c38 -29.333 62.833 -52 74.5 -68s17.5 -34.333 17.5 -55c0 -64.667 -32.167 -123.834 -96.5 -177.501s-135.5 -80.5 -213.5 -80.5c-65.333 0 -115.666 23.667 -150.999 71z" />
    <glyph glyph-name="T" unicode="T" horiz-adv-x="512" 
d="M164 0l35.999 40.002c43.333 2 73.333 13.667 90 35s34.334 69.666 53.001 144.999l83 334c-42.667 3.33301 -73.667 5 -93 5c-54 0 -93.333 -5.66699 -118 -17c-51.333 -24.667 -77 -66.334 -77 -125.001c0 -22.667 8 -54 24 -94l-77 -51
c-17.333 34.667 -26 67.334 -26 98.001c0 65.333 29.833 119.666 89.5 162.999s134.167 65 223.5 65c20 0 87 -2.66699 201 -8c42.667 -1.33301 64.334 -2 65.001 -2c18.667 0 32 3.83301 40 11.5s22.667 29.5 44 65.5l13 -16c-12 -50 -22.333 -80.833 -31 -92.5
s-25 -17.5 -49 -17.5c-14 0 -65.667 3.66699 -155 11l-80 -321c-8.66699 -38.667 -21.334 -70.167 -38.001 -94.5s-44.667 -53.166 -84 -86.499c28 -1.33301 43.667 -2 47 -2c60.667 0 116 3.33301 166 10l-2 -8c-41.333 -22.667 -78.333 -36.334 -111 -41.001
s-110.667 -7 -234 -7z" />
    <glyph glyph-name="U" unicode="U" horiz-adv-x="757" 
d="M637 546l28 25.002c48 5.33301 92 11 132 17c-82 -294.667 -123 -468.334 -123 -521.001c0 -12.667 2.83301 -21.667 8.5 -27s15.5 -8 29.5 -8c21.333 0 45.666 1.33301 72.999 4l-21 -26c-70.667 -16 -122.667 -24 -156 -24c-18.667 0 -28 7.33301 -28 22
c0 8 2.66699 25 8 51c-112 -48 -194 -72 -246 -72c-34 0 -61.333 11.5 -82 34.5s-31 53.167 -31 90.5c0 46.667 13.167 101.167 39.5 163.5s68.833 139.833 127.5 232.5c-37.333 12.667 -69.333 19 -96 19c-33.333 0 -61.333 -9.33301 -84 -28s-34 -42 -34 -70
c0 -23.333 11.667 -57 35 -101l-69 -56c-19.333 41.333 -29 74.666 -29 99.999c0 28 9.5 57.833 28.5 89.5s44.833 60.167 77.5 85.5c34 26 75 39 123 39c15.333 0 46.666 -4 93.999 -12l11 5c14 6.66699 24.333 11 31 13l6 -8c-52 -70.667 -94.5 -146.167 -127.5 -226.5
s-49.5 -148.833 -49.5 -205.5c0 -36 8.66699 -64.667 26 -86s40.666 -32 69.999 -32c26.667 0 52.834 4.16699 78.501 12.5s59.834 23.833 102.501 46.5l10.5 41c3.66699 14.667 5.83398 23 6.50098 25l62 248l25 103c2 11.333 4.66699 23 8 35c-22 1.33301 -37.667 2 -47 2
c-6.66699 0 -12.667 -0.333008 -18 -1z" />
    <glyph glyph-name="V" unicode="V" horiz-adv-x="655" 
d="M434 552l-68.001 -470.002c92 89.333 154.833 151.666 188.5 186.999s64.167 71 91.5 107c62 80.667 93 149.667 93 207c0 32 -12 57.667 -36 77c20.667 18 41.667 31.667 63 41c18.667 -1.33301 36.334 -7 53.001 -17c6 -17.333 9 -33.333 9 -48
c0 -57.333 -28.667 -124.666 -86 -201.999c-40.667 -54 -135.334 -157.667 -284.001 -311l-111 -119c-32 -7.33301 -57.333 -12.666 -76 -15.999c21.333 104 49 290.333 83 559c-17.333 2 -32 3 -44 3c-36 0 -65.833 -12.667 -89.5 -38s-35.5 -57.666 -35.5 -96.999
c0 -24.667 6 -52 18 -82l-78 -43c-12.667 32 -19 58.333 -19 79c0 30 7.83301 59.5 23.5 88.5s37.834 54.5 66.501 76.5c48 35.333 108 53 180 53c23.333 0 58 -2.33301 104 -7c-12 -10.667 -27.333 -20 -46 -28z" />
    <glyph glyph-name="W" unicode="W" horiz-adv-x="901" 
d="M336 3l-66.9961 -20c48.667 281.333 78.667 467 90 557c-64.667 -0.666992 -106.667 -5 -126 -13c-38.667 -13.333 -58 -42.333 -58 -87c0 -32.667 11.333 -66 34 -100l-77 -48c-17.333 30.667 -26 61.334 -26 92.001c0 40.667 13.333 77.334 40 110.001s62 56 106 70
c18 6.66699 38.333 10.5 61 11.5s85 2.16699 187 3.5c-16.667 -16 -34.667 -27 -54 -33c-37.333 -190.667 -62.333 -334.334 -75 -431.001l163.5 235.5c69.667 103 115.834 173.833 138.501 212.5l59 24c-0.666992 -16.667 -2.33398 -43.334 -5.00098 -80.001
c-4 -71.333 -7 -131.333 -9 -180l-6 -145c0 -8 -1.66699 -38 -5 -90c112 132 185.333 231.333 220 298c32.667 66.667 49 121.334 49 164.001c0 39.333 -12.667 71.666 -38 96.999c19.333 16.667 41.333 30.667 66 42c17.333 -5.33301 30.666 -10.666 39.999 -15.999
c10.667 -20.667 16 -43 16 -67c0 -50 -19.333 -108.5 -58 -175.5s-106.334 -159.833 -203.001 -278.5c-44.667 -54.667 -82.334 -105.334 -113.001 -152.001l-65 -21c11.333 118.667 18.666 276 21.999 472z" />
    <glyph glyph-name="X" unicode="X" horiz-adv-x="573" 
d="M0 0l49.9971 77.0029c11.333 -1.33301 22 -2 32 -2c24.667 0 44.5 2.66699 59.5 8s29.167 15 42.5 29c18 17.333 70.333 81.666 157 192.999c-8.66699 51.333 -23 112.333 -43 183c-9.33301 32.667 -27.666 49 -54.999 49c-10 0 -28.333 -3 -55 -9
c-2.66699 -0.666992 -10.667 -2.33398 -24 -5.00098l23 30c91.333 25.333 144.333 38 159 38c11.333 0 18.333 -7.33301 21 -22l36 -186l104 129c23.333 30.667 44.166 52 62.499 64s38.5 18 60.5 18c20.667 0 39.667 -7.33301 57 -22l-46 -72c-16.667 10 -31.667 15 -45 15
c-16.667 0 -32.834 -5.66699 -48.501 -17s-35.167 -31 -58.5 -59l-79 -96l9 -46c22 -108 40.333 -180 55 -216c12.667 -29.333 38.334 -44 77.001 -44c12 0 27 1 45 3c0.666992 0 9 0.666992 25 2l-18 -24c-51.333 -9.33301 -78.666 -14.333 -81.999 -15
c-12 -2 -24.333 -4.16699 -37 -6.5s-19.667 -3.5 -21 -3.5c-14 -4 -25.667 -6 -35 -6c-8 0 -14.167 4.16699 -18.5 12.5s-9.16602 26.166 -14.499 53.499l-43 211l-43 -54l-61 -79c-29.333 -38 -52.333 -65.333 -69 -82s-33 -29 -49 -37
c-22.667 -10.667 -50.667 -16 -84 -16c-9.33301 0 -24.666 1.33301 -45.999 4z" />
    <glyph glyph-name="Y" unicode="Y" horiz-adv-x="573" 
d="M32 -154l36.002 75.999c39.333 -2.66699 64 -4 74 -4c44 0 79.5 5.83301 106.5 17.5s49.833 30.834 68.5 57.501c28 38.667 51.667 84.667 71 138c13.333 38.667 20 82 20 130c0 83.333 -13.333 149.166 -40 197.499s-62.667 72.5 -108 72.5
c-31.333 0 -57.833 -12.333 -79.5 -37s-32.5 -55 -32.5 -91c0 -24 7 -58.333 21 -103l-78 -49c-14 32 -21 63 -21 93c0 58.667 28.167 114.334 84.5 167.001s115.166 79 176.499 79c43.333 0 77.666 -19.5 102.999 -58.5s38 -92.167 38 -159.5
c0 -31.333 -3.66699 -69 -11 -113c68 141.333 121.333 237.333 160 288s78.334 76 119.001 76c15.333 0 29 -5.66699 41 -17l-28 -75c-20.667 8.66699 -38 13 -52 13c-28.667 0 -57.334 -20 -86.001 -60c-22 -32.667 -70.667 -125 -146 -277
c-50.667 -102 -91.667 -177.5 -123 -226.5s-59.666 -81.833 -84.999 -98.5c-38.667 -25.333 -99.334 -38 -182.001 -38c-18 0 -33.667 0.666992 -47 2z" />
    <glyph glyph-name="Z" unicode="Z" horiz-adv-x="634" 
d="M595 232l76.999 46.9971c13.333 -32 20 -61.667 20 -89c0 -17.333 -2.33301 -31.666 -7 -42.999s-14.667 -26 -30 -44l-23 -29c-20 -26 -36.667 -46 -50 -60c-20 -18 -44.333 -27 -73 -27c-31.333 0 -114.333 7 -249 21c-38.667 4 -72.334 6 -101.001 6
c-34 0 -66 -10.667 -96 -32v37c14.667 12.667 66.334 62.334 155.001 149.001l347 347c-42 -6.66699 -81.667 -10 -119 -10c-31.333 0 -66 2.33301 -104 7c-13.333 1.33301 -22.666 2 -27.999 2c-15.333 0 -28.166 -6.33301 -38.499 -19s-33.5 -50.667 -69.5 -114l-18 26
l68 147c8 16.667 14.667 27.334 20 32.001s13.666 7 24.999 7c5.33301 0 25 -1.66699 59 -5c18 -2 60 -6.33301 126 -13c38.667 -4 66 -6 82 -6c35.333 0 69.666 14 102.999 42v-29l-264 -268l-148 -150l-83 -86l33 5h19h18c26.667 0 72.334 -3 137.001 -9
c59.333 -5.33301 108 -8 146 -8c66.667 0 100 26.667 100 80c0 19.333 -7 41 -21 65z" />
    <glyph glyph-name="bracketleft" unicode="[" horiz-adv-x="245" 
d="M114 -168l-23.001 -0.000976562c-11.333 0 -25.666 -0.333008 -42.999 -1l63 231l48 185l54 193c24 88.667 44.333 169 61 241h100h40l-36 -26l-50 -6c-20 -65.333 -40.333 -138.666 -61 -219.999l-144 -566l85 -5l-36 -27h-11c-15.333 0 -31 0.333008 -47 1z" />
    <glyph glyph-name="backslash" unicode="\" horiz-adv-x="491" 
d="M496 0h-60l-247 593h60z" />
    <glyph glyph-name="bracketright" unicode="]" horiz-adv-x="327" 
d="M344 681h46c-38 -140 -58.667 -216.667 -62 -230l-103 -378c-18 -64 -38.333 -144.667 -61 -242l-99 1c-16 0 -29.667 -0.333008 -41 -1l34 26l53 6c13.333 45.333 22 76.333 26 93l90 341l69 273c12 50 18.667 76.667 20 80l-87 5l36 26h60h19z" />
    <glyph glyph-name="asciicircum" unicode="^" horiz-adv-x="532" 
d="M483 458h-52l-81 175l-81 -175h-52l109 239h49z" />
    <glyph glyph-name="underscore" unicode="_" horiz-adv-x="512" 
d="M0 -97h512v-51h-512v51z" />
    <glyph glyph-name="grave" unicode="`" horiz-adv-x="225" 
d="M208 662l16.001 9c21.333 -58 42.666 -122.667 63.999 -194c-4.66699 -1.33301 -13.334 -3.33301 -26.001 -6c-37.333 80.667 -65.666 138.667 -84.999 174l13 7z" />
    <glyph glyph-name="a" unicode="a" horiz-adv-x="430" 
d="M504 133l-0.998047 -30c-39.333 -28.667 -70 -50 -92 -64c-40.667 -26 -65 -41.167 -73 -45.5s-15.333 -6.5 -22 -6.5c-10.667 0 -16 7 -16 21s5 44.333 15 91c-64 -46 -107.833 -76.167 -131.5 -90.5s-41.167 -21.5 -52.5 -21.5c-12.667 0 -22.834 7.33301 -30.501 22
s-11.5 34.667 -11.5 60c0 41.333 8.66699 90.333 26 147s35.666 95.667 54.999 117c18.667 20 49.667 42.333 93 67c22 14 51.333 21 88 21c41.333 0 84.333 -5 129 -15l-29 -37c-41.333 -153.333 -62 -245.333 -62 -276c0 -13.333 4 -20 12 -20s42.333 20 103 60z
M304.002 127l20.001 13c5.33301 18.667 8.33301 30.667 9 36c1.33301 6.66699 4 18.834 8 36.501s7 31.5 9 41.5c0 1.33301 0.833008 5 2.5 11l10 36.5l16.5 58.5c-38.667 9.33301 -67.667 14 -87 14c-17.333 0 -32.333 -6 -45 -18s-25 -32 -37 -60
c-28 -62.667 -42 -122.334 -42 -179.001c0 -34 9 -51 27 -51c17.333 0 53.666 20.333 108.999 61z" />
    <glyph glyph-name="b" unicode="b" horiz-adv-x="430" 
d="M99 -17l-10.0039 4c16.667 66.667 29 118.334 37 155.001l58 253l15.5 68.5c3 13 7.33301 28.333 13 46s9.5 28.834 11.5 33.501s7.16699 12.167 15.5 22.5s15.333 17.666 21 21.999l29.5 23.5c43.333 36 73 58.667 89 68s33.333 14 52 14c16.667 0 32 -1 46 -3l-42 -59
h-15h-29c-19.333 0 -34.5 -2.83301 -45.5 -8.5s-20.833 -15.834 -29.5 -30.501c-13.333 -24.667 -24.666 -55.334 -33.999 -92.001c-2 -6.66699 -10.667 -46.667 -26 -120c-0.666992 -2 -2.16699 -8.16699 -4.5 -18.5l-6.5 -28.5c50.667 36 86.5 59.667 107.5 71
s40.167 17 57.5 17c18 0 32.5 -7.16699 43.5 -21.5s16.5 -33.166 16.5 -56.499c0 -30 -5.5 -64.833 -16.5 -104.5s-24.5 -74.5 -40.5 -104.5c-17.333 -31.333 -42.666 -56.333 -75.999 -75c-31.333 -17.333 -54.666 -31.333 -69.999 -42c-24 -14.667 -45.667 -22 -65 -22
c-17.333 0 -40.666 5 -69.999 15zM233.996 291l-54 -218.001c26 -13.333 48.667 -20 68 -20c45.333 0 81.333 34.333 108 103c20 48.667 30 97.334 30 146.001c0 33.333 -11.333 50 -34 50s-62 -20.333 -118 -61z" />
    <glyph glyph-name="c" unicode="c" horiz-adv-x="348" 
d="M392 130l-2.00098 -33c-98.667 -73.333 -174 -110 -226 -110c-23.333 0 -41.666 8.33301 -54.999 25s-20 39.667 -20 69c0 31.333 4.83301 66.333 14.5 105s21.5 72.334 35.5 101.001c11.333 21.333 24 38.166 38 50.499s40 30.5 78 54.5c28.667 19.333 51 29 67 29
c17.333 0 31.333 -6.5 42 -19.5s16 -30.5 16 -52.5c0 -4 -0.333008 -7.66699 -1 -11l-60 -35c-4.66699 43.333 -19 65 -43 65c-30.667 0 -56 -27.333 -76 -82c-21.333 -51.333 -32 -105.666 -32 -162.999c0 -24.667 5 -43.834 15 -57.501s24.333 -20.5 43 -20.5
c30.667 0 86 28.333 166 85z" />
    <glyph glyph-name="d" unicode="d" 
d="M509 134l-4 -32c-42.667 -30.667 -83 -57.5 -121 -80.5s-61.333 -34.5 -70 -34.5c-14.667 0 -22 10.333 -22 31c0 22.667 2.66699 47.334 8 74.001c-96 -70 -153.333 -105 -172 -105c-9.33301 0 -18.166 8.33301 -26.499 25s-12.5 34.667 -12.5 54
c0 35.333 9.16699 81.666 27.5 138.999s36.166 96 53.499 116c20.667 22.667 48.667 45 84 67s61 33 77 33c8.66699 0 22.667 -2 42 -6l8 32c13.333 53.333 23.833 87.5 31.5 102.5s23.834 34.5 48.501 58.5c31.333 30 61 52.667 89 68c20 11.333 40.333 17 61 17
c8.66699 0 19.667 -1.33301 33 -4l-36 -57c-20.667 5.33301 -36.334 8 -47.001 8c-18.667 0 -34.167 -6.5 -46.5 -19.5s-24.166 -34.833 -35.499 -65.5c-10.667 -32.667 -31.167 -114.667 -61.5 -246s-45.5 -205.333 -45.5 -222c0 -18 4.66699 -27 14 -27
s40.666 18.667 93.999 56zM308 130l48.002 215c-18.667 18.667 -36.334 28 -53.001 28c-51.333 0 -92 -51.667 -122 -155c-12 -45.333 -18 -84.666 -18 -117.999c0 -30 7 -45 21 -45c7.33301 0 18.666 4.66699 33.999 14s45.333 29.666 90 60.999z" />
    <glyph glyph-name="e" unicode="e" horiz-adv-x="348" 
d="M389 140v-29.0039c-82.667 -82.667 -154.667 -124 -216 -124c-26 0 -46.5 8.83301 -61.5 26.5s-22.5 41.5 -22.5 71.5c0 41.333 7.5 86.333 22.5 135s32.167 84.667 51.5 108c23.333 26.667 55 51.334 95 74.001c22 12.667 43 19 63 19
c17.333 0 31.333 -5.16699 42 -15.5s16 -24.166 16 -41.499c0 -23.333 -5.83301 -44.166 -17.5 -62.499s-31.5 -38.166 -59.5 -59.499c-54 -40 -99.667 -72 -137 -96c0 -24.667 1.66699 -43.667 5 -57s10 -24 20 -32s21.333 -12 34 -12c36 0 91 31.667 165 95zM168 182.996
c54.667 35.333 91.168 63.332 109.501 83.999s27.5 43.667 27.5 69c0 12 -2.66699 22 -8 30s-12.333 12 -21 12c-22 0 -43.333 -18.667 -64 -56s-35.334 -83.666 -44.001 -138.999z" />
    <glyph glyph-name="f" unicode="f" horiz-adv-x="327" 
d="M358 319l-53.0029 -2.00293c-5.33301 0 -11 0.333008 -17 1c-1.33301 -4 -7.66602 -27.167 -18.999 -69.5l-42 -159.5c-24.667 -100 -55.334 -174.667 -92.001 -224c-13.333 -18 -31.166 -37.5 -53.499 -58.5s-40.833 -35.833 -55.5 -44.5
c-17.333 -9.33301 -43 -14 -77 -14c-14 0 -30.667 1.33301 -50 4c3.33301 5.33301 11.666 17 24.999 35c2 2.66699 9 12.667 21 30c22.667 -3.33301 40.667 -5 54 -5c18.667 0 34 2.66699 46 8s23.333 13.833 34 25.5s20.834 30.834 30.501 57.501
s19.167 57.834 28.5 93.501s20.333 83.167 33 142.5c13.333 62.667 27.333 122.334 42 179.001c-13.333 -0.666992 -26 -1 -38 -1l-72 1h-25c5.33301 4 12 8 20 12l23 12c1.33301 0.666992 6 3.66699 14 9c5.33301 -0.666992 10.666 -1 15.999 -1l50 2
c6.66699 0 13.334 -0.333008 20.001 -1c20 85.333 36.333 142.5 49 171.5s33.334 57.167 62.001 84.5c34 33.333 63.5 56.5 88.5 69.5s53.167 19.5 84.5 19.5c16.667 0 33 -2 49 -6l-47 -55c-34 5.33301 -57 8 -69 8c-21.333 0 -38.166 -6.83301 -50.499 -20.5
s-24.833 -39.5 -37.5 -77.5s-30.667 -102.667 -54 -194c32 0.666992 52 1 60 1s29.667 -0.333008 65 -1l-42 -33c-7.33301 0.666992 -14.333 1 -21 1z" />
    <glyph glyph-name="g" unicode="g" horiz-adv-x="409" 
d="M407 224l-51.9971 -230c-10.667 -50.667 -20.334 -85.334 -29.001 -104.001s-24 -37.667 -46 -57c-67.333 -57.333 -146.333 -86 -237 -86c-38.667 0 -68.834 5.16699 -90.501 15.5s-32.5 24.833 -32.5 43.5c0 28 25 64 75 108l118 101c-15.333 20.667 -23 43 -23 67
c0 31.333 7.5 71.833 22.5 121.5s30.167 84.5 45.5 104.5c21.333 28 56.333 57 105 87c15.333 9.33301 29.666 15.333 42.999 18s36 4.33398 68 5.00098c23.333 0 63 0.666992 119 2c-16 -25.333 -26.333 -40.5 -31 -45.5s-12 -9.16699 -22 -12.5
c-0.666992 -2 -1.5 -5.66699 -2.5 -11s-1.83301 -9 -2.5 -11l-15 -57zM272.003 -56l44 192.998l-170.5 -131.5c-35.667 -28.333 -65.834 -53.666 -90.501 -75.999s-39.334 -38 -44.001 -47s-7 -19.167 -7 -30.5c0 -34.667 34 -52 102 -52c60.667 0 102.334 13 125.001 39
c9.33301 10 16.833 22.333 22.5 37s11.834 37.334 18.501 68.001zM392.003 363.998l-27 0.00292969c-9.33301 -1.33301 -20.333 -2 -33 -2c-37.333 0 -63.5 -3.33301 -78.5 -10s-27.833 -20.667 -38.5 -42c-10.667 -25.333 -21 -56.333 -31 -93s-15 -63.334 -15 -80.001
c0 -22.667 8.66699 -42.334 26 -59.001c79.333 59.333 123 91.333 131 96l33 120c5.33301 12.667 11 22.5 17 29.5s17 16.167 33 27.5c4.66699 3.33301 10 7.66602 16 12.999h-33z" />
    <glyph glyph-name="h" unicode="h" 
d="M77 -9l97.999 422.998c16 67.333 28.833 111.5 38.5 132.5s27.834 43.167 54.501 66.5c37.333 32.667 66.5 54.334 87.5 65.001s45.5 16 73.5 16c12.667 0 26.667 -1.66699 42 -5l-44 -62c-30 6 -50.333 9 -61 9c-29.333 0 -50.666 -14 -63.999 -42
c-12 -23.333 -28 -76 -48 -158l-35 -137c125.333 81.333 198.666 122 219.999 122c14.667 0 22 -6 22 -18c0 -1.33301 -16.333 -63.666 -49 -186.999c-16 -58.667 -24 -97.667 -24 -117c0 -17.333 5 -26 15 -26c10.667 0 49 19.333 115 58l-7 -30
c-66 -48.667 -128 -87.334 -186 -116.001c-10.667 16.667 -16 31.334 -16 44.001c0 23.333 14.667 93.333 44 210c12.667 46.667 19 75.667 19 87c0 10.667 -4.33301 16 -13 16c-12 0 -53.667 -22.667 -125 -68c-6 -2.66699 -14 -7.66699 -24 -15l-60 -239z" />
    <glyph glyph-name="i" unicode="i" horiz-adv-x="245" 
d="M248 506c-20 29.333 -33 53.333 -39 72c2.66699 1.33301 6.66699 4 12 8l22 15c12.667 10 20 16.333 22 19c2 2 7 5.66699 15 11c0.666992 -2 1.66699 -4.33301 3 -7s2.33301 -5 3 -7c3.33301 -8.66699 8.33301 -19.334 15 -32.001c2.66699 -4 7 -12 13 -24
c-14.667 -11.333 -36.667 -29.666 -66 -54.999zM318 119l-4.00195 -29c-2 -1.33301 -6.33301 -4 -13 -8l-15 -9c-17.333 -12 -37 -24.667 -59 -38c-49.333 -32 -82.333 -48 -99 -48c-7.33301 0 -13.333 3.83301 -18 11.5s-7 17.5 -7 29.5c0 12.667 2 27.5 6 44.5
s18.333 70.167 43 159.5c12 47.333 18 76 18 86c0 12.667 -4 19 -12 19c-7.33301 0 -32.333 -11.667 -75 -35l2 29c90 60 144 90 162 90c8 0 12 -3.33301 12 -10c0 -6 -20.667 -94.333 -62 -265c-6.66699 -20.667 -10 -38 -10 -52c0 -18.667 6.33301 -28 19 -28
c6.66699 0 14.834 2.33301 24.501 7s38.834 20 87.501 46z" />
    <glyph glyph-name="j" unicode="j" horiz-adv-x="225" 
d="M310 561l-20 -15c-8 -6 -23.333 -19.333 -46 -40c-19.333 27.333 -32.333 51.333 -39 72c11.333 7.33301 19.333 13 24 17c8 4.66699 14.333 9 19 13c1.33301 1.33301 3.5 3.33301 6.5 6s5.16699 4.66699 6.5 6l8 7l6 4l6 -14l9 -20l12 -20c1.33301 -4 4 -9.33301 8 -16z
M-136 -247l48.001 62.001c26.667 -2.66699 45 -4 55 -4c12.667 0 23 0.833008 31 2.5s16.333 6.5 25 14.5s15.667 17.5 21 28.5s12.166 29 20.499 54s16.333 51.667 24 80l30.5 117.5c32 129.333 48 201.666 48 216.999c0 3.33301 -1.16699 6.16602 -3.5 8.49902
s-5.16602 3.5 -8.49902 3.5c-6 0 -18.333 -5.33301 -37 -16l-36 -20l2 30c70.667 44 113.167 70 127.5 78s25.833 12 34.5 12c10 0 15 -4 15 -12c0 -8.66699 -22 -101.667 -66 -279c-28.667 -110.667 -49.667 -180.167 -63 -208.5s-43.333 -65.166 -90 -110.499
c-26 -25.333 -47.5 -42.333 -64.5 -51s-38.167 -13 -63.5 -13c-16.667 0 -33.334 2 -50.001 6z" />
    <glyph glyph-name="k" unicode="k" 
d="M89 -11l90.998 400c17.333 73.333 31.666 123.333 42.999 150c15.333 32 57 72 125 120c28.667 21.333 59.667 32 93 32c7.33301 0 17.333 -1 30 -3l-41 -59c-16 2.66699 -28 4 -36 4c-34 0 -60.667 -14.667 -80 -44c-14.667 -25.333 -35 -91 -61 -197l-39 -156l132 117
l13.5 13.5c7.66699 7.66699 17.834 17.167 30.501 28.5c27.333 25.333 52.666 38 75.999 38c21.333 0 40.333 -6.66699 57 -20l-52 -78c-15.333 20 -30.666 30 -45.999 30c-9.33301 0 -18.666 -2.83301 -27.999 -8.5s-24 -17.167 -44 -34.5l-68 -63
c77.333 -164.667 123 -260 137 -286c36.667 -64.667 77.667 -97 123 -97c21.333 0 40 5.83301 56 17.5s32.333 31.5 49 59.5l21 -74c-30 -24 -67.333 -36 -112 -36c-27.333 0 -55.666 5.16699 -84.999 15.5s-55 23.833 -77 40.5c-20.667 16 -39 36.667 -55 62
s-35 64.333 -57 117l-58 133l-23 -14l-40 -183c-13.333 -4 -21 -6.33301 -23 -7l-27 -9c-2 -0.666992 -10.333 -3.66699 -25 -9z" />
    <glyph glyph-name="l" unicode="l" horiz-adv-x="245" 
d="M314 132l0.00195312 -22.001c-112.667 -82 -173.334 -123 -182.001 -123h-3h-6c-8.66699 0 -16.5 6.5 -23.5 19.5s-10.5 27.167 -10.5 42.5c0 3.33301 0.666992 9.66602 2 18.999l74 320c12 54 25.667 105 41 153c6.66699 18.667 14.167 33.667 22.5 45
s23.833 27.333 46.5 48c45.333 40 86.333 60 123 60c14 0 29.333 -2 46 -6l-44 -54c-20 4.66699 -36.667 7 -50 7c-22.667 0 -39 -9.16699 -49 -27.5s-25 -65.5 -45 -141.5c-18.667 -70.667 -37.334 -146.167 -56.001 -226.5s-28 -125.166 -28 -134.499v-10v-9
c0 -6.66699 1.83301 -12.667 5.5 -18s7.83398 -8 12.501 -8c7.33301 0 16.166 2.66699 26.499 8s33.833 19.333 70.5 42c1.33301 0.666992 5 2.83398 11 6.50098z" />
    <glyph glyph-name="m" unicode="m" horiz-adv-x="634" 
d="M167 17l-73.002 -26.9971c53.333 198.667 80 307.667 80 327c0 13.333 -5 20 -15 20c-9.33301 0 -34.666 -10.333 -75.999 -31l7 29c34 21.333 67.667 41 101 59s53 27 59 27c10 0 15 -4.66699 15 -14c0 -6 -7.33301 -39.667 -22 -101l32 21
c99.333 62.667 156.333 94 171 94c9.33301 0 14 -3.66699 14 -11c0 -6 -5.33301 -30 -16 -72c0 -0.666992 -0.5 -3.66699 -1.5 -9s-2.16699 -10.333 -3.5 -15c120.667 71.333 189.667 107 207 107c11.333 0 17 -5 17 -15c0 -12 -13 -63.333 -39 -154
c-22.667 -78 -34 -129 -34 -153c0 -18 6 -27 18 -27c11.333 0 33.666 10.333 66.999 31c12.667 10 24.334 17.333 35.001 22v-24c-60.667 -47.333 -118.667 -84.333 -174 -111c-16.667 11.333 -25 26.666 -25 45.999s7 56.666 21 111.999c24.667 96.667 37 155 37 175
c0 12.667 -4.33301 19 -13 19c-13.333 0 -55.666 -23 -126.999 -69l-63 -256l-78 -27c21.333 68 40.333 135.167 57 201.5s25 107.166 25 122.499s-4.66699 23 -14 23c-12 0 -53.333 -23.667 -124 -71z" />
    <glyph glyph-name="n" unicode="n" horiz-adv-x="471" 
d="M168 19l-77.001 -28.999c8 32 12.667 50.333 14 55l24 83c30 107.333 45 174 45 200c0 9.33301 -4 14 -12 14s-34.333 -10.333 -79 -31l6 27c93.333 55.333 147 83 161 83c8.66699 0 13 -4.33301 13 -13c0 -10.667 -8 -46.334 -24 -107.001l140 87c34 22 59 33 75 33
c13.333 0 20 -6 20 -18c0 -4.66699 -16 -64.334 -48 -179.001c-18 -66 -27 -108 -27 -126s5.66699 -27 17 -27c5.33301 0 13.333 2.83301 24 8.5s41.334 22.834 92.001 51.501l-7 -29c-74.667 -56 -137.667 -95.333 -189 -118c-10 16.667 -15 32 -15 46
c0 13.333 8.66699 56 26 128c25.333 98 38 155 38 171c0 8.66699 -3.66699 13 -11 13c-8 0 -18.667 -3.83301 -32 -11.5s-51.333 -31.167 -114 -70.5z" />
    <glyph glyph-name="o" unicode="o" horiz-adv-x="409" 
d="M368 421c26.667 0 48.666 -8.83398 65.999 -26.501s26 -40.167 26 -67.5c0 -35.333 -7.16699 -75 -21.5 -119s-31.833 -80 -52.5 -108c-18 -24 -52.333 -50 -103 -78c-44 -23.333 -79 -35 -105 -35c-27.333 0 -49 9.33301 -65 28s-24 43.334 -24 74.001
c0 50.667 10.5 100 31.5 148s47.833 84.333 80.5 109c66.667 50 122.334 75 167.001 75zM313.999 372.999c-35.333 0 -68.501 -25.5 -99.501 -76.5s-46.5 -106.167 -46.5 -165.5c0 -29.333 6.33301 -52.666 19 -69.999s29.334 -26 50.001 -26c39.333 0 74 30 104 90
c26.667 51.333 40 100 40 146c0 31.333 -6 56.166 -18 74.499s-28.333 27.5 -49 27.5z" />
    <glyph glyph-name="p" unicode="p" 
d="M23 -218l36 2c29.333 108.667 56.5 217.834 81.5 327.501s37.5 173.834 37.5 192.501c0 19.333 -6.33301 29 -19 29c-7.33301 0 -22 -5.33301 -44 -16c-2.66699 -1.33301 -12.667 -5.33301 -30 -12l6 27c100 59.333 156.333 89 169 89c3.33301 0 6.5 -1.33301 9.5 -4
s4.5 -5.66699 4.5 -9c0 -2.66699 -4.66699 -24.334 -14 -65.001c-0.666992 -2 -1.83398 -6.66699 -3.50098 -14s-2.83398 -12.333 -3.50098 -15l84 61c41.333 30.667 75 46 101 46c16.667 0 30.167 -7.5 40.5 -22.5s15.5 -34.833 15.5 -59.5
c0 -33.333 -7 -73.166 -21 -119.499s-30 -82.5 -48 -108.5c-11.333 -16.667 -39.666 -42.334 -84.999 -77.001c-20.667 -16.667 -38.667 -27.834 -54 -33.501s-34.333 -8.5 -57 -8.5c-15.333 0 -31.666 1.66699 -48.999 5l-49 -218l115 -6l-32 -26
c-17.333 -0.666992 -33.333 -1 -48 -1c-56 0 -114 1 -174 3zM198 68c24.667 -15.333 50.332 -23 76.999 -23c42 0 77 30.333 105 91c26.667 58.667 40 112 40 160c0 17.333 -3 31 -9 41s-14.333 15 -25 15c-13.333 0 -29.666 -5.33301 -48.999 -16s-50.333 -31.667 -93 -63
l-8 -36c-12 -48.667 -24.667 -105 -38 -169z" />
    <glyph glyph-name="q" unicode="q" horiz-adv-x="409" 
d="M167 -216l20.002 -0.000976562h26h25l25 100c19.333 80 33.333 140.333 42 181c0 0.666992 0.5 2.33398 1.5 5.00098s2.16699 6.83398 3.5 12.501s2.66602 10.834 3.99902 15.501c-2.66699 -1.33301 -13.667 -9 -33 -23c-80 -58.667 -128.667 -88 -146 -88
c-10.667 0 -21 9 -31 27s-15 36.667 -15 56c0 41.333 9 90.166 27 146.499s36.333 93.833 55 112.5c15.333 14.667 35.166 30.5 59.499 47.5s42.833 28.167 55.5 33.5c20.667 7.33301 50.334 11 89.001 11c9.33301 0 17.333 -0.333008 24 -1c16 12.667 40.333 36 73 70
l10 -3l-20 -67l10 -2l13 -4l5 -1c2.66699 -0.666992 5 -1.33398 7 -2.00098l-48 -45l-22 -79l-81 -349l-25 -110c-4.66699 -20 -8.33398 -36.667 -11.001 -50l101 -6l-32 -25c-42.667 -1.33301 -66.667 -2 -72 -2c-60.667 0 -118.667 1.66699 -174 5zM325.002 139.999
l54.002 218.999c-30 3.33301 -50.333 5 -61 5c-38.667 0 -65.834 -5.66699 -81.501 -17s-29.5 -35 -41.5 -71c-21.333 -65.333 -32 -117.333 -32 -156c0 -15.333 3 -28.166 9 -38.499s13.667 -15.5 23 -15.5s52.666 24.667 129.999 74z" />
    <glyph glyph-name="r" unicode="r" horiz-adv-x="307" 
d="M92 -10l62 224.001c14.667 54 22 89.667 22 107c0 14 -6.33301 21 -19 21c-10 0 -34.667 -10.333 -74 -31l3 28c30 18.667 63.5 37 100.5 55s58.833 27 65.5 27c8.66699 0 13 -3.66699 13 -11c0 -5.33301 -3 -20.333 -9 -45c0 -1.33301 -0.5 -3.83301 -1.5 -7.5
s-1.5 -6.83398 -1.5 -9.50098l60 44c27.333 19.333 50 29 68 29c7.33301 0 20 -2.66699 38 -8l-31 -98c-16 21.333 -34 32 -54 32c-25.333 0 -54 -12 -86 -36l-77 -292z" />
    <glyph glyph-name="s" unicode="s" horiz-adv-x="327" 
d="M44 85l18.001 12.002l27 17l24 16c0.666992 -30.667 4 -52.334 10 -65.001c10 -23.333 26.667 -35 50 -35c20 0 39.5 8.66699 58.5 26s28.5 35.333 28.5 54c0 12.667 -3.33301 23 -10 31s-22.667 21 -48 39c-37.333 26.667 -56 54.667 -56 84
c0 34 19.167 68.667 57.5 104s76.166 53 113.499 53c27.333 0 50.333 -11.667 69 -35c-8.66699 -12.667 -24.667 -30.334 -48 -53.001c-22 26.667 -43.333 40 -64 40c-16.667 0 -31.5 -6.66699 -44.5 -20s-19.5 -28.666 -19.5 -45.999c0 -24.667 16.333 -47.334 49 -68.001
c29.333 -18 47.5 -31.5 54.5 -40.5s10.5 -22.833 10.5 -41.5c0 -26 -8.66699 -51.333 -26 -76s-41.333 -45.667 -72 -63c-36.667 -20.667 -72.667 -31 -108 -31c-22.667 0 -41 6.83301 -55 20.5s-21 31.5 -21 53.5c0 4 0.666992 12 2 24z" />
    <glyph glyph-name="t" unicode="t" horiz-adv-x="327" 
d="M372 129l-2.00098 -26.0029c-104.667 -77.333 -168.334 -116 -191.001 -116c-9.33301 0 -18.5 7.33301 -27.5 22s-13.5 30 -13.5 46s2.33301 34.833 7 56.5s20.667 89.167 48 202.5h-23h-47h-25l9.5 7c3.66699 2.66699 5.83398 4.33398 6.50098 5.00098
c9.33301 7.33301 19 14.333 29 21c6 0.666992 11.333 1 16 1h24c6.66699 0 13 0.333008 19 1l28 128c6 2 11 4 15 6c14 6.66699 21.667 10.667 23 12c20 8.66699 34.333 15.334 43 20.001l-41 -166h131l-39 -30c-16 -2 -26 -3 -30 -3l-41 -1
c-10.667 0 -20.667 -0.333008 -30 -1c-29.333 -116 -44 -182.667 -44 -200c0 -11.333 3.33301 -22.166 10 -32.499s13.334 -15.5 20.001 -15.5c12 0 53.667 21 125 63z" />
    <glyph glyph-name="u" unicode="u" horiz-adv-x="471" 
d="M84 307l6.99902 28.001c92 57.333 145 86 159 86c8 0 12 -4.33301 12 -13c0 -6.66699 -1.66699 -16 -5 -28c-4 -12.667 -10 -36.667 -18 -72c-1.33301 -6.66699 -8.66602 -34.667 -21.999 -84c-17.333 -66 -26 -109.333 -26 -130c0 -9.33301 2 -17.333 6 -24
s8.66699 -10 14 -10c11.333 0 53.666 25 126.999 75l60 247c12 6 19 9.33301 21 10c12.667 6 25.334 12.333 38.001 19l26 14c-22 -66 -41.167 -131.833 -57.5 -197.5s-24.5 -111.5 -24.5 -137.5c0 -16 4 -24 12 -24c9.33301 0 48.333 20.333 117 61l-7 -31
c-34.667 -26 -72 -50.667 -112 -74s-65 -35 -75 -35c-5.33301 0 -9.83301 2.16699 -13.5 6.5s-5.5 9.83301 -5.5 16.5c0 18.667 5 48 15 88l-106 -68c-42.667 -28.667 -71 -43 -85 -43c-8 0 -14.667 4.66699 -20 14s-8 21.333 -8 36c0 23.333 10.333 74.333 31 153
c19.333 71.333 29 113.666 29 126.999s-4.66699 20 -14 20c-10.667 0 -35.667 -10 -75 -30z" />
    <glyph glyph-name="v" unicode="v" 
d="M106 220l-17.001 22.001c20.667 72 37.334 116 50.001 132c5.33301 7.33301 17.333 11 36 11c12.667 0 40 -1 82 -3h25c27.333 0 45.666 5.33301 54.999 16h10c1.33301 -4.66699 2 -8.33398 2 -11.001s-0.333008 -5 -1 -7c-38.667 -44 -68 -83.333 -88 -118
c-30 -54 -45 -106 -45 -156c0 -17.333 4 -31.833 12 -43.5s17.667 -17.5 29 -17.5c18.667 0 40.667 11 66 33s48 50 68 84c35.333 59.333 53 121.666 53 186.999c0 22.667 -5.33301 46.334 -16 71.001c27.333 12.667 50.333 21.667 69 27c17.333 -14.667 26 -33 26 -55
c0 -25.333 -6.16699 -56.5 -18.5 -93.5s-28.5 -72.167 -48.5 -105.5c-35.333 -60.667 -77 -110.167 -125 -148.5s-92.333 -57.5 -133 -57.5c-17.333 0 -31 6.66699 -41 20s-15 31.666 -15 54.999c0 52.667 15.667 105.334 47 158.001c12.667 20.667 43.334 58 92.001 112
c-19.333 -4 -45 -6.33301 -77 -7c-28 0.666992 -46.333 -2.83301 -55 -10.5s-18.667 -27.5 -30 -59.5c-0.666992 -4 -4.66699 -15.667 -12 -35z" />
    <glyph glyph-name="w" unicode="w" horiz-adv-x="696" 
d="M106 213l-16.998 24.999c24 76 43.667 122 59 138c6.66699 6.66699 18.334 10 35.001 10c11.333 0 20.666 -0.333008 27.999 -1c34.667 -1.33301 73.667 -2 117 -2c14.667 0 28.667 4.66699 42 14h11c0.666992 -2.66699 1 -5.33398 1 -8.00098v-10
c-47.333 -47.333 -82.666 -90.666 -105.999 -129.999c-30.667 -56.667 -46 -108 -46 -154c0 -13.333 2.5 -24.166 7.5 -32.499s11.833 -12.5 20.5 -12.5c16 0 36.167 8.83301 60.5 26.5s46.166 39.167 65.499 64.5c16 20.667 28.5 41.667 37.5 63
s22.833 62.666 41.5 123.999c0.666992 2 5 16.333 13 43c29.333 7.33301 54.666 14.333 75.999 21c-34 -102 -56.333 -172 -67 -210s-16 -68 -16 -90c0 -13.333 3.16699 -24.5 9.5 -33.5s14.833 -13.5 25.5 -13.5c16 0 35.5 9.5 58.5 28.5s43.5 42.167 61.5 69.5
c44.667 70 67 141 67 213c0 24.667 -4.33301 48.667 -13 72c26 11.333 50 20.333 72 27c16.667 -12 25 -31 25 -57c0 -52 -18.333 -110.667 -55 -176s-81.334 -120.833 -134.001 -166.5s-99.667 -68.5 -141 -68.5c-17.333 0 -30.833 5 -40.5 15s-14.5 24.333 -14.5 43
c0 24 5.33301 51 16 81c-82 -92.667 -148.333 -139 -199 -139c-16.667 0 -30 5.66699 -40 17s-15 26.333 -15 45c0 45.333 14.333 94 43 146c15.333 28 40.666 61.333 75.999 100l35 39c-14 -5.33301 -29.667 -8 -47 -8c-12 0 -21 0.333008 -27 1c-10 0.666992 -21 1 -33 1
c-23.333 0 -43.666 -13 -60.999 -39c-3.33301 -7.33301 -14 -32.666 -32 -75.999z" />
    <glyph glyph-name="x" unicode="x" horiz-adv-x="430" 
d="M105 -26l-33 53.999c14 38.667 28.333 65.667 43 81c10 9.33301 45.333 37.333 106 84l38 30c-7.33301 53.333 -15.166 89 -23.499 107s-20.833 27 -37.5 27c-10.667 0 -20.334 -2.16699 -29.001 -6.5s-28 -16.5 -58 -36.5l2 28c35.333 30.667 62.166 51.5 80.499 62.5
s35.5 16.5 51.5 16.5c16.667 0 29 -4.16699 37 -12.5s14.333 -23.166 19 -44.499c4.66699 -24 9 -54.333 13 -91l72 69l73 69c14 6.66699 27 10 39 10c10 0 22 -4.33301 36 -13l-23 -72c-18 7.33301 -32.333 11 -43 11c-14 0 -31.5 -7.33301 -52.5 -22
s-53.167 -42 -96.5 -82c20 -138.667 33.667 -223 41 -253c22 -84 57 -126 105 -126c35.333 0 66 23 92 69l40 -48c-32 -32.667 -74.333 -49 -127 -49c-42.667 0 -79.667 10 -111 30s-52.333 47.333 -63 82c-12.667 40 -23.667 121.667 -33 245
c-73.333 -60 -120 -133 -140 -219c-4 -1.33301 -6.66699 -2 -8 -2s-2.66602 0.333008 -3.99902 1c-2 0 -4 0.333008 -6 1z" />
    <glyph glyph-name="y" unicode="y" horiz-adv-x="409" 
d="M11 -247l40.999 70c55.333 -12.667 93 -19 113 -19c33.333 0 58.833 5.5 76.5 16.5s30.834 29.5 39.501 55.5c8 25.333 25 100.333 51 225c-106.667 -76 -171 -114 -193 -114c-10 0 -18.5 5.33301 -25.5 16s-10.5 24.334 -10.5 41.001c0 18 10 64 30 138
c21.333 76.667 32 123.334 32 140.001c0 10 -5 15 -15 15c-8.66699 0 -32.334 -10 -71.001 -30l3 28c96.667 57.333 151 86 163 86c7.33301 0 11 -4 11 -12c0 -8.66699 -13.333 -64.667 -40 -168c-19.333 -74 -29 -121.667 -29 -143c0 -9.33301 2.16699 -17 6.5 -23
s9.83301 -9 16.5 -9c8.66699 0 18.667 3 30 9s43 25 95 57l62 249c2.66699 1.33301 6.66699 3.16602 12 5.49902s9 4.16602 11 5.49902l36 18c1.33301 0.666992 10.666 5.66699 27.999 15c-30.667 -102 -60.667 -220.333 -90 -355c-18 -84 -31.667 -137.5 -41 -160.5
s-28.666 -50.167 -57.999 -81.5s-56.166 -52.833 -80.499 -64.5s-54.5 -17.5 -90.5 -17.5c-38 0 -75.667 2.33301 -113 7z" />
    <glyph glyph-name="z" unicode="z" 
d="M47 38v6.00195c142 124.667 254.333 227 337 307c-14.667 -3.33301 -31 -5.33301 -49 -6l-71 -1c-22 -0.666992 -37.333 -4.5 -46 -11.5s-18.667 -22.5 -30 -46.5l-14 -30l-18 19c24 65.333 39.667 104 47 116s18.333 18 33 18h8c30 -2 76.667 -3 140 -3
c26.667 0 45.167 1.5 55.5 4.5s25.833 11.5 46.5 25.5v-4c0 -4.66699 -0.333008 -9 -1 -13v-7l-36 -38l-233 -223l-44 -43c58.667 -26.667 99.5 -43.834 122.5 -51.501s43.5 -11.5 61.5 -11.5c16.667 0 30.834 5.66699 42.501 17s17.5 25 17.5 41c0 12 -4 26 -12 42
c10 8 20.667 15.333 32 22c13.333 8 23 14 29 18c9.33301 -18.667 14 -34 14 -46c0 -24 -19 -54 -57 -90c-24.667 -24 -44.834 -40.333 -60.501 -49s-32.5 -13 -50.5 -13c-23.333 0 -60 8.66699 -110 26c-38.667 16.667 -61.667 25 -69 25
c-5.33301 1.33301 -16.333 4.66602 -33 9.99902c-16 -8.66699 -32.333 -18.667 -49 -30c-2 10 -3 16.667 -3 20z" />
    <glyph glyph-name="braceleft" unicode="{" horiz-adv-x="245" 
d="M338 559l-54.001 -205c-6.66699 -26.667 -17 -47.334 -31 -62.001s-34.667 -26.334 -62 -35.001c30.667 -12 46 -32.667 46 -62c0 -10 -2.66699 -23.667 -8 -41l-54 -206c-6 -18 -9 -32.333 -9 -43c0 -16 2.66699 -27.667 8 -35s15.333 -13.333 30 -18l-5 -21
c-31.333 0 -53.333 3.66699 -66 11c-16.667 11.333 -25 26.333 -25 45c0 17.333 2.66699 36.666 8 57.999l56 211c4 15.333 6 25 6 29c0 31.333 -16.333 52.333 -49 63l5 20c26 6.66699 46 16.334 60 29.001s24 31 30 55l57 211c11.333 42.667 26.833 72.334 46.5 89.001
s48.834 25 87.501 25l-5 -21c-18.667 -4.66699 -33.5 -14.667 -44.5 -30s-20.167 -37.666 -27.5 -66.999z" />
    <glyph glyph-name="bar" unicode="|" horiz-adv-x="532" 
d="M372 739v-739h-50v739h50z" />
    <glyph glyph-name="braceright" unicode="}" horiz-adv-x="245" 
d="M85 -52l54 205.999c6.66699 26 17 46.333 31 61s34.333 26.334 61 35.001c-16 7.33301 -27.5 15.666 -34.5 24.999s-10.5 22 -10.5 38c0 12 2.66699 25.667 8 41l54 205c6 18.667 9 33.334 9 44.001c0 16 -2.5 27.5 -7.5 34.5s-15.167 13.167 -30.5 18.5l5 21
c32 -0.666992 54 -4.66699 66 -12c16.667 -10.667 25 -25.667 25 -45c0 -16.667 -2.66699 -35.667 -8 -57l-56 -211c-4 -15.333 -6 -25.333 -6 -30c0 -30.667 16.333 -51.667 49 -63l-5 -20c-26 -6 -46 -15.333 -60 -28s-24 -31 -30 -55l-57 -211
c-11.333 -43.333 -26.5 -73.333 -45.5 -90s-47.833 -24.667 -86.5 -24l5 21c34.667 7.33301 58 39.333 70 96z" />
    <glyph glyph-name="asciitilde" unicode="~" horiz-adv-x="532" 
d="M504 285l34.9961 -25c-14.667 -25.333 -33.167 -45.833 -55.5 -61.5s-44.166 -23.5 -65.499 -23.5c-30 0 -59.333 6.33301 -88 19l-48 20c-29.333 11.333 -52 17 -68 17c-17.333 0 -31.666 -4 -42.999 -12s-26.666 -24.667 -45.999 -50l-37 22
c21.333 34 41.833 58.167 61.5 72.5s41.834 21.5 66.501 21.5c21.333 0 44.333 -5.66699 69 -17l58 -24c33.333 -14 58 -21 74 -21c27.333 0 56.333 20.667 87 62z" />
    <glyph glyph-name="exclamdown" unicode="&#xa1;" horiz-adv-x="286" 
d="M302 340c-3.33301 -2 -12.668 -9.33496 -28.001 -22.002c-4 -2.66699 -15 -11.667 -33 -27c-0.666992 -0.666992 -2.66699 -2.16699 -6 -4.5l-9 -6.5c-3.33301 6 -6.5 11.333 -9.5 16s-5 7.83398 -6 9.50098s-2.16699 3.83398 -3.5 6.50098
c-3.33301 6 -9.66602 15 -18.999 27c-0.666992 0.666992 -2.16699 3 -4.5 7s-4.16602 7 -5.49902 9c23.333 23.333 48.666 44.666 75.999 63.999c23.333 -29.333 39.333 -55.666 48 -78.999zM171.998 156.998l21 60l56 34l-99 -398l-92 -43l85 258
c4 10.667 9.16699 26.167 15.5 46.5z" />
    <glyph glyph-name="cent" unicode="&#xa2;" 
d="M426 199l-3 -40.999c-24 -19.333 -51 -36.666 -81 -51.999s-56.667 -25.333 -80 -30c-2 -10 -4.33301 -22.667 -7 -38c-2 -8 -5.33301 -23.333 -10 -46l-8 -40c-3.33301 -1.33301 -7 -3.33301 -11 -6l-5 -3c-1.33301 -0.666992 -4.16602 -2.33398 -8.49902 -5.00098
s-7.83301 -4.66699 -10.5 -6c-4 -2.66699 -10 -6 -18 -10l31 105c2.66699 7.33301 6.66699 21.666 12 42.999c-33.333 0.666992 -57.833 10.334 -73.5 29.001s-23.5 47.667 -23.5 87c0 40 8.16699 81.5 24.5 124.5s37.833 79.833 64.5 110.5c28.667 34 67 61 115 81
c4.66699 22 8 37 10 45c8 34 12.667 55.667 14 65c3.33301 18 6 30.667 8 38c3.33301 1.33301 7 2.66602 11 3.99902l9 3l21 10c-14 -48 -28 -101 -42 -159c12 1.33301 20 2 24 2c38 0 63 -21 75 -63l-74 -47c0 41.333 -10.667 65.333 -32 72
c-30.667 -114 -59.334 -231.667 -86.001 -353c25.333 2 48 8.16699 68 18.5s48.667 30.833 86 61.5zM241 124.001c10 37.333 24.333 96.333 43 177l43 172c-32 -12 -58.667 -37 -80 -75c-12.667 -22 -23 -50 -31 -84s-12 -66.333 -12 -97c0 -47.333 12.333 -78.333 37 -93z
" />
    <glyph glyph-name="sterling" unicode="&#xa3;" 
d="M205 304l-89.9932 0.00292969l26 37c8 -0.666992 17 -1 27 -1h26c1.33301 0.666992 8 1 20 1c13.333 48 24.166 81.333 32.499 100s23.166 41.667 44.499 69c27.333 36 47.333 58.667 60 68s29.667 14 51 14c16 0 30.667 -2 44 -6l-33 -59c-16.667 8 -31.667 12 -45 12
c-10 0 -17.667 -3.66699 -23 -11s-11 -22 -17 -44c-14.667 -52 -27 -99.667 -37 -143c21.333 -0.666992 44.666 -1 69.999 -1c24 0 45.667 0.333008 65 1l-31 -37h-113c-14.667 -68.667 -31.834 -120.334 -51.501 -155.001s-49.5 -66 -89.5 -94
c23.333 3.33301 51.666 5.33301 84.999 6c50.667 0 82.667 0.833008 96 2.5s25.333 6.5 36 14.5c9.33301 7.33301 19.833 20.333 31.5 39s21.167 37 28.5 55l19 -8c-18 -58.667 -43.333 -112.334 -76 -161.001c-28 -3.33301 -49.333 -5 -64 -5l-165 5
c-30 0 -52.333 -3.5 -67 -10.5s-31.334 -22.5 -50.001 -46.5l-11 20c26 35.333 49.667 63.666 71 84.999c29.333 0 52.666 12.333 69.999 37c10.667 18 18.667 36.5 24 55.5s17.333 72.5 36 160.5z" />
    <glyph glyph-name="currency" unicode="&#xa4;" 
d="M442 161l50 -48l-37 -38l-49 48c-40.667 -32.667 -85.667 -49 -135 -49s-94 16.333 -134 49l-49 -48l-37 38l49 48c-31.333 40 -47 84 -47 132s15.667 92 47 132l-49 48l37 38l49 -48c40 32.667 84.667 49 134 49s94.333 -16.333 135 -49l49 48l37 -38l-50 -48
c31.333 -38.667 47 -82.667 47 -132s-15.667 -93.333 -47 -132zM271 457c-44.667 0 -82.833 -15.833 -114.5 -47.5s-47.5 -69.5 -47.5 -113.5c0 -46.667 15.667 -86.167 47 -118.5s69.333 -48.5 114 -48.5c46 0 85 16 117 48s48 70.667 48 116s-16 84 -48 116
s-70.667 48 -116 48z" />
    <glyph glyph-name="yen" unicode="&#xa5;" 
d="M259 190l-176.995 -11c7.33301 11.333 13.666 20.666 18.999 27.999c2.66699 2.66699 5.66699 6.16699 9 10.5s6.66602 8.16602 9.99902 11.499h143c0.666992 14 1 25 1 33c0 9.33301 -0.333008 20 -1 32l-141 -10c13.333 18.667 26 35.334 38 50.001h100
c-5.33301 62 -18 110.333 -38 145s-44.667 52 -74 52c-22.667 0 -41.667 -12.333 -57 -37s-23 -54.667 -23 -90c0 -26 6.66699 -60.667 20 -104l-78 -49c-14 32 -21 63.333 -21 94c0 57.333 24.667 112.5 74 165.5s100.666 79.5 153.999 79.5c34.667 0 62 -19.333 82 -58
s30 -91.334 30 -158.001c0 -33.333 -4 -71.666 -12 -114.999c68.667 142.667 122.167 239 160.5 289s78.166 75 119.499 75c15.333 0 29 -5.66699 41 -17l-29 -75c-20 8.66699 -36.667 13 -50 13c-29.333 0 -58 -19.667 -86 -59c-22 -30.667 -50 -80 -84 -148h165l-30 -28
l-153 -9l-35 -71h174l-35 -25l-158 -10c-42 -108 -67.833 -173.333 -77.5 -196s-22.5 -48 -38.5 -76c-18 -29.333 -39.333 -49.666 -64 -60.999s-60 -17 -106 -17c-16 0 -30 0.666992 -42 2l36 77c34.667 -3.33301 58 -5 70 -5c27.333 0 49.666 6 66.999 18s32 31 44 57
c28 67.333 45.667 133 53 197z" />
    <glyph glyph-name="brokenbar" unicode="&#xa6;" horiz-adv-x="532" 
d="M372 739v-301h-50v301h50zM372 301v-301h-50v301h50z" />
    <glyph glyph-name="section" unicode="&#xa7;" horiz-adv-x="430" 
d="M65 -152l44 63c36 -14 61 -21 75 -21c22 0 41 7 57 21c20 20 30 40.667 30 62c0 12 -4.33301 24.667 -13 38s-32 43.666 -70 90.999c-42 55.333 -63 104.333 -63 147c0 59.333 39.667 127.333 119 204c18.667 40.667 43.5 73.667 74.5 99s62.167 38 93.5 38
c23.333 0 44.333 -8 63 -24l-56 -73c-10 29.333 -26 44 -48 44c-18.667 0 -36.334 -9.66699 -53.001 -29s-25 -40 -25 -62c0 -13.333 3 -25.166 9 -35.499s23.333 -33.5 52 -69.5c43.333 -54 65 -101.667 65 -143c0 -58 -28 -116 -84 -174c-8 -43.333 -30.667 -86 -68 -128
c-20.667 -24 -40.167 -40.667 -58.5 -50s-40.166 -14 -65.499 -14c-22 0 -48 5.33301 -78 16zM331 46c20.667 32 30.999 61.667 30.999 89c0 18 -3.83301 35.5 -11.5 52.5s-22.167 39.5 -43.5 67.5c-34 45.333 -54.833 75.5 -62.5 90.5s-11.5 33.167 -11.5 54.5
c0 7.33301 0.333008 13.666 1 18.999c-30.667 -40 -46 -78.333 -46 -115c0 -22.667 5.33301 -44 16 -64s33.334 -51.667 68.001 -95c18.667 -23.333 31.667 -41.166 39 -53.499s14 -27.5 20 -45.5z" />
    <glyph glyph-name="dieresis" unicode="&#xa8;" horiz-adv-x="368" 
d="M362 501c-17.333 24.667 -30 48.335 -38 71.002c4.66699 4 12.667 10 24 18l32 25c4 4 8.66699 8 14 12c5.33301 -14.667 10.333 -26.334 15 -35.001c3.33301 -6.66699 10 -18.334 20 -35.001l-33 -26c-4 -3.33301 -15.333 -13.333 -34 -30zM226 501.001
c-18.667 29.333 -31.667 53 -39 71c20.667 14.667 39.667 29 57 43c2 1.33301 4.5 3.5 7.5 6.5s5.16699 4.83301 6.5 5.5c9.33301 -22 14.333 -33.667 15 -35l20 -35c-20 -15.333 -31 -24 -33 -26z" />
    <glyph glyph-name="copyright" unicode="&#xa9;" horiz-adv-x="757" 
d="M667 216l-18.999 -36.998c-74.667 -31.333 -138 -47 -190 -47c-48 0 -86.333 16.167 -115 48.5s-43 75.166 -43 128.499c0 71.333 20 128 60 170c38 40 93.333 60 166 60c37.333 0 68.5 -6.66699 93.5 -20s41.167 -31.666 48.5 -54.999l-57 -67l-7 4
c0.666992 6 1 14 1 24c0 25.333 -8.83301 46 -26.5 62s-40.834 24 -69.501 24c-42.667 0 -75 -15.667 -97 -47c-25.333 -34.667 -38 -77.334 -38 -128.001c0 -44.667 11.667 -83.334 35 -116.001c20 -30 51.333 -45 94 -45c44 0 98.667 13.667 164 41zM501.001 684.002
c94.667 0 176.5 -35 245.5 -105s103.5 -153.333 103.5 -250c0 -98 -34.833 -181.833 -104.5 -251.5s-153.167 -104.5 -250.5 -104.5c-98.667 0 -182.667 35 -252 105s-104 154.667 -104 254c0 97.333 35.167 180.333 105.5 249s155.833 103 256.5 103zM502.001 641.002
c-94 0 -172.334 -34.334 -235.001 -103.001c-53.333 -59.333 -80 -128 -80 -206c0 -87.333 30.167 -161.833 90.5 -223.5s133.5 -92.5 219.5 -92.5c84.667 0 157.334 30.667 218.001 92s91 135 91 221c0 84.667 -30 157.834 -90 219.501s-131.333 92.5 -214 92.5z" />
    <glyph glyph-name="ordfeminine" unicode="&#xaa;" horiz-adv-x="266" 
d="M332 437v-22c-59.333 -42 -95.333 -63 -108 -63c-6 0 -9 4.66699 -9 14c0 1.33301 0.666992 6.66602 2 15.999c0.666992 0.666992 1.66699 6.33398 3 17.001c1.33301 1.33301 2 5.33301 2 12c-8 -6.66699 -14 -11.334 -18 -14.001c-43.333 -30 -69 -45 -77 -45
c-16 0 -24 15.333 -24 46c0 22 5.16699 48.667 15.5 80s20.833 52.333 31.5 63c6 6 23.333 18.333 52 37c11.333 8 24.333 12 39 12c32.667 0 58.334 -3 77.001 -9c-2.66699 -4 -4.33398 -6.33301 -5.00098 -7l-5 -5l-6 -8c-22.667 -87.333 -34 -137.666 -34 -150.999
c0 -7.33301 2.33301 -11 7 -11c7.33301 0 26.333 12.667 57 38zM229 437c2 8.66699 2.99707 14.667 2.99707 18l24 96c-9.33301 4 -22.666 6 -39.999 6c-10.667 0 -19.667 -3.83301 -27 -11.5s-14.333 -21.167 -21 -40.5c-10.667 -32 -16 -60 -16 -84
c0 -5.33301 1.33301 -10.333 4 -15s5.33398 -7 8.00098 -7c4.66699 0 26.334 12.667 65.001 38zM82.9971 259l11 36h189l-10 -36h-190z" />
    <glyph glyph-name="guillemotleft" unicode="&#xab;" horiz-adv-x="348" 
d="M402 423l12.001 -26.999c-23.333 -34.667 -67.333 -94 -132 -178c15.333 -56.667 28.333 -121.667 39 -195l-7.5 -5c-3 -2 -4.83301 -3.33301 -5.5 -4l-16 -12c-1.33301 -0.666992 -6 -4.33398 -14 -11.001l-12 46l-28 110l-12 42l-5 21
c15.333 16 26.666 28.667 33.999 38l50 61zM193.001 17.001l-6 -2.99805l-16 -12c-0.666992 -0.666992 -2.66699 -2.33398 -6 -5.00098s-5.66602 -4.66699 -6.99902 -6l-58 219c15.333 16 26.666 28.667 33.999 38l148 175l11 -27c-20.667 -30.667 -42 -60.334 -64 -89.001
l-68 -89c15.333 -59.333 28.333 -124.333 39 -195z" />
    <glyph glyph-name="logicalnot" unicode="&#xac;" horiz-adv-x="532" 
d="M56 322h516v-296h-56v239h-460v57z" />
    <glyph glyph-name="registered" unicode="&#xae;" horiz-adv-x="757" 
d="M423 318l-10 -143.002l69 -4l-26 -30h-33c-4 0 -23.5 0.333008 -58.5 1s-64.833 1.33398 -89.5 2.00098l20 31l47 2c8.66699 79.333 18 185 28 317l-72 4l26 28l213 -1c36.667 -0.666992 63.334 -7 80.001 -19s25 -31 25 -57c0 -25.333 -10.167 -48.166 -30.5 -68.499
s-48.5 -35.5 -84.5 -45.5l81 -95c31.333 -36 52.666 -57.333 63.999 -64s33.333 -11 66 -13l-16 -21l-78 -8c-4 -0.666992 -9 -1 -15 -1c-16 0 -32.667 11.667 -50 35l-114 146c-14 0 -28 1.33301 -42 4zM437 491.998l-11.001 -145.999c16 -1.33301 27.333 -2 34 -2
c32 0 58.833 8.5 80.5 25.5s32.5 38.167 32.5 63.5c0 21.333 -7.83301 36.666 -23.5 45.999s-41.167 14 -76.5 14h-14c-9.33301 0 -16.666 -0.333008 -21.999 -1zM498.999 683.999c94.667 0 176.5 -35 245.5 -105s103.5 -153.333 103.5 -250
c0 -98 -34.667 -181.833 -104 -251.5s-153 -104.5 -251 -104.5c-98.667 0 -182.5 35 -251.5 105s-103.5 154.667 -103.5 254c0 97.333 35 180.333 105 249s155.333 103 256 103zM499.999 640.999c-93.333 0 -171.665 -34.334 -234.998 -103.001
c-52.667 -60 -79 -128.667 -79 -206c0 -87.333 30.167 -161.833 90.5 -223.5s133.166 -92.5 218.499 -92.5s158.166 30.667 218.499 92s90.5 135 90.5 221c0 84.667 -30 157.834 -90 219.501s-131.333 92.5 -214 92.5z" />
    <glyph glyph-name="macron" unicode="&#xaf;" 
d="M187 532l10 10l12 15l11 11c0 0.666992 1.33301 2.5 4 5.5s5 5.83301 7 8.5h296c-11.333 -12 -25 -28.667 -41 -50h-299z" />
    <glyph glyph-name="degree" unicode="&#xb0;" horiz-adv-x="409" 
d="M321 590c33.333 0 61.502 -12.1689 84.502 -36.502s34.5 -54.166 34.5 -89.499s-11.833 -65.166 -35.5 -89.499s-52.834 -36.5 -87.501 -36.5c-34 0 -62.833 12.167 -86.5 36.5s-35.5 54.5 -35.5 90.5c0 35.333 12.167 65 36.5 89s54.166 36 89.499 36zM318.002 542.998
c-21.333 0 -39.499 -7.66699 -54.499 -23s-22.5 -34 -22.5 -56c0 -21.333 7.5 -39.833 22.5 -55.5s32.833 -23.5 53.5 -23.5c21.333 0 39.333 7.66699 54 23s22 34 22 56c0 21.333 -7.33301 39.833 -22 55.5s-32.334 23.5 -53.001 23.5z" />
    <glyph glyph-name="plusminus" unicode="&#xb1;" horiz-adv-x="532" 
d="M343 283v-183h-55v183h-183v55h183v182h55v-182h182v-55h-182zM105 0v55h420v-55h-420z" />
    <glyph glyph-name="twosuperior" unicode="&#xb2;" horiz-adv-x="270" 
d="M85 211l-3.00195 23.002c17.333 20 33.333 37.333 48 52s41.334 38.334 80.001 71.001c38.667 34 64.167 59.5 76.5 76.5s18.5 35.5 18.5 55.5c0 15.333 -5 28.166 -15 38.499s-23 15.5 -39 15.5s-28.833 -4.33301 -38.5 -13s-14.5 -20 -14.5 -34
c0 -8.66699 2.66699 -22.334 8 -41.001l-50 6c-1.33301 5.33301 -2 10.666 -2 15.999c0 26 13.167 48.833 39.5 68.5s57.5 29.5 93.5 29.5c21.333 0 38.5 -6 51.5 -18s19.5 -28 19.5 -48s-6 -40.667 -18 -62c-6.66699 -11.333 -13.334 -20.5 -20.001 -27.5
s-19 -17.833 -37 -32.5l-97 -82l-16 -15c17.333 -1.33301 49 -7.33301 95 -18c8 -1.33301 13 -2 15 -2c8 0 15.667 3 23 9s23 22.333 47 49l12 -18l-66 -84c-7.33301 -2.66699 -12.666 -4 -15.999 -4c-19.333 0 -59 7.66699 -119 23c-8.66699 2 -16.667 3 -24 3
c-6.66699 0 -13.167 -2.33301 -19.5 -7s-17.166 -14.667 -32.499 -30z" />
    <glyph glyph-name="threesuperior" unicode="&#xb3;" horiz-adv-x="270" 
d="M71 239l32.002 35.0029c37.333 -16 67.333 -24 90 -24c26.667 0 49.667 9.5 69 28.5s29 41.833 29 68.5c0 15.333 -6 27.666 -18 36.999s-27.333 14 -46 14c-11.333 0 -33 -4.66699 -65 -14l-4 -1l5 23c90 30 135 62.667 135 98c0 9.33301 -3.83301 17.166 -11.5 23.499
s-16.834 9.5 -27.501 9.5c-13.333 0 -31.666 -7 -54.999 -21l-16 -9v20c22.667 16 44 30 64 42c14 3.33301 26.333 5 37 5c18.667 0 33.667 -4.16699 45 -12.5s17 -19.5 17 -33.5c0 -17.333 -10 -36 -30 -56c-21.333 -12.667 -35.333 -21.667 -42 -27l-6 -4h5
c5.33301 0 13.166 -2 23.499 -6s17.833 -8 22.5 -12c13.333 -10.667 20 -25.334 20 -44.001c0 -42 -19.333 -79.5 -58 -112.5s-82.667 -49.5 -132 -49.5c-28.667 0 -56.334 7.33301 -83.001 22z" />
    <glyph glyph-name="acute" unicode="&#xb4;" horiz-adv-x="307" 
d="M234 471l-24 6l141 194l46 -23c-58.667 -59.333 -113 -118.333 -163 -177z" />
    <glyph glyph-name="paragraph" unicode="&#xb6;" horiz-adv-x="512" 
d="M503 543l-85.001 -339.001c-24.667 -105.333 -40 -168.833 -46 -190.5s-15 -45.167 -27 -70.5c-26.667 -56 -60.667 -102.667 -102 -140s-80 -56 -116 -56c-37.333 0 -69.666 14.667 -96.999 44l50 65c34 -34 64 -51 90 -51c31.333 0 58 18.667 80 56
c14.667 24.667 25.5 48.667 32.5 72s19.167 73.333 36.5 150l29 118c-64.667 14.667 -112 36.834 -142 66.501s-45 69.167 -45 118.5c0 81.333 39.667 140 119 176c30.667 13.333 68.334 22.333 113.001 27c7.33301 0 56.666 2 147.999 6l125 5l-27 -36z" />
    <glyph glyph-name="periodcentered" unicode="&#xb7;" horiz-adv-x="225" 
d="M173 284c16.667 0 31 -6 43 -18s18 -26.667 18 -44s-6 -32 -18 -44s-26.667 -18 -44 -18c-16.667 0 -31 6 -43 18s-18 26.667 -18 44s6 32 18 44s26.667 18 44 18z" />
    <glyph glyph-name="cedilla" unicode="&#xb8;" horiz-adv-x="307" 
d="M221 0l-48.001 -65.999c16.667 -6.66699 25 -19.334 25 -38.001c0 -24.667 -12.667 -47 -38 -67s-59.666 -35.333 -102.999 -46l-15 13c24 6 45.333 17 64 33c18.667 13.333 28 26 28 38c0 11.333 -9.33301 24.333 -28 39l79 94h36z" />
    <glyph glyph-name="onesuperior" unicode="&#xb9;" horiz-adv-x="270" 
d="M88 222l24.999 28h4l11 2c4.66699 0 16.667 1 36 3c8.66699 0.666992 14 1.83398 16 3.50098s4.33301 7.5 7 17.5l56 241c-29.333 -10.667 -52 -20 -68 -28l-23 17c38.667 15.333 82.334 36 131.001 62l13.5 7l13.5 7c-9.33301 -33.333 -23.5 -92.333 -42.5 -177
s-28.5 -130.334 -28.5 -137.001s5.33301 -11 16 -13s33 -3.66699 67 -5l-20 -28h-28l-75 2c-57.333 -1.33301 -94.333 -2 -111 -2z" />
    <glyph glyph-name="ordmasculine" unicode="&#xba;" horiz-adv-x="266" 
d="M280 592c14.667 0 26.834 -5.00098 36.501 -15.001s14.5 -22.333 14.5 -37c0 -19.333 -4 -41.166 -12 -65.499s-17.667 -44.166 -29 -59.499c-10.667 -14 -28.834 -28 -54.501 -42s-46.167 -21 -61.5 -21c-14.667 0 -26.5 5.16699 -35.5 15.5s-13.5 24.166 -13.5 41.499
c0 28 5.83301 55.167 17.5 81.5s26.5 46.5 44.5 60.5c38.667 27.333 69.667 41 93 41zM250 558.999c-19.333 0 -37 -13.333 -53 -40s-24 -55.667 -24 -87s11.333 -47 34 -47c17.333 0 34.333 13.5 51 40.5s25 54.833 25 83.5c0 15.333 -3 27.5 -9 36.5s-14 13.5 -24 13.5z
M100 258.999l11 36h176l-13 -36h-174z" />
    <glyph glyph-name="guillemotright" unicode="&#xbb;" horiz-adv-x="389" 
d="M222 -3l-9 29c20 27.333 66.333 87 139 179c-14 48 -30 110.333 -48 187c16.667 18 31 31.667 43 41c12 -36 30.333 -95.333 55 -178l15 -45l-37 -38l-56 -63c-14.667 -14.667 -48.667 -52 -102 -112zM98 -3l-9 29c21.333 30 68 89.667 140 179
c-16 54 -32 116.333 -48 187c16.667 18 31 31.667 43 41l25 -79c2.66699 -7.33301 13 -40.333 31 -99c0.666992 -6 5 -21 13 -45l-37 -38l-93 -104z" />
    <glyph glyph-name="onequarter" unicode="&#xbc;" horiz-adv-x="675" 
d="M535 -9l23.999 100.999h-25h-84c-6 0.666992 -11.333 1 -16 1c-5.33301 0 -10.333 -0.333008 -15 -1c8 20 16.667 35.333 26 46l47 58c31.333 40.667 52 65 62 73l51 52c0.666992 1.33301 6 7 16 17l13 7c18.667 8.66699 30.334 13.667 35.001 15l-6 -23
c-2 -6 -4.33301 -13.667 -7 -23l-3 -14c-6 -28.667 -10.333 -48 -13 -58l-17 -78l-9 -36h10l14 1h10c2 -0.666992 8.66699 -1 20 -1l-27 -36h-25h-11l-2 -10c-4.66699 -18.667 -7 -33.334 -7 -44.001c0 -6 2.33301 -16.333 7 -31
c-6.66699 -3.33301 -12 -5.66602 -16 -6.99902l-14 -4l-12 -5c-0.666992 0 -2.66699 -0.666992 -6 -2s-6.33301 -2.66602 -9 -3.99902zM470.999 127.999h96l36 151l2 9l-39 -44l-84 -100zM219.999 -4.00098l-11.002 1c33.333 50.667 102.666 164 207.999 340
c72.667 122 123.334 209.333 152.001 262c8 -1.33301 13 -2 15 -2c0.666992 0 2.33398 -0.333008 5.00098 -1c4.66699 0 8.33398 -0.333008 11.001 -1c4.66699 0 9 -0.333008 13 -1c-33.333 -50 -75 -117 -125 -201l-101 -171c-60.667 -100 -104.667 -175.667 -132 -227h-11
zM97.9971 221.999l24.998 27.999h4l11 2c4.66699 0 16.667 1 36 3c9.33301 0.666992 15 1.83398 17 3.50098s4.33301 7.5 7 17.5l55 241c-29.333 -10.667 -52 -20 -68 -28l-23 17c38.667 15.333 82.334 36 131.001 62l28 14c-9.33301 -32 -23.666 -90.5 -42.999 -175.5
s-29 -131.167 -29 -138.5c0 -6.66699 5.33301 -11 16 -13s33 -3.66699 67 -5l-20 -28h-27l-76 2c-57.333 -1.33301 -94.333 -2 -111 -2z" />
    <glyph glyph-name="onehalf" unicode="&#xbd;" horiz-adv-x="675" 
d="M212 -4l-10.999 1c33.333 50.667 102.666 164 207.999 340c72.667 122 123.334 209.333 152.001 262c8 -1.33301 12.667 -2 14 -2s3.66602 -0.333008 6.99902 -1c4 -0.666992 7.33301 -1 10 -1c4.66699 0 9 -0.333008 13 -1c-33.333 -50 -75 -117 -125 -201l-101 -171
c-60.667 -100 -104.667 -175.667 -132 -227h-11zM98.001 222l24.998 27.999h4l11 2c4.66699 0 16.667 1 36 3c9.33301 0.666992 15 1.83398 17 3.50098s4.33301 7.5 7 17.5l55 241c-29.333 -10.667 -52 -20 -68 -28l-23 17c38.667 15.333 82.334 36 131.001 62l28 14
c-9.33301 -32 -23.666 -90.5 -42.999 -175.5s-29 -131.167 -29 -138.5c0 -6.66699 5.33301 -11 16 -13s33 -3.66699 67 -5l-20 -28h-27l-76 2c-57.333 -1.33301 -94.333 -2 -111 -2zM396.999 -10.001l-2.99902 23.0029c17.333 20 33.333 37.333 48 52
s41.334 38.334 80.001 71.001c38.667 34 64.167 59.5 76.5 76.5s18.5 35.5 18.5 55.5c0 15.333 -5 28.166 -15 38.499s-23 15.5 -39 15.5c-16.667 0 -29.667 -4.33301 -39 -13s-14 -20.334 -14 -35.001c0 -8 2.66699 -21.667 8 -41l-50 7
c-1.33301 5.33301 -2 10.666 -2 15.999c0 26 13.167 48.833 39.5 68.5s57.5 29.5 93.5 29.5c21.333 0 38.666 -6 51.999 -18s20 -28 20 -48c0 -20.667 -6.33301 -41.334 -19 -62.001c-6.66699 -12 -13.334 -21.5 -20.001 -28.5s-19 -17.5 -37 -31.5
c-0.666992 0 -15.334 -12.667 -44.001 -38l-52 -44l-17 -15c17.333 -1.33301 49.333 -7.33301 96 -18c8 -1.33301 12.667 -2 14 -2c7.33301 0 14.833 3 22.5 9s23.834 22 48.501 48l12 -17l-67 -84c-7.33301 -2.66699 -12.666 -4 -15.999 -4c-19.333 0 -59 7.66699 -119 23
c-8.66699 2 -16.334 3 -23.001 3c-7.33301 0 -14 -2.16699 -20 -6.5s-17 -14.5 -33 -30.5z" />
    <glyph glyph-name="threequarters" unicode="&#xbe;" horiz-adv-x="675" 
d="M545 -9l23.9941 101h-25h-84c-5.33301 0.666992 -10.666 1 -15.999 1s-10.333 -0.333008 -15 -1c8 20 17 35.333 27 46l46 58c31.333 40.667 52 65 62 73l51 52c0.666992 0.666992 2.83398 3 6.50098 7l9.5 10l13 7c18.667 8.66699 30.334 13.667 35.001 15l-6 -23
c-1.33301 -4.66699 -3 -11.667 -5 -21s-3.33301 -14.666 -4 -15.999c-1.33301 -6.66699 -3.66602 -16.334 -6.99902 -29.001s-5.66602 -22.334 -6.99902 -29.001l-17 -78l-8 -36h9l14 1h10c2.66699 -0.666992 9.33398 -1 20.001 -1l-27 -36h-24h-12l-2 -10
c-4.66699 -18.667 -7 -33.334 -7 -44.001c0 -6 2.33301 -16.333 7 -31c-6.66699 -3.33301 -12 -5.66602 -16 -6.99902l-13 -4l-13 -5c-0.666992 0 -2.66699 -0.666992 -6 -2s-6.33301 -2.66602 -9 -3.99902zM480.994 128h97l21 90.5c8 35 12.667 55.167 14 60.5l2 9l-38 -44
c-24 -26.667 -52 -60 -84 -100zM229.994 -4l-11.002 1c40.667 62 110 175.333 208 340c80.667 136 131.667 223.333 153 262c8 -1.33301 12.667 -2 14 -2c0.666992 0 2.33398 -0.333008 5.00098 -1c4.66699 0 8.33398 -0.333008 11.001 -1
c4.66699 0 9.33398 -0.333008 14.001 -1c-34.667 -50.667 -76.334 -117.667 -125.001 -201l-102 -171c-60.667 -100 -104.667 -175.667 -132 -227h-11zM80.9922 239l33.0029 35.001c37.333 -16 67 -24 89 -24c26.667 0 49.667 9.5 69 28.5s29 41.833 29 68.5
c0 14.667 -5.83301 26.834 -17.5 36.501s-26.834 14.5 -45.501 14.5c-12 0 -34 -4.66699 -66 -14l-4 -1l5 23c90 30 135 62.667 135 98c0 9.33301 -3.83301 17.166 -11.5 23.499s-16.834 9.5 -27.501 9.5c-12 0 -30.333 -7 -55 -21l-15 -9v20
c15.333 11.333 36.333 25.333 63 42c14.667 3.33301 27 5 37 5c18.667 0 33.667 -4.16699 45 -12.5s17 -19.5 17 -33.5c0 -17.333 -10 -36 -30 -56c-21.333 -12.667 -35.333 -21.667 -42 -27l-5 -4h4c5.33301 0 13.166 -2 23.499 -6s17.833 -8 22.5 -12
c13.333 -10.667 20 -25.334 20 -44.001c0 -42 -19.333 -79.5 -58 -112.5s-82.667 -49.5 -132 -49.5c-27.333 0 -55 7.33301 -83 22z" />
    <glyph glyph-name="questiondown" unicode="&#xbf;" horiz-adv-x="409" 
d="M374 291l-15 -11.001c-11.333 18.667 -17.666 29.334 -18.999 32.001l-17 27c-4 4 -8 9.33301 -12 16c21.333 21.333 46.666 42.666 75.999 63.999c22 -25.333 38 -51.666 48 -78.999l-27 -22l-10 -7zM343 230.999l35.001 12.001c-4 -50.667 -10 -105.667 -18 -165
l-18 -16c-18 4.66699 -34 7 -48 7c-44.667 0 -81.667 -16.667 -111 -50c-27.333 -32.667 -41 -67.334 -41 -104.001c0 -20 5.33301 -36.333 16 -49s24.667 -19 42 -19c45.333 0 83.333 29.333 114 88c10.667 -27.333 18 -48 22 -62
c-42.667 -38.667 -95.334 -58 -158.001 -58c-36.667 0 -65.834 8.5 -87.501 25.5s-32.5 40.167 -32.5 69.5c0 33.333 9 65.5 27 96.5s42 54.833 72 71.5c18.667 10.667 35.834 18.167 51.501 22.5s41.5 8.16602 77.5 11.499c16.667 -0.666992 29.5 8.33301 38.5 27
s15.167 49.334 18.5 92.001z" />
    <glyph glyph-name="Agrave" unicode="&#xc0;" horiz-adv-x="634" 
d="M24 9l38.002 72c14.667 -4.66699 30 -7 46 -7c23.333 0 43.666 4 60.999 12s36.333 22 57 42c38.667 37.333 84.667 90.666 138 159.999l177 229c-33.333 2.66699 -51.333 4 -54 4l-15 1l-41 5c-18.667 1.33301 -31.334 2 -38.001 2
c-37.333 0 -66.5 -8.16699 -87.5 -24.5s-31.5 -39.166 -31.5 -68.499c0 -19.333 7.33301 -51 22 -95l-76 -41c-9.33301 25.333 -14 48.666 -14 69.999c0 52 26 102.667 78 152c48.667 47.333 96.667 71 144 71c17.333 0 48.333 -3.33301 93 -10c28 -5.33301 47.667 -8 59 -8
c14 0 28.333 7 43 21c2 2.66699 5.66699 6.66699 11 12l14 -10c-16 -79.333 -32.167 -177 -48.5 -293s-24.5 -190 -24.5 -222c0 -18 3.83301 -30.167 11.5 -36.5s21.5 -9.5 41.5 -9.5c13.333 0 30.666 1 51.999 3c2 0 9.66699 0.666992 23 2l-16 -25
c-32.667 -5.33301 -81.667 -14 -147 -26c-11.333 -2.66699 -21.333 -4 -30 -4c-6.66699 0 -12.334 2.16699 -17.001 6.5s-7 9.5 -7 15.5c0 12.667 2 27.334 6 44.001c1.33301 4.66699 3.33301 18.667 6 42l5 32.5c2 13 3 20.5 3 22.5c0.666992 8 2.33398 20 5.00098 36
c-35.333 2.66699 -95.666 4 -180.999 4c-67.333 -76.667 -117.5 -127.5 -150.5 -152.5s-66.833 -37.5 -101.5 -37.5c-16 0 -34 3 -54 9zM361.002 232h156l42 260zM539.002 831l15.999 9.00195c22.667 -60.667 43.667 -125.334 63 -194.001
c-13.333 -3.33301 -21.666 -5.33301 -24.999 -6c-30.667 67.333 -59 125.666 -85 174.999l13 7z" />
    <glyph glyph-name="Aacute" unicode="&#xc1;" horiz-adv-x="634" 
d="M24 9l38.002 72c14.667 -4.66699 30 -7 46 -7c23.333 0 43.666 4 60.999 12s36.333 22 57 42c38.667 37.333 84.667 90.666 138 159.999l177 229c-33.333 2.66699 -51.333 4 -54 4l-15 1l-41 5c-18.667 1.33301 -31.334 2 -38.001 2
c-37.333 0 -66.5 -8.16699 -87.5 -24.5s-31.5 -39.166 -31.5 -68.499c0 -19.333 7.33301 -51 22 -95l-76 -41c-9.33301 25.333 -14 48.666 -14 69.999c0 52 26 102.667 78 152c48.667 47.333 96.667 71 144 71c17.333 0 48.333 -3.33301 93 -10c28 -5.33301 47.667 -8 59 -8
c14 0 28.333 7 43 21c2 2.66699 5.66699 6.66699 11 12l14 -10c-16 -79.333 -32.167 -177 -48.5 -293s-24.5 -190 -24.5 -222c0 -18 3.83301 -30.167 11.5 -36.5s21.5 -9.5 41.5 -9.5c13.333 0 30.666 1 51.999 3c2 0 9.66699 0.666992 23 2l-16 -25
c-32.667 -5.33301 -81.667 -14 -147 -26c-11.333 -2.66699 -21.333 -4 -30 -4c-6.66699 0 -12.334 2.16699 -17.001 6.5s-7 9.5 -7 15.5c0 12.667 2 27.334 6 44.001c1.33301 4.66699 3.33301 18.667 6 42l5 32.5c2 13 3 20.5 3 22.5c0.666992 8 2.33398 20 5.00098 36
c-35.333 2.66699 -95.666 4 -180.999 4c-67.333 -76.667 -117.5 -127.5 -150.5 -152.5s-66.833 -37.5 -101.5 -37.5c-16 0 -34 3 -54 9zM361.002 232h156l42 260zM541.002 640l-25 6.99902c29.333 38 76.333 102.333 141 193l46 -22
c-65.333 -67.333 -119.333 -126.666 -162 -177.999z" />
    <glyph glyph-name="Acircumflex" unicode="&#xc2;" horiz-adv-x="634" 
d="M24 9l38.002 72c14.667 -4.66699 30 -7 46 -7c23.333 0 43.666 4 60.999 12s36.333 22 57 42c38.667 37.333 84.667 90.666 138 159.999l177 229c-33.333 2.66699 -51.333 4 -54 4l-15 1l-41 5c-18.667 1.33301 -31.334 2 -38.001 2
c-37.333 0 -66.5 -8.16699 -87.5 -24.5s-31.5 -39.166 -31.5 -68.499c0 -19.333 7.33301 -51 22 -95l-76 -41c-9.33301 25.333 -14 48.666 -14 69.999c0 52 26 102.667 78 152c48.667 47.333 96.667 71 144 71c17.333 0 48.333 -3.33301 93 -10c28 -5.33301 47.667 -8 59 -8
c14 0 28.333 7 43 21c2 2.66699 5.66699 6.66699 11 12l14 -10c-16 -79.333 -32.167 -177 -48.5 -293s-24.5 -190 -24.5 -222c0 -18 3.83301 -30.167 11.5 -36.5s21.5 -9.5 41.5 -9.5c13.333 0 30.666 1 51.999 3c2 0 9.66699 0.666992 23 2l-16 -25
c-32.667 -5.33301 -81.667 -14 -147 -26c-11.333 -2.66699 -21.333 -4 -30 -4c-6.66699 0 -12.334 2.16699 -17.001 6.5s-7 9.5 -7 15.5c0 12.667 2 27.334 6 44.001c1.33301 4.66699 3.33301 18.667 6 42l5 32.5c2 13 3 20.5 3 22.5c0.666992 8 2.33398 20 5.00098 36
c-35.333 2.66699 -95.666 4 -180.999 4c-67.333 -76.667 -117.5 -127.5 -150.5 -152.5s-66.833 -37.5 -101.5 -37.5c-16 0 -34 3 -54 9zM361.002 232h156l42 260zM460.002 649l-0.999023 9.99805c0 1.33301 -0.666992 4.66602 -2 9.99902c78 78.667 137 135.334 177 170.001
c2.66699 0.666992 5.5 1.16699 8.5 1.5s4.83301 0.5 5.5 0.5c1.33301 0 6 -0.666992 14 -2c1.33301 -20 2.66602 -38.667 3.99902 -56s2 -27.666 2 -30.999l8 -92c-8 -4 -20.333 -10.667 -37 -20l-3 24l-6 48l-12 65c-30 -23.333 -54.667 -43.666 -74 -60.999l-83 -76z" />
    <glyph glyph-name="Atilde" unicode="&#xc3;" horiz-adv-x="634" 
d="M24 9l38.002 72c14.667 -4.66699 30 -7 46 -7c23.333 0 43.666 4 60.999 12s36.333 22 57 42c38.667 37.333 84.667 90.666 138 159.999l177 229c-33.333 2.66699 -51.333 4 -54 4l-15 1l-41 5c-18.667 1.33301 -31.334 2 -38.001 2
c-37.333 0 -66.5 -8.16699 -87.5 -24.5s-31.5 -39.166 -31.5 -68.499c0 -19.333 7.33301 -51 22 -95l-76 -41c-9.33301 25.333 -14 48.666 -14 69.999c0 52 26 102.667 78 152c48.667 47.333 96.667 71 144 71c17.333 0 48.333 -3.33301 93 -10c28 -5.33301 47.667 -8 59 -8
c14 0 28.333 7 43 21c2 2.66699 5.66699 6.66699 11 12l14 -10c-16 -79.333 -32.167 -177 -48.5 -293s-24.5 -190 -24.5 -222c0 -18 3.83301 -30.167 11.5 -36.5s21.5 -9.5 41.5 -9.5c13.333 0 30.666 1 51.999 3c2 0 9.66699 0.666992 23 2l-16 -25
c-32.667 -5.33301 -81.667 -14 -147 -26c-11.333 -2.66699 -21.333 -4 -30 -4c-6.66699 0 -12.334 2.16699 -17.001 6.5s-7 9.5 -7 15.5c0 12.667 2 27.334 6 44.001c1.33301 4.66699 3.33301 18.667 6 42l5 32.5c2 13 3 20.5 3 22.5c0.666992 8 2.33398 20 5.00098 36
c-35.333 2.66699 -95.666 4 -180.999 4c-67.333 -76.667 -117.5 -127.5 -150.5 -152.5s-66.833 -37.5 -101.5 -37.5c-16 0 -34 3 -54 9zM361.002 232h156l42 260zM446.002 671l-13 18.001c24.667 34 44.667 57.333 60 70s31.333 19 48 19s39.667 -8.33301 69 -25
c24 -14 44.333 -21 61 -21c24 0 49 12.667 75 38c3.33301 3.33301 8.33301 7.66602 15 12.999l10 -17c-27.333 -34 -48.166 -56.667 -62.499 -68s-29.166 -17 -44.499 -17c-12 0 -23 2 -33 6s-28 13.333 -54 28c-20 11.333 -37.333 17 -52 17
c-12.667 0 -24.334 -4 -35.001 -12s-25.334 -24.333 -44.001 -49z" />
    <glyph glyph-name="Adieresis" unicode="&#xc4;" horiz-adv-x="634" 
d="M24 9l38.002 72c14.667 -4.66699 30 -7 46 -7c23.333 0 43.666 4 60.999 12s36.333 22 57 42c38.667 37.333 84.667 90.666 138 159.999l177 229c-33.333 2.66699 -51.333 4 -54 4l-15 1l-41 5c-18.667 1.33301 -31.334 2 -38.001 2
c-37.333 0 -66.5 -8.16699 -87.5 -24.5s-31.5 -39.166 -31.5 -68.499c0 -19.333 7.33301 -51 22 -95l-76 -41c-9.33301 25.333 -14 48.666 -14 69.999c0 52 26 102.667 78 152c48.667 47.333 96.667 71 144 71c17.333 0 48.333 -3.33301 93 -10c28 -5.33301 47.667 -8 59 -8
c14 0 28.333 7 43 21c2 2.66699 5.66699 6.66699 11 12l14 -10c-16 -79.333 -32.167 -177 -48.5 -293s-24.5 -190 -24.5 -222c0 -18 3.83301 -30.167 11.5 -36.5s21.5 -9.5 41.5 -9.5c13.333 0 30.666 1 51.999 3c2 0 9.66699 0.666992 23 2l-16 -25
c-32.667 -5.33301 -81.667 -14 -147 -26c-11.333 -2.66699 -21.333 -4 -30 -4c-6.66699 0 -12.334 2.16699 -17.001 6.5s-7 9.5 -7 15.5c0 12.667 2 27.334 6 44.001c1.33301 4.66699 3.33301 18.667 6 42l5 32.5c2 13 3 20.5 3 22.5c0.666992 8 2.33398 20 5.00098 36
c-35.333 2.66699 -95.666 4 -180.999 4c-67.333 -76.667 -117.5 -127.5 -150.5 -152.5s-66.833 -37.5 -101.5 -37.5c-16 0 -34 3 -54 9zM361.002 232h156l42 260zM649.002 666c-18.667 26.667 -31.667 50.334 -39 71.001l25 18l32 25c8 6.66699 12.667 10.667 14 12l14 -35
c5.33301 -10.667 12.333 -22.334 21 -35.001l-33 -26c-4 -3.33301 -15.333 -13.333 -34 -30zM513.002 666c-19.333 27.333 -32.334 51.001 -39.001 71.001c20.667 14.667 39.334 29 56.001 43c4 2 9 6 15 12c9.33301 -21.333 14.333 -33 15 -35
c5.33301 -10.667 12 -22.334 20 -35.001l-33 -26z" />
    <glyph glyph-name="Aring" unicode="&#xc5;" horiz-adv-x="634" 
d="M24 9l38.002 72c14.667 -4.66699 30 -7 46 -7c23.333 0 43.666 4 60.999 12s36.333 22 57 42c38.667 37.333 84.667 90.666 138 159.999l177 229c-33.333 2.66699 -51.333 4 -54 4l-15 1l-41 5c-18.667 1.33301 -31.334 2 -38.001 2
c-37.333 0 -66.5 -8.16699 -87.5 -24.5s-31.5 -39.166 -31.5 -68.499c0 -19.333 7.33301 -51 22 -95l-76 -41c-9.33301 25.333 -14 48.666 -14 69.999c0 52 26 102.667 78 152c48.667 47.333 96.667 71 144 71c17.333 0 48.333 -3.33301 93 -10c28 -5.33301 47.667 -8 59 -8
c14 0 28.333 7 43 21c2 2.66699 5.66699 6.66699 11 12l14 -10c-16 -79.333 -32.167 -177 -48.5 -293s-24.5 -190 -24.5 -222c0 -18 3.83301 -30.167 11.5 -36.5s21.5 -9.5 41.5 -9.5c13.333 0 30.666 1 51.999 3c2 0 9.66699 0.666992 23 2l-16 -25
c-32.667 -5.33301 -81.667 -14 -147 -26c-11.333 -2.66699 -21.333 -4 -30 -4c-6.66699 0 -12.334 2.16699 -17.001 6.5s-7 9.5 -7 15.5c0 12.667 2 27.334 6 44.001c1.33301 4.66699 3.33301 18.667 6 42l5 32.5c2 13 3 20.5 3 22.5c0.666992 8 2.33398 20 5.00098 36
c-35.333 2.66699 -95.666 4 -180.999 4c-67.333 -76.667 -117.5 -127.5 -150.5 -152.5s-66.833 -37.5 -101.5 -37.5c-16 0 -34 3 -54 9zM361.002 232h156l42 260zM625.002 821c21.333 0 38.166 -5.49902 50.499 -16.499s18.5 -26.5 18.5 -46.5
c0 -32.667 -11.667 -60.834 -35 -84.501s-50.666 -35.5 -81.999 -35.5c-21.333 0 -38 5.66699 -50 17s-18 27 -18 47c0 34.667 11 63.167 33 85.5s49.667 33.5 83 33.5zM610.002 799.001c-16 0 -29.5 -8 -40.5 -24s-16.5 -36.333 -16.5 -61c0 -16 3.16699 -29 9.5 -39
s14.833 -15 25.5 -15c16 0 29.667 8.5 41 25.5s17 37.167 17 60.5c0 35.333 -12 53 -36 53z" />
    <glyph glyph-name="AE" unicode="&#xc6;" horiz-adv-x="757" 
d="M513 278l-57.9971 -236.006c18 -0.666992 38.667 -1 62 -1c32 0 55.667 0.166992 71 0.5s32.5 2.83301 51.5 7.5s32.667 9.33398 41 14.001s20.166 14.834 35.499 30.501s28.166 31 38.499 46l48.5 70.5l14 -27c-42 -85.333 -73 -145.666 -93 -180.999
c-112.667 1.33301 -201.334 2 -266.001 2c-72 0 -132 -0.666992 -180 -2l29 25c10 2 17 3.66699 21 5c3.33301 0.666992 8.5 1.5 15.5 2.5s12.167 1.83301 15.5 2.5c4 1.33301 11 3 21 5l58 236h-150c-40.667 -50.667 -76 -97 -106 -139
c-26 -36.667 -41.167 -59.167 -45.5 -67.5s-6.5 -19.166 -6.5 -32.499c0 -6.66699 1.33301 -17.667 4 -33c-34.667 -6 -66 -9.33301 -94 -10c-4 8 -6.33301 18.333 -7 31c31.333 40.667 73.333 92.334 126 155.001l320 359c-32 8 -69.333 14.667 -112 20
c13.333 12 24 20 32 24c64.667 -4 110.334 -6 137.001 -6c47.333 0 109.666 1.33301 186.999 4c38 0.666992 62 1.33398 72 2.00098c12 -7.33301 18.333 -22 19 -44l-73 -69c-2.66699 32 -7.5 53.167 -14.5 63.5s-20.167 15.5 -39.5 15.5c-4 0 -16.667 -0.666992 -38 -2
c-1.33301 0 -6.5 -0.333008 -15.5 -1s-16.833 -1 -23.5 -1c-2.66699 0 -12.667 -0.666992 -30 -2l-59 -236h174c-12.667 -12 -27 -22.333 -43 -31c-18 0.666992 -34.667 1 -50 1zM499.003 518.994l-180 -203.999c38.667 -2.66699 81 -4.33398 127 -5.00098z" />
    <glyph glyph-name="Ccedilla" unicode="&#xc7;" horiz-adv-x="532" 
d="M283 -73l-34.998 -48.002c16 -5.33301 24 -18.333 24 -39c0 -24 -12.5 -45.833 -37.5 -65.5s-59.167 -35.167 -102.5 -46.5l-15 14c25.333 6.66699 46.666 17.334 63.999 32.001c18.667 14.667 28 27.334 28 38.001c0 12 -9.33301 25.333 -28 40l62 73
c-48.667 1.33301 -86.334 16.833 -113.001 46.5s-40 70.5 -40 122.5c0 66.667 13.833 132.5 41.5 197.5s66.5 122.167 116.5 171.5c45.333 45.333 92.5 80.333 141.5 105s95.833 37 140.5 37c36.667 0 64.667 -8.16699 84 -24.5s31.333 -42.166 36 -77.499l-76 -65
c-3.33301 40.667 -12.833 70.667 -28.5 90s-38.834 29 -69.501 29c-49.333 0 -97.5 -20.5 -144.5 -61.5s-85 -94.5 -114 -160.5s-43.5 -133.667 -43.5 -203c0 -48.667 11.833 -87.334 35.5 -116.001s55.834 -43 96.501 -43c68 0 146.667 30.667 236 92l-7 -31
c-32.667 -26 -73.167 -49.333 -121.5 -70s-91.833 -33 -130.5 -37z" />
    <glyph glyph-name="Egrave" unicode="&#xc8;" horiz-adv-x="634" 
d="M371 314l183 -0.00488281l-39 -29c-3.33301 0 -8.33301 -0.166992 -15 -0.5s-11 -0.833008 -13 -1.5c-2 0 -4.83301 -0.166992 -8.5 -0.5s-9 -0.666016 -16 -0.999023s-13.5 -0.5 -19.5 -0.5c-8 -0.666992 -19.333 -1.5 -34 -2.5l-49 -3.5
c-18 -70 -32.833 -115 -44.5 -135s-42.5 -52.667 -92.5 -98h266c49.333 0 80.333 2.5 93 7.5s19 17.167 19 36.5c0 6.66699 -1.33301 19.667 -4 39l78 29c2.66699 -10 4 -18 4 -24c0 -22 -21.667 -52 -65 -90c-23.333 -21.333 -41.333 -34.666 -54 -39.999
s-32.334 -8 -59.001 -8c-30 0 -86.333 1.33301 -169 4c-32 1.33301 -59.333 2 -82 2l-92 1c-19.333 0 -38.666 0.333008 -57.999 1l39 34c42 10 70 25.333 84 46s30.667 70.334 50 149.001c2 6 6 19.667 12 41h-29c11.333 14 24.666 28.667 39.999 44l57 231
c-70 -2 -120.167 -12 -150.5 -30s-45.5 -47 -45.5 -87c0 -24.667 4.33301 -53 13 -85l-74 -49c-12 30.667 -18 58.334 -18 83.001c0 51.333 24.667 96.333 74 135c55.333 44 128.333 66.333 219 67l71 21l-6 -21l219 4c16.667 -5.33301 26.334 -18.666 29.001 -39.999
l-68 -68c-13.333 34 -24 55 -32 63s-22 12 -42 12c-10.667 0 -37.667 -1 -81 -3h-32zM443 830.995l16.999 9.00195c22.667 -60.667 43.667 -125.334 63 -194.001c-13.333 -3.33301 -21.666 -5.33301 -24.999 -6c-30.667 67.333 -59 125.666 -85 174.999l13 7z" />
    <glyph glyph-name="Eacute" unicode="&#xc9;" horiz-adv-x="634" 
d="M371 314l183 -0.00488281l-39 -29c-3.33301 0 -8.33301 -0.166992 -15 -0.5s-11 -0.833008 -13 -1.5c-2 0 -4.83301 -0.166992 -8.5 -0.5s-9 -0.666016 -16 -0.999023s-13.5 -0.5 -19.5 -0.5c-8 -0.666992 -19.333 -1.5 -34 -2.5l-49 -3.5
c-18 -70 -32.833 -115 -44.5 -135s-42.5 -52.667 -92.5 -98h266c49.333 0 80.333 2.5 93 7.5s19 17.167 19 36.5c0 6.66699 -1.33301 19.667 -4 39l78 29c2.66699 -10 4 -18 4 -24c0 -22 -21.667 -52 -65 -90c-23.333 -21.333 -41.333 -34.666 -54 -39.999
s-32.334 -8 -59.001 -8c-30 0 -86.333 1.33301 -169 4c-32 1.33301 -59.333 2 -82 2l-92 1c-19.333 0 -38.666 0.333008 -57.999 1l39 34c42 10 70 25.333 84 46s30.667 70.334 50 149.001c2 6 6 19.667 12 41h-29c11.333 14 24.666 28.667 39.999 44l57 231
c-70 -2 -120.167 -12 -150.5 -30s-45.5 -47 -45.5 -87c0 -24.667 4.33301 -53 13 -85l-74 -49c-12 30.667 -18 58.334 -18 83.001c0 51.333 24.667 96.333 74 135c55.333 44 128.333 66.333 219 67l71 21l-6 -21l219 4c16.667 -5.33301 26.334 -18.666 29.001 -39.999
l-68 -68c-13.333 34 -24 55 -32 63s-22 12 -42 12c-10.667 0 -37.667 -1 -81 -3h-32zM456 639.995l-25 6.99902c29.333 38 76.333 102.333 141 193l46 -22c-65.333 -67.333 -119.333 -126.666 -162 -177.999z" />
    <glyph glyph-name="Ecircumflex" unicode="&#xca;" horiz-adv-x="634" 
d="M371 314l183 -0.00488281l-39 -29c-3.33301 0 -8.33301 -0.166992 -15 -0.5s-11 -0.833008 -13 -1.5c-2 0 -4.83301 -0.166992 -8.5 -0.5s-9 -0.666016 -16 -0.999023s-13.5 -0.5 -19.5 -0.5c-8 -0.666992 -19.333 -1.5 -34 -2.5l-49 -3.5
c-18 -70 -32.833 -115 -44.5 -135s-42.5 -52.667 -92.5 -98h266c49.333 0 80.333 2.5 93 7.5s19 17.167 19 36.5c0 6.66699 -1.33301 19.667 -4 39l78 29c2.66699 -10 4 -18 4 -24c0 -22 -21.667 -52 -65 -90c-23.333 -21.333 -41.333 -34.666 -54 -39.999
s-32.334 -8 -59.001 -8c-30 0 -86.333 1.33301 -169 4c-32 1.33301 -59.333 2 -82 2l-92 1c-19.333 0 -38.666 0.333008 -57.999 1l39 34c42 10 70 25.333 84 46s30.667 70.334 50 149.001c2 6 6 19.667 12 41h-29c11.333 14 24.666 28.667 39.999 44l57 231
c-70 -2 -120.167 -12 -150.5 -30s-45.5 -47 -45.5 -87c0 -24.667 4.33301 -53 13 -85l-74 -49c-12 30.667 -18 58.334 -18 83.001c0 51.333 24.667 96.333 74 135c55.333 44 128.333 66.333 219 67l71 21l-6 -21l219 4c16.667 -5.33301 26.334 -18.666 29.001 -39.999
l-68 -68c-13.333 34 -24 55 -32 63s-22 12 -42 12c-10.667 0 -37.667 -1 -81 -3h-32zM375 648.995l-0.999023 9.99902c0 1.33301 -0.666992 4.66602 -2 9.99902c78 78.667 137 135.334 177 170.001c2.66699 0.666992 5.5 1.16699 8.5 1.5s4.83301 0.5 5.5 0.5
c1.33301 0 6 -0.666992 14 -2c1.33301 -20 2.66602 -38.667 3.99902 -56s2 -27.666 2 -30.999l8 -92c-8 -4 -20.333 -10.667 -37 -20l-3 24l-6 48l-11 65c-28.667 -22 -53.667 -42.333 -75 -61l-83 -76z" />
    <glyph glyph-name="Edieresis" unicode="&#xcb;" horiz-adv-x="634" 
d="M371 314l183 -0.00488281l-39 -29c-3.33301 0 -8.33301 -0.166992 -15 -0.5s-11 -0.833008 -13 -1.5c-2 0 -4.83301 -0.166992 -8.5 -0.5s-9 -0.666016 -16 -0.999023s-13.5 -0.5 -19.5 -0.5c-8 -0.666992 -19.333 -1.5 -34 -2.5l-49 -3.5
c-18 -70 -32.833 -115 -44.5 -135s-42.5 -52.667 -92.5 -98h266c49.333 0 80.333 2.5 93 7.5s19 17.167 19 36.5c0 6.66699 -1.33301 19.667 -4 39l78 29c2.66699 -10 4 -18 4 -24c0 -22 -21.667 -52 -65 -90c-23.333 -21.333 -41.333 -34.666 -54 -39.999
s-32.334 -8 -59.001 -8c-30 0 -86.333 1.33301 -169 4c-32 1.33301 -59.333 2 -82 2l-92 1c-19.333 0 -38.666 0.333008 -57.999 1l39 34c42 10 70 25.333 84 46s30.667 70.334 50 149.001c2 6 6 19.667 12 41h-29c11.333 14 24.666 28.667 39.999 44l57 231
c-70 -2 -120.167 -12 -150.5 -30s-45.5 -47 -45.5 -87c0 -24.667 4.33301 -53 13 -85l-74 -49c-12 30.667 -18 58.334 -18 83.001c0 51.333 24.667 96.333 74 135c55.333 44 128.333 66.333 219 67l71 21l-6 -21l219 4c16.667 -5.33301 26.334 -18.666 29.001 -39.999
l-68 -68c-13.333 34 -24 55 -32 63s-22 12 -42 12c-10.667 0 -37.667 -1 -81 -3h-32zM560 665.995c-18.667 26.667 -31.667 50.334 -39 71.001l25 18l32 25c8 6.66699 12.667 10.667 14 12l14 -35c5.33301 -10.667 12.333 -22.334 21 -35.001l-33 -26
c-4 -3.33301 -15.333 -13.333 -34 -30zM424 665.995c-19.333 27.333 -32.333 51.001 -39 71.001c20.667 14.667 39.334 29 56.001 43c4.66699 2.66699 9.66699 6.66699 15 12c9.33301 -21.333 14.333 -33 15 -35c5.33301 -10.667 11.666 -22.334 18.999 -35.001l-32 -26z
" />
    <glyph glyph-name="Igrave" unicode="&#xcc;" horiz-adv-x="389" 
d="M83 0l37 26.001l60 7c9.33301 32 14.666 50 15.999 54l80 315l22 84c0 2 1.83301 10.667 5.5 26s6.83398 29.666 9.50098 42.999l-92 6l36 26c38.667 -0.666992 65 -1 79 -1c11.333 0 52 0.333008 122 1h35l-36 -26l-60 -6c-57.333 -211.333 -101.333 -385.333 -132 -522
l95 -7l-36 -26l-160 1c-9.33301 0 -36.333 -0.333008 -81 -1zM342 831.001l16.002 9.00195c21.333 -58.667 42.666 -123.334 63.999 -194.001c-12.667 -3.33301 -21.334 -5.33301 -26.001 -6c-36.667 81.333 -65 139.666 -85 174.999l14 7z" />
    <glyph glyph-name="Iacute" unicode="&#xcd;" horiz-adv-x="389" 
d="M83 0l37 26.001l60 7c9.33301 32 14.666 50 15.999 54l80 315l22 84c0 2 1.83301 10.667 5.5 26s6.83398 29.666 9.50098 42.999l-92 6l36 26c38.667 -0.666992 65 -1 79 -1c11.333 0 52 0.333008 122 1h35l-36 -26l-60 -6c-57.333 -211.333 -101.333 -385.333 -132 -522
l95 -7l-36 -26l-160 1c-9.33301 0 -36.333 -0.333008 -81 -1zM319 640.001l-24.001 7c29.333 38 76.333 102.333 141 193l46 -22c-59.333 -60.667 -113.666 -120 -162.999 -178z" />
    <glyph glyph-name="Icircumflex" unicode="&#xce;" horiz-adv-x="389" 
d="M83 0l37 26.001l60 7c9.33301 32 14.666 50 15.999 54l80 315l22 84c0 2 1.83301 10.667 5.5 26s6.83398 29.666 9.50098 42.999l-92 6l36 26c38.667 -0.666992 65 -1 79 -1c11.333 0 52 0.333008 122 1h35l-36 -26l-60 -6c-57.333 -211.333 -101.333 -385.333 -132 -522
l95 -7l-36 -26l-160 1c-9.33301 0 -36.333 -0.333008 -81 -1zM283 649.001l-0.999023 9.99902c0 1.33301 -0.666992 4.66602 -2 9.99902c78 78.667 137 135.334 177 170.001c2.66699 0.666992 5.5 1.16699 8.5 1.5s4.83301 0.5 5.5 0.5c2 0 6.33301 -0.666992 13 -2
c1.33301 -20 2.66602 -38.667 3.99902 -56s2 -27.666 2 -30.999l9 -92c-6 -2.66699 -18.333 -9.33398 -37 -20.001l-3 24l-6 48l-12 65c-30 -23.333 -54.667 -43.666 -74 -60.999l-83 -76z" />
    <glyph glyph-name="Idieresis" unicode="&#xcf;" horiz-adv-x="389" 
d="M83 0l37 26.001l60 7c9.33301 32 14.666 50 15.999 54l80 315l22 84c0 2 1.83301 10.667 5.5 26s6.83398 29.666 9.50098 42.999l-92 6l36 26c38.667 -0.666992 65 -1 79 -1c11.333 0 52 0.333008 122 1h35l-36 -26l-60 -6c-57.333 -211.333 -101.333 -385.333 -132 -522
l95 -7l-36 -26l-160 1c-9.33301 0 -36.333 -0.333008 -81 -1zM426 666.001c-18 24 -31 47.6689 -39 71.002c12.667 9.33301 21 15.333 25 18c4.66699 3.33301 15 11.666 31 24.999c7.33301 5.33301 12.333 9.33301 15 12l14 -35c5.33301 -10.667 12.333 -22.334 21 -35.001
l-33 -26c-4 -3.33301 -15.333 -13.333 -34 -30zM290 666.003c-19.333 27.333 -32.333 51.001 -39 71.001c20.667 14.667 39.334 29 56.001 43c1.33301 0.666992 6.33301 4.66699 15 12c9.33301 -21.333 14.333 -33 15 -35c5.33301 -10.667 11.666 -22.334 18.999 -35.001
l-32 -26z" />
    <glyph glyph-name="Eth" unicode="&#xd0;" horiz-adv-x="716" 
d="M314 258l8.99902 31.999c-23.333 0.666992 -36.333 1 -39 1c-4 0 -24 -0.666992 -60 -2c10 6.66699 17 11 21 13c8 5.33301 15.667 9.66602 23 12.999c6.66699 6.66699 11.334 11 14.001 13c10 -0.666992 26.333 -1.33398 49 -2.00098l60 238
c-71.333 -7.33301 -125.666 -28.666 -162.999 -63.999s-56 -83.666 -56 -144.999c0 -16.667 2.33301 -35.667 7 -57l-84 -38c-4.66699 24 -7 43 -7 57c0 88 43 159.333 129 214c50.667 32.667 114.667 55 192 67l73 32l-7 -30c90.667 -4.66699 156 -16 196 -34
c70.667 -30 106 -81 106 -153c0 -44 -8.33301 -90.333 -25 -139s-38 -89 -64 -121c-20 -24.667 -49 -49.167 -87 -73.5s-77.667 -43.166 -119 -56.499c-26.667 -10 -56 -16.333 -88 -19s-90.667 -4 -176 -4h-130l49 47c55.333 4 93.666 18.667 114.999 44s42 81 62 167z
M537.999 289.999h-141.001c-16.667 -62 -32.167 -104.667 -46.5 -128s-49.166 -60.666 -104.499 -111.999l131 -4h15c52.667 0 95.5 6.83301 128.5 20.5s62.167 36.5 87.5 68.5c23.333 29.333 42.5 68.166 57.5 116.499s22.5 94.833 22.5 139.5c0 34.667 -7 65.5 -21 92.5
s-33.667 46.833 -59 59.5c-27.333 14.667 -74.333 23 -141 25l-61 -242h38c36 0 60.333 0.333008 73 1c16.667 0.666992 38 1 64 1z" />
    <glyph glyph-name="Ntilde" unicode="&#xd1;" horiz-adv-x="716" 
d="M41 0l48.999 71.001c26 -2.66699 47.333 -4 64 -4c26.667 0 47 3.5 61 10.5s26.333 19.833 37 38.5c32.667 58 73 189.667 121 395c-26 1.33301 -52.333 2 -79 2c-42.667 0 -74.334 -5.66699 -95.001 -17c-30.667 -16.667 -46 -41.334 -46 -74.001
c0 -22.667 10.667 -57.334 32 -104.001l-70 -48c-17.333 34.667 -26 64.667 -26 90c0 28.667 10.167 59.667 30.5 93s47.166 63 80.499 89c35.333 26.667 80.333 40 135 40c13.333 0 32 -1 56 -3l35 31c54 -201.333 89.833 -329.833 107.5 -385.5
s38.834 -108.167 63.501 -157.5c7.33301 25.333 12.333 44.666 15 57.999c12.667 50.667 23.667 99 33 145c24.667 110.667 44.334 186.334 59.001 227.001s34.334 75.334 59.001 104.001c51.333 61.333 98.666 92 141.999 92c5.33301 0 16 -0.666992 32 -2l-38 -68
c-9.33301 1.33301 -18.666 2 -27.999 2c-23.333 0 -41.833 -4.5 -55.5 -13.5s-26.167 -24.5 -37.5 -46.5c-16 -32.667 -30.833 -71.167 -44.5 -115.5s-31.834 -112.166 -54.501 -203.499c-21.333 -90 -38.666 -168.667 -51.999 -236c52 -99.333 110.667 -149 176 -149
c27.333 0 50.333 12 69 36c10.667 11.333 22.334 32.333 35.001 63l25 -91c-40.667 -24 -85.667 -36 -135 -36c-120 0 -211.333 63.333 -274 190c-31.333 61.333 -61 151.666 -89 270.999l-38 159c-32 -130 -54 -211.333 -66 -244
c-36.667 -94.667 -81.334 -158 -134.001 -190c-24.667 -14.667 -57.667 -22 -99 -22c-9.33301 0 -28 1 -56 3zM476.999 671.001l-13 18c24.667 34 44.667 57.333 60 70s31 19 47 19c17.333 0 40.666 -8.33301 69.999 -25c24 -14 44 -21 60 -21c24.667 0 50 12.667 76 38
c3.33301 4 8.33301 8.33301 15 13l10 -17c-28 -34.667 -49 -57.5 -63 -68.5s-29 -16.5 -45 -16.5c-11.333 0 -22.333 2 -33 6s-28.667 13.333 -54 28c-18.667 11.333 -35.667 17 -51 17c-12.667 0 -24.167 -4 -34.5 -12s-25.166 -24.333 -44.499 -49z" />
    <glyph glyph-name="Ograve" unicode="&#xd2;" horiz-adv-x="614" 
d="M499 605c54.667 0 96.5 -16.998 125.5 -50.998s43.5 -83.333 43.5 -148c0 -126.667 -38.333 -227.334 -115 -302.001c-38.667 -36.667 -82 -65.334 -130 -86.001s-95.333 -31 -142 -31c-57.333 0 -100.833 17 -130.5 51s-44.5 83.667 -44.5 149
c0 64 11.167 123.5 33.5 178.5s53.833 100.5 94.5 136.5c35.333 30 77.833 54.667 127.5 74s95.5 29 137.5 29zM439 565.002c-69.333 0 -128.166 -32.667 -176.499 -98s-72.5 -145.333 -72.5 -240c0 -62.667 13.167 -111.5 39.5 -146.5s63.166 -52.5 110.499 -52.5
c38 0 73.5 10.667 106.5 32s60.5 51.666 82.5 90.999c36.667 64.667 55 139.334 55 224.001c0 59.333 -12.833 105.833 -38.5 139.5s-61.167 50.5 -106.5 50.5zM436 831.002l17.001 9.00098c25.333 -70 46.333 -134.667 63 -194
c-12.667 -3.33301 -21.334 -5.33301 -26.001 -6c-35.333 77.333 -63.333 135.666 -84 174.999l13 7z" />
    <glyph glyph-name="Oacute" unicode="&#xd3;" horiz-adv-x="614" 
d="M499 605c54.667 0 96.5 -16.998 125.5 -50.998s43.5 -83.333 43.5 -148c0 -126.667 -38.333 -227.334 -115 -302.001c-38.667 -36.667 -82 -65.334 -130 -86.001s-95.333 -31 -142 -31c-57.333 0 -100.833 17 -130.5 51s-44.5 83.667 -44.5 149
c0 64 11.167 123.5 33.5 178.5s53.833 100.5 94.5 136.5c35.333 30 77.833 54.667 127.5 74s95.5 29 137.5 29zM439 565.002c-69.333 0 -128.166 -32.667 -176.499 -98s-72.5 -145.333 -72.5 -240c0 -62.667 13.167 -111.5 39.5 -146.5s63.166 -52.5 110.499 -52.5
c38 0 73.5 10.667 106.5 32s60.5 51.666 82.5 90.999c36.667 64.667 55 139.334 55 224.001c0 59.333 -12.833 105.833 -38.5 139.5s-61.167 50.5 -106.5 50.5zM443 640.002l-24.001 7c29.333 38 76.333 102.333 141 193l46 -22
c-59.333 -60.667 -113.666 -120 -162.999 -178z" />
    <glyph glyph-name="Ocircumflex" unicode="&#xd4;" horiz-adv-x="614" 
d="M499 605c54.667 0 96.5 -16.998 125.5 -50.998s43.5 -83.333 43.5 -148c0 -126.667 -38.333 -227.334 -115 -302.001c-38.667 -36.667 -82 -65.334 -130 -86.001s-95.333 -31 -142 -31c-57.333 0 -100.833 17 -130.5 51s-44.5 83.667 -44.5 149
c0 64 11.167 123.5 33.5 178.5s53.833 100.5 94.5 136.5c35.333 30 77.833 54.667 127.5 74s95.5 29 137.5 29zM439 565.002c-69.333 0 -128.166 -32.667 -176.499 -98s-72.5 -145.333 -72.5 -240c0 -62.667 13.167 -111.5 39.5 -146.5s63.166 -52.5 110.499 -52.5
c38 0 73.5 10.667 106.5 32s60.5 51.666 82.5 90.999c36.667 64.667 55 139.334 55 224.001c0 59.333 -12.833 105.833 -38.5 139.5s-61.167 50.5 -106.5 50.5zM371 649.002l-1 10c0 1.33301 -0.666992 4.66602 -2 9.99902c78 78.667 137 135.334 177 170.001
c2.66699 0.666992 5.5 1.16699 8.5 1.5s4.83301 0.5 5.5 0.5c2 0 6.33301 -0.666992 13 -2c2 -22 3.66699 -42 5 -60l2 -27l8 -92c-6 -2.66699 -18.333 -9.33398 -37 -20.001l-3 24l-6 48l-12 65c-30 -23.333 -54.667 -43.666 -74 -60.999l-83 -76z" />
    <glyph glyph-name="Otilde" unicode="&#xd5;" horiz-adv-x="614" 
d="M499 605c54.667 0 96.5 -16.998 125.5 -50.998s43.5 -83.333 43.5 -148c0 -126.667 -38.333 -227.334 -115 -302.001c-38.667 -36.667 -82 -65.334 -130 -86.001s-95.333 -31 -142 -31c-57.333 0 -100.833 17 -130.5 51s-44.5 83.667 -44.5 149
c0 64 11.167 123.5 33.5 178.5s53.833 100.5 94.5 136.5c35.333 30 77.833 54.667 127.5 74s95.5 29 137.5 29zM439 565.002c-69.333 0 -128.166 -32.667 -176.499 -98s-72.5 -145.333 -72.5 -240c0 -62.667 13.167 -111.5 39.5 -146.5s63.166 -52.5 110.499 -52.5
c38 0 73.5 10.667 106.5 32s60.5 51.666 82.5 90.999c36.667 64.667 55 139.334 55 224.001c0 59.333 -12.833 105.833 -38.5 139.5s-61.167 50.5 -106.5 50.5zM370 671.002l-14.002 18.001c25.333 34.667 45.5 58.167 60.5 70.5s30.833 18.5 47.5 18.5
c17.333 0 40.666 -8.33301 69.999 -25c22.667 -14 42.667 -21 60 -21c23.333 0 48.666 12.667 75.999 38c2.66699 3.33301 7.33398 7.66602 14.001 12.999l10 -17c-27.333 -34 -48.166 -56.667 -62.499 -68s-29.166 -17 -44.499 -17c-12 0 -23 2 -33 6s-28 13.333 -54 28
c-20 11.333 -37 17 -51 17c-12.667 0 -24.167 -4 -34.5 -12s-25.166 -24.333 -44.499 -49z" />
    <glyph glyph-name="Odieresis" unicode="&#xd6;" horiz-adv-x="614" 
d="M499 605c54.667 0 96.5 -16.998 125.5 -50.998s43.5 -83.333 43.5 -148c0 -126.667 -38.333 -227.334 -115 -302.001c-38.667 -36.667 -82 -65.334 -130 -86.001s-95.333 -31 -142 -31c-57.333 0 -100.833 17 -130.5 51s-44.5 83.667 -44.5 149
c0 64 11.167 123.5 33.5 178.5s53.833 100.5 94.5 136.5c35.333 30 77.833 54.667 127.5 74s95.5 29 137.5 29zM439 565.002c-69.333 0 -128.166 -32.667 -176.499 -98s-72.5 -145.333 -72.5 -240c0 -62.667 13.167 -111.5 39.5 -146.5s63.166 -52.5 110.499 -52.5
c38 0 73.5 10.667 106.5 32s60.5 51.666 82.5 90.999c36.667 64.667 55 139.334 55 224.001c0 59.333 -12.833 105.833 -38.5 139.5s-61.167 50.5 -106.5 50.5zM550 666.002c-18 24 -31 47.6689 -39 71.002c12.667 9.33301 21 15.333 25 18
c4.66699 3.33301 15 11.666 31 24.999c1.33301 1.33301 3.83301 3.33301 7.5 6s6.16699 4.66699 7.5 6l14 -35c5.33301 -10.667 12 -22.334 20 -35.001l-32 -26c-6 -4 -17.333 -14 -34 -30zM414 666.004c-19.333 27.333 -32.332 51.001 -38.999 71.001l56 43
c3.33301 2 8 6 14 12l8.5 -19c2.33301 -5.33301 4 -8.83301 5 -10.5s1.83301 -3.5 2.5 -5.5c5.33301 -10.667 11.666 -22.334 18.999 -35.001c-8 -6 -15 -11.5 -21 -16.5s-10 -8.16699 -12 -9.5z" />
    <glyph glyph-name="multiply" unicode="&#xd7;" horiz-adv-x="532" 
d="M315 263l171 171l39 -39l-171 -171l171 -171l-39 -39l-171 171l-171 -171l-39 39l171 171l-171 171l39 39z" />
    <glyph glyph-name="Oslash" unicode="&#xd8;" horiz-adv-x="675" 
d="M721 684l3.00195 -11.998l-82 -104c37.333 -38 56 -92 56 -162c0 -126.667 -38 -227.334 -114 -302.001c-38.667 -36.667 -82.334 -65.334 -131.001 -86.001s-96.667 -31 -144 -31c-28 0 -57.667 6.66699 -89 20c-21.333 -28.667 -53.333 -76 -96 -142
c-5.33301 16.667 -9 33.334 -11 50.001c17.333 28.667 43.333 66 78 112c-36 38 -54 91 -54 159c0 65.333 11.167 125.166 33.5 179.499s54.166 99.5 95.499 135.5c36 31.333 78.333 56.5 127 75.5s96 28.5 142 28.5c28 0 55.333 -6.66699 82 -20l98 122l3 -12z
M247.002 101.002l156.001 204l167 217c-24.667 28.667 -58.334 43 -101.001 43c-69.333 0 -128 -32.667 -176 -98s-72 -145.333 -72 -240c0 -53.333 8.66699 -95.333 26 -126zM588.003 498.002l-320.999 -426.001c27.333 -29.333 62 -44 104 -44
c37.333 0 72.666 10.833 105.999 32.5s61 51.834 83 90.501c36 63.333 54 138 54 224c0 49.333 -8.66699 90.333 -26 123z" />
    <glyph glyph-name="Ugrave" unicode="&#xd9;" horiz-adv-x="757" 
d="M637 546l28 25.002c48 5.33301 92 11 132 17c-82 -294.667 -123 -468.334 -123 -521.001c0 -12.667 2.83301 -21.667 8.5 -27s15.5 -8 29.5 -8c21.333 0 45.666 1.33301 72.999 4l-21 -26c-70.667 -16 -122.667 -24 -156 -24c-18.667 0 -28 7.33301 -28 22
c0 8 2.66699 25 8 51c-112 -48 -194 -72 -246 -72c-34 0 -61.333 11.5 -82 34.5s-31 53.167 -31 90.5c0 46.667 13.167 101.167 39.5 163.5s68.833 139.833 127.5 232.5c-37.333 12.667 -69.333 19 -96 19c-33.333 0 -61.333 -9.33301 -84 -28s-34 -42 -34 -70
c0 -23.333 11.667 -57 35 -101l-69 -56c-19.333 41.333 -29 74.666 -29 99.999c0 28 9.5 57.833 28.5 89.5s44.833 60.167 77.5 85.5c34 26 75 39 123 39c15.333 0 46.666 -4 93.999 -12l11 5c14 6.66699 24.333 11 31 13l6 -8c-52 -70.667 -94.5 -146.167 -127.5 -226.5
s-49.5 -148.833 -49.5 -205.5c0 -36 8.66699 -64.667 26 -86s40.666 -32 69.999 -32c26.667 0 52.834 4.16699 78.501 12.5s59.834 23.833 102.501 46.5l10.5 41c3.66699 14.667 5.83398 23 6.50098 25l62 248l25 103c2 11.333 4.66699 23 8 35c-22 1.33301 -37.667 2 -47 2
c-6.66699 0 -12.667 -0.333008 -18 -1zM569 831.002l16.999 9.00098c25.333 -70 46.333 -134.667 63 -194c-13.333 -3.33301 -21.666 -5.33301 -24.999 -6c-30.667 67.333 -59 125.666 -85 174.999l13 7z" />
    <glyph glyph-name="Uacute" unicode="&#xda;" horiz-adv-x="757" 
d="M637 546l28 25.002c48 5.33301 92 11 132 17c-82 -294.667 -123 -468.334 -123 -521.001c0 -12.667 2.83301 -21.667 8.5 -27s15.5 -8 29.5 -8c21.333 0 45.666 1.33301 72.999 4l-21 -26c-70.667 -16 -122.667 -24 -156 -24c-18.667 0 -28 7.33301 -28 22
c0 8 2.66699 25 8 51c-112 -48 -194 -72 -246 -72c-34 0 -61.333 11.5 -82 34.5s-31 53.167 -31 90.5c0 46.667 13.167 101.167 39.5 163.5s68.833 139.833 127.5 232.5c-37.333 12.667 -69.333 19 -96 19c-33.333 0 -61.333 -9.33301 -84 -28s-34 -42 -34 -70
c0 -23.333 11.667 -57 35 -101l-69 -56c-19.333 41.333 -29 74.666 -29 99.999c0 28 9.5 57.833 28.5 89.5s44.833 60.167 77.5 85.5c34 26 75 39 123 39c15.333 0 46.666 -4 93.999 -12l11 5c14 6.66699 24.333 11 31 13l6 -8c-52 -70.667 -94.5 -146.167 -127.5 -226.5
s-49.5 -148.833 -49.5 -205.5c0 -36 8.66699 -64.667 26 -86s40.666 -32 69.999 -32c26.667 0 52.834 4.16699 78.501 12.5s59.834 23.833 102.501 46.5l10.5 41c3.66699 14.667 5.83398 23 6.50098 25l62 248l25 103c2 11.333 4.66699 23 8 35c-22 1.33301 -37.667 2 -47 2
c-6.66699 0 -12.667 -0.333008 -18 -1zM579 640.002l-25 6.99902c29.333 38 76.333 102.333 141 193l46 -22c-65.333 -67.333 -119.333 -126.666 -162 -177.999z" />
    <glyph glyph-name="Ucircumflex" unicode="&#xdb;" horiz-adv-x="757" 
d="M637 546l28 25.002c48 5.33301 92 11 132 17c-82 -294.667 -123 -468.334 -123 -521.001c0 -12.667 2.83301 -21.667 8.5 -27s15.5 -8 29.5 -8c21.333 0 45.666 1.33301 72.999 4l-21 -26c-70.667 -16 -122.667 -24 -156 -24c-18.667 0 -28 7.33301 -28 22
c0 8 2.66699 25 8 51c-112 -48 -194 -72 -246 -72c-34 0 -61.333 11.5 -82 34.5s-31 53.167 -31 90.5c0 46.667 13.167 101.167 39.5 163.5s68.833 139.833 127.5 232.5c-37.333 12.667 -69.333 19 -96 19c-33.333 0 -61.333 -9.33301 -84 -28s-34 -42 -34 -70
c0 -23.333 11.667 -57 35 -101l-69 -56c-19.333 41.333 -29 74.666 -29 99.999c0 28 9.5 57.833 28.5 89.5s44.833 60.167 77.5 85.5c34 26 75 39 123 39c15.333 0 46.666 -4 93.999 -12l11 5c14 6.66699 24.333 11 31 13l6 -8c-52 -70.667 -94.5 -146.167 -127.5 -226.5
s-49.5 -148.833 -49.5 -205.5c0 -36 8.66699 -64.667 26 -86s40.666 -32 69.999 -32c26.667 0 52.834 4.16699 78.501 12.5s59.834 23.833 102.501 46.5l10.5 41c3.66699 14.667 5.83398 23 6.50098 25l62 248l25 103c2 11.333 4.66699 23 8 35c-22 1.33301 -37.667 2 -47 2
c-6.66699 0 -12.667 -0.333008 -18 -1zM490 649.002l-0.999023 9.99902c0 1.33301 -0.666992 4.66602 -2 9.99902c78.667 78.667 138 135.334 178 170.001c2.66699 0.666992 5.5 1.16699 8.5 1.5s4.83301 0.5 5.5 0.5c2 0 6.33301 -0.666992 13 -2
c1.33301 -20 2.66602 -38.667 3.99902 -56s2 -27.666 2 -30.999l9 -92c-6 -2.66699 -18.333 -9.33398 -37 -20.001l-3 24l-7 48l-11 65c-20 -15.333 -45 -35.666 -75 -60.999l-82 -76z" />
    <glyph glyph-name="Udieresis" unicode="&#xdc;" horiz-adv-x="757" 
d="M637 546l28 25.002c48 5.33301 92 11 132 17c-82 -294.667 -123 -468.334 -123 -521.001c0 -12.667 2.83301 -21.667 8.5 -27s15.5 -8 29.5 -8c21.333 0 45.666 1.33301 72.999 4l-21 -26c-70.667 -16 -122.667 -24 -156 -24c-18.667 0 -28 7.33301 -28 22
c0 8 2.66699 25 8 51c-112 -48 -194 -72 -246 -72c-34 0 -61.333 11.5 -82 34.5s-31 53.167 -31 90.5c0 46.667 13.167 101.167 39.5 163.5s68.833 139.833 127.5 232.5c-37.333 12.667 -69.333 19 -96 19c-33.333 0 -61.333 -9.33301 -84 -28s-34 -42 -34 -70
c0 -23.333 11.667 -57 35 -101l-69 -56c-19.333 41.333 -29 74.666 -29 99.999c0 28 9.5 57.833 28.5 89.5s44.833 60.167 77.5 85.5c34 26 75 39 123 39c15.333 0 46.666 -4 93.999 -12l11 5c14 6.66699 24.333 11 31 13l6 -8c-52 -70.667 -94.5 -146.167 -127.5 -226.5
s-49.5 -148.833 -49.5 -205.5c0 -36 8.66699 -64.667 26 -86s40.666 -32 69.999 -32c26.667 0 52.834 4.16699 78.501 12.5s59.834 23.833 102.501 46.5l10.5 41c3.66699 14.667 5.83398 23 6.50098 25l62 248l25 103c2 11.333 4.66699 23 8 35c-22 1.33301 -37.667 2 -47 2
c-6.66699 0 -12.667 -0.333008 -18 -1zM683 666.002c-18 24 -31 47.6689 -39 71.002l25 18c4.66699 3.33301 15 11.666 31 24.999l15 12l14 -35c5.33301 -10.667 12.333 -22.334 21 -35.001l-33 -26c-4 -3.33301 -15.333 -13.333 -34 -30zM547 666.004
c-19.333 27.333 -32.333 51.001 -39 71.001c20.667 14.667 39.334 29 56.001 43c1.33301 0.666992 6.33301 4.66699 15 12c9.33301 -21.333 14.333 -33 15 -35c5.33301 -10.667 11.666 -22.334 18.999 -35.001l-32 -26z" />
    <glyph glyph-name="Yacute" unicode="&#xdd;" horiz-adv-x="573" 
d="M32 -154l36.002 75.999c39.333 -2.66699 64 -4 74 -4c44 0 79.5 5.83301 106.5 17.5s49.833 30.834 68.5 57.501c28 38.667 51.667 84.667 71 138c13.333 38.667 20 82 20 130c0 83.333 -13.333 149.166 -40 197.499s-62.667 72.5 -108 72.5
c-31.333 0 -57.833 -12.333 -79.5 -37s-32.5 -55 -32.5 -91c0 -24 7 -58.333 21 -103l-78 -49c-14 32 -21 63 -21 93c0 58.667 28.167 114.334 84.5 167.001s115.166 79 176.499 79c43.333 0 77.666 -19.5 102.999 -58.5s38 -92.167 38 -159.5
c0 -31.333 -3.66699 -69 -11 -113c68 141.333 121.333 237.333 160 288s78.334 76 119.001 76c15.333 0 29 -5.66699 41 -17l-28 -75c-20.667 8.66699 -38 13 -52 13c-28.667 0 -57.334 -20 -86.001 -60c-22 -32.667 -70.667 -125 -146 -277
c-50.667 -102 -91.667 -177.5 -123 -226.5s-59.666 -81.833 -84.999 -98.5c-38.667 -25.333 -99.334 -38 -182.001 -38c-18 0 -33.667 0.666992 -47 2zM535.002 639.999l-25 6.99902c29.333 38 76.333 102.333 141 193l46 -22c-60 -61.333 -114 -120.666 -162 -177.999z" />
    <glyph glyph-name="Thorn" unicode="&#xde;" horiz-adv-x="552" 
d="M349 547l-70.998 0.00195312h-105l43 42h228c61.333 0 118.666 3.33301 171.999 10l-3 -10c-34.667 -16.667 -62.5 -27.334 -83.5 -32.001s-54.833 -7.66699 -101.5 -9l-17 -67c19.333 0.666992 35 1 47 1c117.333 0 176 -34 176 -102
c0 -38 -10.833 -73.833 -32.5 -107.5s-51.167 -60.167 -88.5 -79.5c-59.333 -32.667 -122 -51.334 -188 -56.001l-24 -94c73.333 0.666992 130.666 3.66699 171.999 9l-3 -9c-43.333 -20.667 -81.333 -32.834 -114 -36.501s-114.667 -5.5 -246 -5.5h-72l43 42h142
c41.333 152 75.333 286.667 102 404c-34 -3.33301 -61 -8.33301 -81 -15s-38.667 -16.667 -56 -30c-40 -31.333 -60 -76 -60 -134c0 -19.333 4.33301 -45.333 13 -78l-75 -46c-11.333 30.667 -17 58.334 -17 83.001c0 65.333 25.833 120.833 77.5 166.5
s120.5 73.5 206.5 83.5zM403.002 453.002l-67.999 -275c13.333 -3.33301 25.333 -5 36 -5c50 0 91.5 18 124.5 54s49.5 81 49.5 135c0 29.333 -8.83301 52 -26.5 68s-42.834 24 -75.501 24c-16 0 -29.333 -0.333008 -40 -1z" />
    <glyph glyph-name="germandbls" unicode="&#xdf;" horiz-adv-x="430" 
d="M80 -55l81.0049 359.002c0 28.667 -11.667 50.667 -35 66c14.667 13.333 34 26 58 38c16.667 76 40 134 70 174c24.667 34 55 61.5 91 82.5s70.667 31.5 104 31.5c19.333 0 35.666 -6.66699 48.999 -20s20 -30 20 -50c0 -20.667 -6.5 -43.167 -19.5 -67.5
s-41.833 -67.833 -86.5 -130.5c-25.333 -34.667 -38 -62 -38 -82c0 -10.667 2.16699 -19.834 6.5 -27.501s16.166 -23.5 35.499 -47.5c22.667 -26.667 34 -54 34 -82c0 -22.667 -8.16699 -48 -24.5 -76s-38.166 -54.333 -65.499 -79c-26 -25.333 -69.333 -38 -130 -38
c-10.667 0 -27.334 1 -50.001 3c2 4 5 8.66699 9 14s6 8.33301 6 9c2.66699 4.66699 7.33398 11.667 14.001 21c2.66699 4 6.66699 11.333 12 22c22.667 -7.33301 45.667 -11 69 -11c28 0 51.833 8.33301 71.5 25s29.5 36.667 29.5 60s-13.333 49.666 -40 78.999
c-20.667 22.667 -34.334 39.834 -41.001 51.501s-10 24.167 -10 37.5c0 10.667 2 19.834 6 27.501s12.667 19.834 26 36.501c11.333 14 27 35.167 47 63.5s33 48.166 39 59.499c22 38 33 70.667 33 98c0 18.667 -4.83301 33.5 -14.5 44.5s-22.167 16.5 -37.5 16.5
c-20.667 0 -40.334 -8.33301 -59.001 -25s-34.334 -39.334 -47.001 -68.001c-6 -14.667 -38.333 -152.334 -97 -413.001c-24 -104 -45.667 -179 -65 -225s-46.333 -86 -81 -120c-39.333 -37.333 -82 -56 -128 -56c-12 0 -29.333 1.66699 -52 5
c4.66699 9.33301 7.66699 16 9 20c9.33301 16 14.666 25 15.999 27c2.66699 4.66699 6.66699 12.334 12 23.001c34 -11.333 58.667 -17 74 -17c23.333 0 43 11.167 59 33.5s29.333 58.166 40 107.499z" />
    <glyph glyph-name="agrave" unicode="&#xe0;" horiz-adv-x="430" 
d="M504 133l-0.998047 -30c-39.333 -28.667 -70 -50 -92 -64c-40.667 -26 -65 -41.167 -73 -45.5s-15.333 -6.5 -22 -6.5c-10.667 0 -16 7 -16 21s5 44.333 15 91c-64 -46 -107.833 -76.167 -131.5 -90.5s-41.167 -21.5 -52.5 -21.5c-12.667 0 -22.834 7.33301 -30.501 22
s-11.5 34.667 -11.5 60c0 41.333 8.66699 90.333 26 147s35.666 95.667 54.999 117c18.667 20 49.667 42.333 93 67c22 14 51.333 21 88 21c41.333 0 84.333 -5 129 -15l-29 -37c-41.333 -153.333 -62 -245.333 -62 -276c0 -13.333 4 -20 12 -20s42.333 20 103 60z
M304.002 127l20.001 13c5.33301 18.667 8.33301 30.667 9 36c1.33301 6.66699 4 18.834 8 36.501s7 31.5 9 41.5c0 1.33301 0.833008 5 2.5 11l10 36.5l16.5 58.5c-38.667 9.33301 -67.667 14 -87 14c-17.333 0 -32.333 -6 -45 -18s-25 -32 -37 -60
c-28 -62.667 -42 -122.334 -42 -179.001c0 -34 9 -51 27 -51c17.333 0 53.666 20.333 108.999 61zM331.003 662l16.001 9c21.333 -58 42.666 -122.667 63.999 -194c-4.66699 -1.33301 -13.334 -3.33301 -26.001 -6c-37.333 80.667 -65.666 138.667 -84.999 174l13 7z" />
    <glyph glyph-name="aacute" unicode="&#xe1;" horiz-adv-x="430" 
d="M504 133l-0.998047 -30c-39.333 -28.667 -70 -50 -92 -64c-40.667 -26 -65 -41.167 -73 -45.5s-15.333 -6.5 -22 -6.5c-10.667 0 -16 7 -16 21s5 44.333 15 91c-64 -46 -107.833 -76.167 -131.5 -90.5s-41.167 -21.5 -52.5 -21.5c-12.667 0 -22.834 7.33301 -30.501 22
s-11.5 34.667 -11.5 60c0 41.333 8.66699 90.333 26 147s35.666 95.667 54.999 117c18.667 20 49.667 42.333 93 67c22 14 51.333 21 88 21c41.333 0 84.333 -5 129 -15l-29 -37c-41.333 -153.333 -62 -245.333 -62 -276c0 -13.333 4 -20 12 -20s42.333 20 103 60z
M304.002 127l20.001 13c5.33301 18.667 8.33301 30.667 9 36c1.33301 6.66699 4 18.834 8 36.501s7 31.5 9 41.5c0 1.33301 0.833008 5 2.5 11l10 36.5l16.5 58.5c-38.667 9.33301 -67.667 14 -87 14c-17.333 0 -32.333 -6 -45 -18s-25 -32 -37 -60
c-28 -62.667 -42 -122.334 -42 -179.001c0 -34 9 -51 27 -51c17.333 0 53.666 20.333 108.999 61zM330.003 471l-25 6l141 194l47 -23c-64 -64.667 -118.333 -123.667 -163 -177z" />
    <glyph glyph-name="acircumflex" unicode="&#xe2;" horiz-adv-x="430" 
d="M504 133l-0.998047 -30c-39.333 -28.667 -70 -50 -92 -64c-40.667 -26 -65 -41.167 -73 -45.5s-15.333 -6.5 -22 -6.5c-10.667 0 -16 7 -16 21s5 44.333 15 91c-64 -46 -107.833 -76.167 -131.5 -90.5s-41.167 -21.5 -52.5 -21.5c-12.667 0 -22.834 7.33301 -30.501 22
s-11.5 34.667 -11.5 60c0 41.333 8.66699 90.333 26 147s35.666 95.667 54.999 117c18.667 20 49.667 42.333 93 67c22 14 51.333 21 88 21c41.333 0 84.333 -5 129 -15l-29 -37c-41.333 -153.333 -62 -245.333 -62 -276c0 -13.333 4 -20 12 -20s42.333 20 103 60z
M304.002 127l20.001 13c5.33301 18.667 8.33301 30.667 9 36c1.33301 6.66699 4 18.834 8 36.501s7 31.5 9 41.5c0 1.33301 0.833008 5 2.5 11l10 36.5l16.5 58.5c-38.667 9.33301 -67.667 14 -87 14c-17.333 0 -32.333 -6 -45 -18s-25 -32 -37 -60
c-28 -62.667 -42 -122.334 -42 -179.001c0 -34 9 -51 27 -51c17.333 0 53.666 20.333 108.999 61zM252.003 480l-0.998047 9.99902c0 1.33301 -0.666992 4.66602 -2 9.99902c78 78.667 137 135.334 177 170.001c2.66699 0 5.5 0.333008 8.5 1s4.83301 1 5.5 1
c2.66699 0 7.33398 -0.666992 14.001 -2c1.33301 -20 2.66602 -38.667 3.99902 -56s2 -27.666 2 -30.999c1.33301 -10 2.66602 -25.167 3.99902 -45.5s2.66602 -35.5 3.99902 -45.5c-4 -2 -9.5 -5 -16.5 -9l-20.5 -12c-1.33301 14 -4.33301 38 -9 72l-11 65
c-28.667 -22 -53.667 -42.333 -75 -61l-83 -76z" />
    <glyph glyph-name="atilde" unicode="&#xe3;" horiz-adv-x="430" 
d="M504 133l-0.998047 -30c-39.333 -28.667 -70 -50 -92 -64c-40.667 -26 -65 -41.167 -73 -45.5s-15.333 -6.5 -22 -6.5c-10.667 0 -16 7 -16 21s5 44.333 15 91c-64 -46 -107.833 -76.167 -131.5 -90.5s-41.167 -21.5 -52.5 -21.5c-12.667 0 -22.834 7.33301 -30.501 22
s-11.5 34.667 -11.5 60c0 41.333 8.66699 90.333 26 147s35.666 95.667 54.999 117c18.667 20 49.667 42.333 93 67c22 14 51.333 21 88 21c41.333 0 84.333 -5 129 -15l-29 -37c-41.333 -153.333 -62 -245.333 -62 -276c0 -13.333 4 -20 12 -20s42.333 20 103 60z
M304.002 127l20.001 13c5.33301 18.667 8.33301 30.667 9 36c1.33301 6.66699 4 18.834 8 36.501s7 31.5 9 41.5c0 1.33301 0.833008 5 2.5 11l10 36.5l16.5 58.5c-38.667 9.33301 -67.667 14 -87 14c-17.333 0 -32.333 -6 -45 -18s-25 -32 -37 -60
c-28 -62.667 -42 -122.334 -42 -179.001c0 -34 9 -51 27 -51c17.333 0 53.666 20.333 108.999 61zM201.003 506l-14 18c25.333 34 45.5 57.167 60.5 69.5s30.833 18.5 47.5 18.5c17.333 0 40.666 -8.33301 69.999 -25c24 -14 43.667 -21 59 -21
c19.333 0 37.333 6.66699 54 20l37 32l10 -18c-27.333 -34.667 -48 -57.5 -62 -68.5s-29 -16.5 -45 -16.5c-12 0 -23 2 -33 6s-28 13.333 -54 28c-20.667 11.333 -37.667 17 -51 17c-12.667 0 -24.167 -4 -34.5 -12s-25.166 -24 -44.499 -48z" />
    <glyph glyph-name="adieresis" unicode="&#xe4;" horiz-adv-x="430" 
d="M504 133l-0.998047 -30c-39.333 -28.667 -70 -50 -92 -64c-40.667 -26 -65 -41.167 -73 -45.5s-15.333 -6.5 -22 -6.5c-10.667 0 -16 7 -16 21s5 44.333 15 91c-64 -46 -107.833 -76.167 -131.5 -90.5s-41.167 -21.5 -52.5 -21.5c-12.667 0 -22.834 7.33301 -30.501 22
s-11.5 34.667 -11.5 60c0 41.333 8.66699 90.333 26 147s35.666 95.667 54.999 117c18.667 20 49.667 42.333 93 67c22 14 51.333 21 88 21c41.333 0 84.333 -5 129 -15l-29 -37c-41.333 -153.333 -62 -245.333 -62 -276c0 -13.333 4 -20 12 -20s42.333 20 103 60z
M304.002 127l20.001 13c5.33301 18.667 8.33301 30.667 9 36c1.33301 6.66699 4 18.834 8 36.501s7 31.5 9 41.5c0 1.33301 0.833008 5 2.5 11l10 36.5l16.5 58.5c-38.667 9.33301 -67.667 14 -87 14c-17.333 0 -32.333 -6 -45 -18s-25 -32 -37 -60
c-28 -62.667 -42 -122.334 -42 -179.001c0 -34 9 -51 27 -51c17.333 0 53.666 20.333 108.999 61zM434.003 501c-18.667 26.667 -31.667 50.333 -39 71c2 1.33301 10.333 7.33301 25 18l32 25c4 4 8.66699 8 14 12l14 -35c4 -8 11 -19.667 21 -35l-33 -26
c-4 -3.33301 -15.333 -13.333 -34 -30zM298.003 500.999c-19.333 29.333 -32.334 53.001 -39.001 71.001c20.667 14.667 39.334 29 56.001 43l15 12c9.33301 -22 14.333 -33.667 15 -35c3.33301 -6.66699 10 -18.334 20 -35.001c-20 -15.333 -31 -24 -33 -26z" />
    <glyph glyph-name="aring" unicode="&#xe5;" horiz-adv-x="430" 
d="M504 133l-0.998047 -30c-39.333 -28.667 -70 -50 -92 -64c-40.667 -26 -65 -41.167 -73 -45.5s-15.333 -6.5 -22 -6.5c-10.667 0 -16 7 -16 21s5 44.333 15 91c-64 -46 -107.833 -76.167 -131.5 -90.5s-41.167 -21.5 -52.5 -21.5c-12.667 0 -22.834 7.33301 -30.501 22
s-11.5 34.667 -11.5 60c0 41.333 8.66699 90.333 26 147s35.666 95.667 54.999 117c18.667 20 49.667 42.333 93 67c22 14 51.333 21 88 21c41.333 0 84.333 -5 129 -15l-29 -37c-41.333 -153.333 -62 -245.333 -62 -276c0 -13.333 4 -20 12 -20s42.333 20 103 60z
M304.002 127l20.001 13c5.33301 18.667 8.33301 30.667 9 36c1.33301 6.66699 4 18.834 8 36.501s7 31.5 9 41.5c0 1.33301 0.833008 5 2.5 11l10 36.5l16.5 58.5c-38.667 9.33301 -67.667 14 -87 14c-17.333 0 -32.333 -6 -45 -18s-25 -32 -37 -60
c-28 -62.667 -42 -122.334 -42 -179.001c0 -34 9 -51 27 -51c17.333 0 53.666 20.333 108.999 61zM403.003 655c22 0 39.167 -5.49902 51.5 -16.499s18.5 -26.5 18.5 -46.5c0 -32.667 -11.667 -60.834 -35 -84.501s-51 -35.5 -83 -35.5c-21.333 0 -37.833 5.66699 -49.5 17
s-17.5 27.333 -17.5 48c0 34 10.833 62.167 32.5 84.5s49.167 33.5 82.5 33.5zM389.003 633.001c-16.667 0 -30.333 -8 -41 -24s-16 -36.333 -16 -61c0 -15.333 3.16699 -28 9.5 -38s14.833 -15 25.5 -15c15.333 0 28.833 8.5 40.5 25.5s17.5 37.167 17.5 60.5
c0 34.667 -12 52 -36 52z" />
    <glyph glyph-name="ae" unicode="&#xe6;" horiz-adv-x="552" 
d="M602 139l-0.000976562 -34c-47.333 -42.667 -87.666 -73 -120.999 -91s-65 -27 -95 -27c-24 0 -43.5 8.16699 -58.5 24.5s-22.5 37.166 -22.5 62.499c0 9.33301 0.333008 17 1 23c-57.333 -42 -98.833 -70.833 -124.5 -86.5s-44.5 -23.5 -56.5 -23.5
c-10 0 -18.5 8.16699 -25.5 24.5s-10.5 35.5 -10.5 57.5c0 32.667 5.66699 71 17 115s24.666 80.667 39.999 110c9.33301 17.333 19.833 31.5 31.5 42.5s31.834 25.833 60.501 44.5c39.333 26.667 72 40 98 40c22 0 42.667 -11.333 62 -34
c4 6.66699 7.33301 11.334 10 14.001l21 32c0.666992 1.33301 4.33398 6.66602 11.001 15.999l6 1c2 0.666992 3.66699 1 5 1c0.666992 0 3.66699 -0.666992 9 -2c-1.33301 -3.33301 -3 -7.16602 -5 -11.499s-3 -6.83301 -3 -7.5c-0.666992 -2 -4.33398 -11.333 -11.001 -28
l-9 -25c41.333 29.333 75.666 44 102.999 44c39.333 0 59 -21 59 -63c0 -29.333 -12.667 -56.666 -38 -81.999s-84 -68.333 -176 -129c-0.666992 -4.66699 -1 -10.334 -1 -17.001c0 -26 5.33301 -46.667 16 -62s25.334 -23 44.001 -23c20 0 42.167 7 66.5 21
s56.5 38.333 96.5 73zM292.999 122l17 12.001c14 69.333 30.667 130.666 50 183.999c-16.667 36.667 -39 55 -67 55c-38 0 -69.667 -35 -95 -105c-20 -52 -30 -98.667 -30 -140s9 -62 27 -62c12 0 44.667 18.667 98 56zM382.999 181.001c50 34.667 83.332 59.667 99.999 75
c24.667 24 37 50 37 78c0 29.333 -9.33301 44 -28 44c-22.667 0 -44.167 -18.167 -64.5 -54.5s-35.166 -83.833 -44.499 -142.5z" />
    <glyph glyph-name="ccedilla" unicode="&#xe7;" horiz-adv-x="348" 
d="M236 -3l-47.001 -63.001c18 -5.33301 27 -18 27 -38c0 -24.667 -12 -46.834 -36 -66.501s-58 -35.167 -102 -46.5l-16 13c25.333 7.33301 46.833 17.833 64.5 31.5s26.5 26.834 26.5 39.501c0 10.667 -9.33301 23.667 -28 39l71 85c-10.667 -2.66699 -19.667 -4 -27 -4
c-53.333 0 -80 31.333 -80 94c0 31.333 4.83301 66.333 14.5 105s21.5 72.334 35.5 101.001c11.333 20.667 24 37.334 38 50.001s40 31 78 55c28.667 19.333 51 29 67 29c17.333 0 31.333 -6.5 42 -19.5s16 -30.5 16 -52.5c0 -4 -0.333008 -7.66699 -1 -11l-58 -35
c-6.66699 43.333 -21.667 65 -45 65c-29.333 0 -54.666 -27.333 -75.999 -82c-21.333 -51.333 -32 -105.666 -32 -162.999c0 -24.667 5 -43.834 15 -57.501s24.333 -20.5 43 -20.5c32 0 87.333 28.333 166 85l-1 -33l-49 -35c-6 -4.66699 -12 -8.33398 -18 -11.001l-61 -36z
" />
    <glyph glyph-name="egrave" unicode="&#xe8;" horiz-adv-x="348" 
d="M389 140v-29.0039c-82.667 -82.667 -154.667 -124 -216 -124c-26 0 -46.5 8.83301 -61.5 26.5s-22.5 41.5 -22.5 71.5c0 41.333 7.5 86.333 22.5 135s32.167 84.667 51.5 108c23.333 26.667 55 51.334 95 74.001c22 12.667 43 19 63 19
c17.333 0 31.333 -5.16699 42 -15.5s16 -24.166 16 -41.499c0 -23.333 -5.83301 -44.166 -17.5 -62.499s-31.5 -38.166 -59.5 -59.499c-54 -40 -99.667 -72 -137 -96c0 -24.667 1.66699 -43.667 5 -57s10 -24 20 -32s21.333 -12 34 -12c36 0 91 31.667 165 95zM168 182.996
c54.667 35.333 91.168 63.332 109.501 83.999s27.5 43.667 27.5 69c0 12 -2.66699 22 -8 30s-12.333 12 -21 12c-22 0 -43.333 -18.667 -64 -56s-35.334 -83.666 -44.001 -138.999zM269.001 661.995l16.999 9.00098c25.333 -70.667 46.333 -135.334 63 -194.001
c-4.66699 -2 -13 -4 -25 -6c-37.333 78.667 -65.666 136.667 -84.999 174l13 7z" />
    <glyph glyph-name="eacute" unicode="&#xe9;" horiz-adv-x="348" 
d="M389 140v-29.0039c-82.667 -82.667 -154.667 -124 -216 -124c-26 0 -46.5 8.83301 -61.5 26.5s-22.5 41.5 -22.5 71.5c0 41.333 7.5 86.333 22.5 135s32.167 84.667 51.5 108c23.333 26.667 55 51.334 95 74.001c22 12.667 43 19 63 19
c17.333 0 31.333 -5.16699 42 -15.5s16 -24.166 16 -41.499c0 -23.333 -5.83301 -44.166 -17.5 -62.499s-31.5 -38.166 -59.5 -59.499c-54 -40 -99.667 -72 -137 -96c0 -24.667 1.66699 -43.667 5 -57s10 -24 20 -32s21.333 -12 34 -12c36 0 91 31.667 165 95zM168 182.996
c54.667 35.333 91.168 63.332 109.501 83.999s27.5 43.667 27.5 69c0 12 -2.66699 22 -8 30s-12.333 12 -21 12c-22 0 -43.333 -18.667 -64 -56s-35.334 -83.666 -44.001 -138.999zM255.001 470.995l-25 6l142 194l46 -23c-64 -64.667 -118.333 -123.667 -163 -177z" />
    <glyph glyph-name="ecircumflex" unicode="&#xea;" horiz-adv-x="348" 
d="M389 140v-29.0039c-82.667 -82.667 -154.667 -124 -216 -124c-26 0 -46.5 8.83301 -61.5 26.5s-22.5 41.5 -22.5 71.5c0 41.333 7.5 86.333 22.5 135s32.167 84.667 51.5 108c23.333 26.667 55 51.334 95 74.001c22 12.667 43 19 63 19
c17.333 0 31.333 -5.16699 42 -15.5s16 -24.166 16 -41.499c0 -23.333 -5.83301 -44.166 -17.5 -62.499s-31.5 -38.166 -59.5 -59.499c-54 -40 -99.667 -72 -137 -96c0 -24.667 1.66699 -43.667 5 -57s10 -24 20 -32s21.333 -12 34 -12c36 0 91 31.667 165 95zM168 182.996
c54.667 35.333 91.168 63.332 109.501 83.999s27.5 43.667 27.5 69c0 12 -2.66699 22 -8 30s-12.333 12 -21 12c-22 0 -43.333 -18.667 -64 -56s-35.334 -83.666 -44.001 -138.999zM190.001 479.995l-1 9.99805c0 1.33301 -0.666992 4.66602 -2 9.99902
c83.333 83.333 142.666 140 177.999 170c2.66699 0 5.5 0.333008 8.5 1s4.83301 1 5.5 1c2 0 6.33301 -0.666992 13 -2c1.33301 -20 2.66602 -38.667 3.99902 -56s2 -27.666 2 -30.999c0.666992 -6.66699 1.5 -16.167 2.5 -28.5s2 -23.666 3 -33.999
s2.16699 -19.833 3.5 -28.5c-3.33301 -2 -15.666 -9 -36.999 -21c-1.33301 17.333 -4.66602 41.333 -9.99902 72l-11 65c-20 -15.333 -45 -35.666 -75 -60.999l-83 -76z" />
    <glyph glyph-name="edieresis" unicode="&#xeb;" horiz-adv-x="348" 
d="M389 140v-29.0039c-82.667 -82.667 -154.667 -124 -216 -124c-26 0 -46.5 8.83301 -61.5 26.5s-22.5 41.5 -22.5 71.5c0 41.333 7.5 86.333 22.5 135s32.167 84.667 51.5 108c23.333 26.667 55 51.334 95 74.001c22 12.667 43 19 63 19
c17.333 0 31.333 -5.16699 42 -15.5s16 -24.166 16 -41.499c0 -23.333 -5.83301 -44.166 -17.5 -62.499s-31.5 -38.166 -59.5 -59.499c-54 -40 -99.667 -72 -137 -96c0 -24.667 1.66699 -43.667 5 -57s10 -24 20 -32s21.333 -12 34 -12c36 0 91 31.667 165 95zM168 182.996
c54.667 35.333 91.168 63.332 109.501 83.999s27.5 43.667 27.5 69c0 12 -2.66699 22 -8 30s-12.333 12 -21 12c-22 0 -43.333 -18.667 -64 -56s-35.334 -83.666 -44.001 -138.999zM352.001 500.995c-16.667 23.333 -29.667 47 -39 71c2 1.33301 10.333 7.33301 25 18l32 25
c4 4 8.66699 8 14 12l14 -35l21 -35l-33 -26c-4 -3.33301 -15.333 -13.333 -34 -30zM216.001 500.995c-20.667 32 -33.668 55.668 -39.001 71.001c20.667 14.667 39.334 29 56.001 43l15 12c9.33301 -22 14.333 -33.667 15 -35c3.33301 -6.66699 10 -18.334 20 -35.001
c-20 -15.333 -31 -24 -33 -26z" />
    <glyph glyph-name="igrave" unicode="&#xec;" horiz-adv-x="245" 
d="M318 119l-7.00195 -29c-8 -5.33301 -17 -11 -27 -17c-17.333 -12 -37 -24.667 -59 -38c-48.667 -32 -81 -48 -97 -48c-7.33301 0 -13.333 3.83301 -18 11.5s-7 17.5 -7 29.5c0 12.667 2 27.5 6 44.5s18.333 70.167 43 159.5c12 47.333 18 76 18 86c0 12.667 -4 19 -12 19
c-7.33301 0 -32.333 -11.667 -75 -35l2 29c90 60 144 90 162 90c8 0 12 -3.33301 12 -10c0 -6 -20.667 -94.333 -62 -265c-6.66699 -20.667 -10 -38 -10 -52c0 -18.667 6.33301 -28 19 -28c6.66699 0 14.834 2.33301 24.501 7s38.834 20 87.501 46zM201.998 662l16.002 9
c21.333 -58 42.666 -122.667 63.999 -194c-4.66699 -1.33301 -13.334 -3.33301 -26.001 -6c-30.667 66.667 -59 124.667 -85 174l13 7z" />
    <glyph glyph-name="iacute" unicode="&#xed;" horiz-adv-x="245" 
d="M318 119l-7.00195 -29c-8 -5.33301 -17 -11 -27 -17c-17.333 -12 -37 -24.667 -59 -38c-48.667 -32 -81 -48 -97 -48c-7.33301 0 -13.333 3.83301 -18 11.5s-7 17.5 -7 29.5c0 12.667 2 27.5 6 44.5s18.333 70.167 43 159.5c12 47.333 18 76 18 86c0 12.667 -4 19 -12 19
c-7.33301 0 -32.333 -11.667 -75 -35l2 29c90 60 144 90 162 90c8 0 12 -3.33301 12 -10c0 -6 -20.667 -94.333 -62 -265c-6.66699 -20.667 -10 -38 -10 -52c0 -18.667 6.33301 -28 19 -28c6.66699 0 14.834 2.33301 24.501 7s38.834 20 87.501 46zM203.998 471l-25 6
l142 194l46 -23c-64 -64.667 -118.333 -123.667 -163 -177z" />
    <glyph glyph-name="icircumflex" unicode="&#xee;" horiz-adv-x="245" 
d="M318 119l-7.00195 -29c-8 -5.33301 -17 -11 -27 -17c-17.333 -12 -37 -24.667 -59 -38c-48.667 -32 -81 -48 -97 -48c-7.33301 0 -13.333 3.83301 -18 11.5s-7 17.5 -7 29.5c0 12.667 2 27.5 6 44.5s18.333 70.167 43 159.5c12 47.333 18 76 18 86c0 12.667 -4 19 -12 19
c-7.33301 0 -32.333 -11.667 -75 -35l2 29c90 60 144 90 162 90c8 0 12 -3.33301 12 -10c0 -6 -20.667 -94.333 -62 -265c-6.66699 -20.667 -10 -38 -10 -52c0 -18.667 6.33301 -28 19 -28c6.66699 0 14.834 2.33301 24.501 7s38.834 20 87.501 46zM138.998 480
l-0.999023 9.99805c0 1.33301 -0.666992 4.66602 -2 9.99902c82.667 82.667 141.667 139.334 177 170.001c3.33301 0.666992 6.5 1.16699 9.5 1.5s4.83301 0.5 5.5 0.5c2 0 6.33301 -0.666992 13 -2c1.33301 -20 2.66602 -38.667 3.99902 -56s2 -27.666 2 -30.999
c0.666992 -10 2 -25.167 4 -45.5s3.33301 -35.5 4 -45.5c-4 -2 -9.5 -5 -16.5 -9l-20.5 -12c-1.33301 14 -4.33301 38 -9 72l-11 65c-20 -15.333 -45 -35.666 -75 -60.999l-83 -76z" />
    <glyph glyph-name="idieresis" unicode="&#xef;" horiz-adv-x="245" 
d="M318 119l-7.00195 -29c-8 -5.33301 -17 -11 -27 -17c-17.333 -12 -37 -24.667 -59 -38c-48.667 -32 -81 -48 -97 -48c-7.33301 0 -13.333 3.83301 -18 11.5s-7 17.5 -7 29.5c0 12.667 2 27.5 6 44.5s18.333 70.167 43 159.5c12 47.333 18 76 18 86c0 12.667 -4 19 -12 19
c-7.33301 0 -32.333 -11.667 -75 -35l2 29c90 60 144 90 162 90c8 0 12 -3.33301 12 -10c0 -6 -20.667 -94.333 -62 -265c-6.66699 -20.667 -10 -38 -10 -52c0 -18.667 6.33301 -28 19 -28c6.66699 0 14.834 2.33301 24.501 7s38.834 20 87.501 46zM300.998 501
c-18.667 26.667 -31.667 50.334 -39 71.001c0.666992 0.666992 9 6.66699 25 18c4.66699 3.33301 15 11.666 31 24.999c4.66699 4 9.66699 8 15 12l14 -35c4 -8 11 -19.667 21 -35l-33 -26c-4 -3.33301 -15.333 -13.333 -34 -30zM164.998 501
c-19.333 29.333 -32.333 53 -39 71c20.667 14.667 39.334 29 56.001 43c2 1.33301 4.5 3.33301 7.5 6s5.5 4.66699 7.5 6c9.33301 -22 14.333 -33.667 15 -35c1.33301 -3.33301 7.66602 -15 18.999 -35l-32 -26z" />
    <glyph glyph-name="eth" unicode="&#xf0;" horiz-adv-x="409" 
d="M214 667l24 17.0029c48.667 -18.667 86 -38.667 112 -60l191 82l29 -19l-193 -87c61.333 -62.667 92 -141.334 92 -236.001c0 -54 -10.667 -110 -32 -168s-46.666 -99.333 -75.999 -124c-26.667 -22.667 -58.5 -42.5 -95.5 -59.5s-66.5 -25.5 -88.5 -25.5
c-26 0 -47.167 9.16699 -63.5 27.5s-24.5 42.166 -24.5 71.499c0 36.667 6.5 75.667 19.5 117s28.833 74 47.5 98c14.667 20.667 50 48.667 106 84c36 22 66 33 90 33c20.667 0 37.667 -6.66699 51 -20c-1.33301 31.333 -8.33301 64.166 -21 98.499
s-28.334 62.833 -47.001 85.5l-141 -62l-32 21l148 63c-31.333 27.333 -63.333 48.333 -96 63zM312 374.003c-34.667 0 -67.334 -26 -98.001 -78s-46 -107.333 -46 -166c0 -28.667 6.33301 -51.667 19 -69s29.667 -26 51 -26c38.667 0 73.334 30 104.001 90
c26.667 51.333 40 102.333 40 153c0 26 -5 46.333 -15 61c-16.667 23.333 -35 35 -55 35z" />
    <glyph glyph-name="ntilde" unicode="&#xf1;" horiz-adv-x="471" 
d="M168 19l-77.001 -28.999c8 32 12.667 50.333 14 55l24 83c30 107.333 45 174 45 200c0 9.33301 -4 14 -12 14s-34.333 -10.333 -79 -31l6 27c93.333 55.333 147 83 161 83c8.66699 0 13 -4.33301 13 -13c0 -10.667 -8 -46.334 -24 -107.001l140 87c34 22 59 33 75 33
c13.333 0 20 -6 20 -18c0 -4.66699 -16 -64.334 -48 -179.001c-18 -66 -27 -108 -27 -126s5.66699 -27 17 -27c5.33301 0 13.333 2.83301 24 8.5s41.334 22.834 92.001 51.501l-7 -29c-74.667 -56 -137.667 -95.333 -189 -118c-10 16.667 -15 32 -15 46
c0 13.333 8.66699 56 26 128c25.333 98 38 155 38 171c0 8.66699 -3.66699 13 -11 13c-8 0 -18.667 -3.83301 -32 -11.5s-51.333 -31.167 -114 -70.5zM210.999 506.001l-13 18c25.333 34 45.333 57.167 60 69.5s30.334 18.5 47.001 18.5
c17.333 0 40.666 -8.33301 69.999 -25c24 -14 43.667 -21 59 -21c19.333 0 37.333 6.66699 54 20c5.33301 4 17.666 14.667 36.999 32l11 -18c-28 -34.667 -49 -57.5 -63 -68.5s-29 -16.5 -45 -16.5c-12 0 -23 2 -33 6s-28 13.333 -54 28c-20.667 11.333 -37.667 17 -51 17
c-12.667 0 -24.167 -4 -34.5 -12s-25.166 -24 -44.499 -48z" />
    <glyph glyph-name="ograve" unicode="&#xf2;" horiz-adv-x="409" 
d="M368 421c26.667 0 48.666 -8.83398 65.999 -26.501s26 -40.167 26 -67.5c0 -35.333 -7.16699 -75 -21.5 -119s-31.833 -80 -52.5 -108c-18 -24 -52.333 -50 -103 -78c-44 -23.333 -79 -35 -105 -35c-27.333 0 -49 9.33301 -65 28s-24 43.334 -24 74.001
c0 50.667 10.5 100 31.5 148s47.833 84.333 80.5 109c66.667 50 122.334 75 167.001 75zM313.999 372.999c-35.333 0 -68.501 -25.5 -99.501 -76.5s-46.5 -106.167 -46.5 -165.5c0 -29.333 6.33301 -52.666 19 -69.999s29.334 -26 50.001 -26c39.333 0 74 30 104 90
c26.667 51.333 40 100 40 146c0 31.333 -6 56.166 -18 74.499s-28.333 27.5 -49 27.5zM309.998 661.999l16.998 9.00098c25.333 -70.667 46.333 -135.334 63 -194.001c-5.33301 -2 -13.666 -4 -24.999 -6c-37.333 78.667 -65.666 136.667 -84.999 174l13 7z" />
    <glyph glyph-name="oacute" unicode="&#xf3;" horiz-adv-x="409" 
d="M368 421c26.667 0 48.666 -8.83398 65.999 -26.501s26 -40.167 26 -67.5c0 -35.333 -7.16699 -75 -21.5 -119s-31.833 -80 -52.5 -108c-18 -24 -52.333 -50 -103 -78c-44 -23.333 -79 -35 -105 -35c-27.333 0 -49 9.33301 -65 28s-24 43.334 -24 74.001
c0 50.667 10.5 100 31.5 148s47.833 84.333 80.5 109c66.667 50 122.334 75 167.001 75zM313.999 372.999c-35.333 0 -68.501 -25.5 -99.501 -76.5s-46.5 -106.167 -46.5 -165.5c0 -29.333 6.33301 -52.666 19 -69.999s29.334 -26 50.001 -26c39.333 0 74 30 104 90
c26.667 51.333 40 100 40 146c0 31.333 -6 56.166 -18 74.499s-28.333 27.5 -49 27.5zM296.998 470.999l-25 6l142 194l46 -23c-64 -64.667 -118.333 -123.667 -163 -177z" />
    <glyph glyph-name="ocircumflex" unicode="&#xf4;" horiz-adv-x="409" 
d="M368 421c26.667 0 48.666 -8.83398 65.999 -26.501s26 -40.167 26 -67.5c0 -35.333 -7.16699 -75 -21.5 -119s-31.833 -80 -52.5 -108c-18 -24 -52.333 -50 -103 -78c-44 -23.333 -79 -35 -105 -35c-27.333 0 -49 9.33301 -65 28s-24 43.334 -24 74.001
c0 50.667 10.5 100 31.5 148s47.833 84.333 80.5 109c66.667 50 122.334 75 167.001 75zM313.999 372.999c-35.333 0 -68.501 -25.5 -99.501 -76.5s-46.5 -106.167 -46.5 -165.5c0 -29.333 6.33301 -52.666 19 -69.999s29.334 -26 50.001 -26c39.333 0 74 30 104 90
c26.667 51.333 40 100 40 146c0 31.333 -6 56.166 -18 74.499s-28.333 27.5 -49 27.5zM239.998 479.999l-1 9.99707c0 1.33301 -0.666992 4.66602 -2 9.99902c78 78.667 137 135.334 177 170.001c2.66699 0 5.5 0.333008 8.5 1s4.83301 1 5.5 1c2 0 6.33301 -0.666992 13 -2
c1.33301 -20 2.66602 -38.667 3.99902 -56s2 -27.666 2 -30.999c1.33301 -8.66699 2.5 -18.167 3.5 -28.5s2 -21.666 3 -33.999s1.83301 -21.833 2.5 -28.5c-3.33301 -2 -15.666 -9 -36.999 -21c-1.33301 14 -4.33301 38 -9 72l-12 65
c-30 -23.333 -54.667 -43.666 -74 -60.999l-83 -76z" />
    <glyph glyph-name="otilde" unicode="&#xf5;" horiz-adv-x="409" 
d="M368 421c26.667 0 48.666 -8.83398 65.999 -26.501s26 -40.167 26 -67.5c0 -35.333 -7.16699 -75 -21.5 -119s-31.833 -80 -52.5 -108c-18 -24 -52.333 -50 -103 -78c-44 -23.333 -79 -35 -105 -35c-27.333 0 -49 9.33301 -65 28s-24 43.334 -24 74.001
c0 50.667 10.5 100 31.5 148s47.833 84.333 80.5 109c66.667 50 122.334 75 167.001 75zM313.999 372.999c-35.333 0 -68.501 -25.5 -99.501 -76.5s-46.5 -106.167 -46.5 -165.5c0 -29.333 6.33301 -52.666 19 -69.999s29.334 -26 50.001 -26c39.333 0 74 30 104 90
c26.667 51.333 40 100 40 146c0 31.333 -6 56.166 -18 74.499s-28.333 27.5 -49 27.5zM179.998 505.999l-13.002 18c24.667 34 44.667 57.167 60 69.5s31 18.5 47 18.5c17.333 0 40.666 -8.33301 69.999 -25c24.667 -14 44.334 -21 59.001 -21c18.667 0 37 6.66699 55 20
l37 32l10 -18c-27.333 -34 -48.166 -56.667 -62.499 -68s-29.5 -17 -45.5 -17c-11.333 0 -22.333 2 -33 6s-28.667 13.333 -54 28c-20 11.333 -37 17 -51 17c-12.667 0 -24.167 -4 -34.5 -12s-25.166 -24 -44.499 -48z" />
    <glyph glyph-name="odieresis" unicode="&#xf6;" horiz-adv-x="409" 
d="M368 421c26.667 0 48.666 -8.83398 65.999 -26.501s26 -40.167 26 -67.5c0 -35.333 -7.16699 -75 -21.5 -119s-31.833 -80 -52.5 -108c-18 -24 -52.333 -50 -103 -78c-44 -23.333 -79 -35 -105 -35c-27.333 0 -49 9.33301 -65 28s-24 43.334 -24 74.001
c0 50.667 10.5 100 31.5 148s47.833 84.333 80.5 109c66.667 50 122.334 75 167.001 75zM313.999 372.999c-35.333 0 -68.501 -25.5 -99.501 -76.5s-46.5 -106.167 -46.5 -165.5c0 -29.333 6.33301 -52.666 19 -69.999s29.334 -26 50.001 -26c39.333 0 74 30 104 90
c26.667 51.333 40 100 40 146c0 31.333 -6 56.166 -18 74.499s-28.333 27.5 -49 27.5zM392.998 500.999c-18.667 26.667 -31.667 50.333 -39 71c2 1.33301 10.333 7.33301 25 18l32 25c4 4 8.66699 8 14 12l14 -35c4 -8 11 -19.667 21 -35l-33 -26
c-4 -3.33301 -15.333 -13.333 -34 -30zM256.998 500.998c-19.333 29.333 -32.334 53.001 -39.001 71.001c20.667 14.667 39.334 29 56.001 43l15 12c9.33301 -22 14.333 -33.667 15 -35c3.33301 -6.66699 10 -18.334 20 -35.001c-20 -15.333 -31 -24 -33 -26z" />
    <glyph glyph-name="divide" unicode="&#xf7;" horiz-adv-x="532" 
d="M316 123c17.333 0 32.166 -6.33301 44.499 -19s18.5 -27.667 18.5 -45s-6.33301 -32.166 -19 -44.499s-27.667 -18.5 -45 -18.5s-32.166 6.33301 -44.499 19s-18.5 27.667 -18.5 45s6.33301 32.166 19 44.499s27.667 18.5 45 18.5zM316 454
c17.333 0 32.166 -6.33301 44.499 -19s18.5 -27.667 18.5 -45s-6.33301 -32.166 -19 -44.499s-27.667 -18.5 -45 -18.5s-32.166 6.16699 -44.499 18.5s-18.5 27.5 -18.5 45.5c0 17.333 6.33301 32.166 19 44.499s27.667 18.5 45 18.5zM525 252v-55h-420v55h420z" />
    <glyph glyph-name="oslash" unicode="&#xf8;" 
d="M115 -152l-20.998 36.998l56 108c-19.333 10 -32.833 22.333 -40.5 37s-11.5 35 -11.5 61c0 66.667 18.667 131.334 56 194.001c20.667 36.667 65 73 133 109c33.333 18 64.666 27.333 93.999 28l78 138l19 -25l-34 -57l-35 -61c21.333 -10 36.5 -22.167 45.5 -36.5
s13.5 -34.166 13.5 -59.499c0 -62.667 -18.333 -127 -55 -193c-11.333 -20 -22.166 -35.167 -32.499 -45.5s-28.5 -24.166 -54.5 -41.499c-55.333 -36.667 -101.333 -55 -138 -55h-7l-11 -23c-2.66699 -5.33301 -6.33398 -13.333 -11.001 -24
s-7.33398 -16.334 -8.00098 -17.001l-12 -25.5l-11.5 -23.5zM185.002 65.998l165 304.999c-8.66699 2.66699 -16 4 -22 4c-45.333 0 -83.333 -29.333 -114 -88c-28 -52.667 -42 -106 -42 -160c0 -17.333 4.33301 -37.666 13 -60.999zM208.002 40.9971
c10.667 -5.33301 21 -8 31 -8c35.333 0 67 21 95 63c16.667 26 30 57 40 93s15 70.667 15 104c0 23.333 -4.66699 44.333 -14 63l-84 -155l-57 -107z" />
    <glyph glyph-name="ugrave" unicode="&#xf9;" horiz-adv-x="471" 
d="M84 307l6.99902 28.001c92 57.333 145 86 159 86c8 0 12 -4.33301 12 -13c0 -6.66699 -1.66699 -16 -5 -28c-4 -12.667 -10 -36.667 -18 -72c-1.33301 -6.66699 -8.66602 -34.667 -21.999 -84c-17.333 -66 -26 -109.333 -26 -130c0 -9.33301 2 -17.333 6 -24
s8.66699 -10 14 -10c11.333 0 53.666 25 126.999 75l60 247c12 6 19 9.33301 21 10c12.667 6 25.334 12.333 38.001 19l26 14c-22 -66 -41.167 -131.833 -57.5 -197.5s-24.5 -111.5 -24.5 -137.5c0 -16 4 -24 12 -24c9.33301 0 48.333 20.333 117 61l-7 -31
c-34.667 -26 -72 -50.667 -112 -74s-65 -35 -75 -35c-5.33301 0 -9.83301 2.16699 -13.5 6.5s-5.5 9.83301 -5.5 16.5c0 18.667 5 48 15 88l-106 -68c-42.667 -28.667 -71 -43 -85 -43c-8 0 -14.667 4.66699 -20 14s-8 21.333 -8 36c0 23.333 10.333 74.333 31 153
c19.333 71.333 29 113.666 29 126.999s-4.66699 20 -14 20c-10.667 0 -35.667 -10 -75 -30zM309.999 662.001l16.998 9.00098c25.333 -70.667 46.333 -135.334 63 -194.001c-5.33301 -2 -13.666 -4 -24.999 -6c-37.333 78.667 -65.666 136.667 -84.999 174l13 7z" />
    <glyph glyph-name="uacute" unicode="&#xfa;" horiz-adv-x="471" 
d="M84 307l6.99902 28.001c92 57.333 145 86 159 86c8 0 12 -4.33301 12 -13c0 -6.66699 -1.66699 -16 -5 -28c-4 -12.667 -10 -36.667 -18 -72c-1.33301 -6.66699 -8.66602 -34.667 -21.999 -84c-17.333 -66 -26 -109.333 -26 -130c0 -9.33301 2 -17.333 6 -24
s8.66699 -10 14 -10c11.333 0 53.666 25 126.999 75l60 247c12 6 19 9.33301 21 10c12.667 6 25.334 12.333 38.001 19l26 14c-22 -66 -41.167 -131.833 -57.5 -197.5s-24.5 -111.5 -24.5 -137.5c0 -16 4 -24 12 -24c9.33301 0 48.333 20.333 117 61l-7 -31
c-34.667 -26 -72 -50.667 -112 -74s-65 -35 -75 -35c-5.33301 0 -9.83301 2.16699 -13.5 6.5s-5.5 9.83301 -5.5 16.5c0 18.667 5 48 15 88l-106 -68c-42.667 -28.667 -71 -43 -85 -43c-8 0 -14.667 4.66699 -20 14s-8 21.333 -8 36c0 23.333 10.333 74.333 31 153
c19.333 71.333 29 113.666 29 126.999s-4.66699 20 -14 20c-10.667 0 -35.667 -10 -75 -30zM326.999 471.001l-25 6l141 194l46 -23c-64 -66 -118 -125 -162 -177z" />
    <glyph glyph-name="ucircumflex" unicode="&#xfb;" horiz-adv-x="471" 
d="M84 307l6.99902 28.001c92 57.333 145 86 159 86c8 0 12 -4.33301 12 -13c0 -6.66699 -1.66699 -16 -5 -28c-4 -12.667 -10 -36.667 -18 -72c-1.33301 -6.66699 -8.66602 -34.667 -21.999 -84c-17.333 -66 -26 -109.333 -26 -130c0 -9.33301 2 -17.333 6 -24
s8.66699 -10 14 -10c11.333 0 53.666 25 126.999 75l60 247c12 6 19 9.33301 21 10c12.667 6 25.334 12.333 38.001 19l26 14c-22 -66 -41.167 -131.833 -57.5 -197.5s-24.5 -111.5 -24.5 -137.5c0 -16 4 -24 12 -24c9.33301 0 48.333 20.333 117 61l-7 -31
c-34.667 -26 -72 -50.667 -112 -74s-65 -35 -75 -35c-5.33301 0 -9.83301 2.16699 -13.5 6.5s-5.5 9.83301 -5.5 16.5c0 18.667 5 48 15 88l-106 -68c-42.667 -28.667 -71 -43 -85 -43c-8 0 -14.667 4.66699 -20 14s-8 21.333 -8 36c0 23.333 10.333 74.333 31 153
c19.333 71.333 29 113.666 29 126.999s-4.66699 20 -14 20c-10.667 0 -35.667 -10 -75 -30zM251.999 480.001l-0.998047 9.99902c0 1.33301 -0.666992 4.66602 -2 9.99902c78 78.667 137 135.334 177 170.001c2.66699 0 5.5 0.333008 8.5 1s4.83301 1 5.5 1
c2.66699 0 7.33398 -0.666992 14.001 -2c1.33301 -20 2.66602 -38.667 3.99902 -56s2 -27.666 2 -30.999c1.33301 -10 2.66602 -25.167 3.99902 -45.5s2.66602 -35.5 3.99902 -45.5c-4 -2 -9.5 -5 -16.5 -9l-20.5 -12c-1.33301 14 -4.33301 38 -9 72l-11 65
c-28.667 -22 -53.667 -42.333 -75 -61l-83 -76z" />
    <glyph glyph-name="udieresis" unicode="&#xfc;" horiz-adv-x="471" 
d="M84 307l6.99902 28.001c92 57.333 145 86 159 86c8 0 12 -4.33301 12 -13c0 -6.66699 -1.66699 -16 -5 -28c-4 -12.667 -10 -36.667 -18 -72c-1.33301 -6.66699 -8.66602 -34.667 -21.999 -84c-17.333 -66 -26 -109.333 -26 -130c0 -9.33301 2 -17.333 6 -24
s8.66699 -10 14 -10c11.333 0 53.666 25 126.999 75l60 247c12 6 19 9.33301 21 10c12.667 6 25.334 12.333 38.001 19l26 14c-22 -66 -41.167 -131.833 -57.5 -197.5s-24.5 -111.5 -24.5 -137.5c0 -16 4 -24 12 -24c9.33301 0 48.333 20.333 117 61l-7 -31
c-34.667 -26 -72 -50.667 -112 -74s-65 -35 -75 -35c-5.33301 0 -9.83301 2.16699 -13.5 6.5s-5.5 9.83301 -5.5 16.5c0 18.667 5 48 15 88l-106 -68c-42.667 -28.667 -71 -43 -85 -43c-8 0 -14.667 4.66699 -20 14s-8 21.333 -8 36c0 23.333 10.333 74.333 31 153
c19.333 71.333 29 113.666 29 126.999s-4.66699 20 -14 20c-10.667 0 -35.667 -10 -75 -30zM423.999 501.001c-18 24 -30.999 47.6689 -38.999 71.002c7.33301 6.66699 15.666 12.667 24.999 18c4.66699 3.33301 15 11.666 31 24.999c2 2 7 6 15 12l14 -35
c3.33301 -6.66699 10 -18.334 20 -35.001l-32 -26c-8 -6 -19.333 -16 -34 -30zM288 501.003c-19.333 29.333 -32.333 53 -39 71c25.333 18.667 44 33 56 43c2 1.33301 4.5 3.5 7.5 6.5s5.16699 4.83301 6.5 5.5l8.5 -19c2.33301 -5.33301 4 -8.83301 5 -10.5
s1.83301 -3.5 2.5 -5.5c2 -3.33301 8.33301 -15 19 -35l-32 -26z" />
    <glyph glyph-name="yacute" unicode="&#xfd;" horiz-adv-x="409" 
d="M11 -247l40.999 70c55.333 -12.667 93 -19 113 -19c33.333 0 58.833 5.5 76.5 16.5s30.834 29.5 39.501 55.5c8 25.333 25 100.333 51 225c-106.667 -76 -171 -114 -193 -114c-10 0 -18.5 5.33301 -25.5 16s-10.5 24.334 -10.5 41.001c0 18 10 64 30 138
c21.333 76.667 32 123.334 32 140.001c0 10 -5 15 -15 15c-8.66699 0 -32.334 -10 -71.001 -30l3 28c96.667 57.333 151 86 163 86c7.33301 0 11 -4 11 -12c0 -8.66699 -13.333 -64.667 -40 -168c-19.333 -74 -29 -121.667 -29 -143c0 -9.33301 2.16699 -17 6.5 -23
s9.83301 -9 16.5 -9c8.66699 0 18.667 3 30 9s43 25 95 57l62 249c2.66699 1.33301 6.66699 3.16602 12 5.49902s9 4.16602 11 5.49902l36 18c1.33301 0.666992 10.666 5.66699 27.999 15c-30.667 -102 -60.667 -220.333 -90 -355c-18 -84 -31.667 -137.5 -41 -160.5
s-28.666 -50.167 -57.999 -81.5s-56.166 -52.833 -80.499 -64.5s-54.5 -17.5 -90.5 -17.5c-38 0 -75.667 2.33301 -113 7zM326.999 471l-25 6l141 194l46 -23c-64 -66 -118 -125 -162 -177z" />
    <glyph glyph-name="thorn" unicode="&#xfe;" 
d="M16 -225l40.999 4c35.333 128.667 84 333 146 613c13.333 67.333 26.333 118 39 152c6 18 13.167 32.5 21.5 43.5s24.166 27.167 47.499 48.5c25.333 22.667 46.833 38.334 64.5 47.001s37.167 13 58.5 13c14 0 30.333 -2 49 -6l-44 -54c-24 4.66699 -42 7 -54 7
c-20 0 -35 -7.33301 -45 -22s-22.333 -48.334 -37 -101.001l-49 -205l82 60c41.333 30.667 74.333 46 99 46c18 0 32.333 -7.5 43 -22.5s16 -34.833 16 -59.5c0 -34 -7 -74.167 -21 -120.5s-30 -82.166 -48 -107.499c-11.333 -16.667 -39.666 -42.334 -84.999 -77.001
c-34 -28 -71.333 -42 -112 -42c-12.667 0 -28.667 1.66699 -48 5l-10 -44c-5.33301 -20 -10.666 -42 -15.999 -66c-7.33301 -27.333 -15.333 -63.333 -24 -108l118 -8l-33 -25h-48c-50 0 -108.333 1 -175 3zM197.999 68c27.333 -15.333 52.334 -22.998 75.001 -22.998
c42.667 0 78 30.667 106 92c27.333 59.333 41 111.666 41 156.999c0 38.667 -11.333 58 -34 58c-14.667 0 -31.667 -5.33301 -51 -16s-49.333 -31.334 -90 -62.001c-4.66699 -19.333 -20.334 -88 -47.001 -206z" />
    <glyph glyph-name="ydieresis" unicode="&#xff;" horiz-adv-x="409" 
d="M11 -247l40.999 70c55.333 -12.667 93 -19 113 -19c33.333 0 58.833 5.5 76.5 16.5s30.834 29.5 39.501 55.5c8 25.333 25 100.333 51 225c-106.667 -76 -171 -114 -193 -114c-10 0 -18.5 5.33301 -25.5 16s-10.5 24.334 -10.5 41.001c0 18 10 64 30 138
c21.333 76.667 32 123.334 32 140.001c0 10 -5 15 -15 15c-8.66699 0 -32.334 -10 -71.001 -30l3 28c96.667 57.333 151 86 163 86c7.33301 0 11 -4 11 -12c0 -8.66699 -13.333 -64.667 -40 -168c-19.333 -74 -29 -121.667 -29 -143c0 -9.33301 2.16699 -17 6.5 -23
s9.83301 -9 16.5 -9c8.66699 0 18.667 3 30 9s43 25 95 57l62 249c2.66699 1.33301 6.66699 3.16602 12 5.49902s9 4.16602 11 5.49902l36 18c1.33301 0.666992 10.666 5.66699 27.999 15c-30.667 -102 -60.667 -220.333 -90 -355c-18 -84 -31.667 -137.5 -41 -160.5
s-28.666 -50.167 -57.999 -81.5s-56.166 -52.833 -80.499 -64.5s-54.5 -17.5 -90.5 -17.5c-38 0 -75.667 2.33301 -113 7zM416.999 501c-18 24 -31 47.668 -39 71.001c4.66699 4 12.667 10 24 18c4 2.66699 14.667 11 32 25c5.33301 4.66699 10.333 8.66699 15 12l14 -35
c3.33301 -6.66699 10 -18.334 20 -35.001l-32 -26c-6 -4 -17.333 -14 -34 -30zM280.999 501.001c-19.333 29.333 -32.332 53.001 -38.999 71.001l56 43c2 1.33301 4.5 3.5 7.5 6.5s5.16699 4.83301 6.5 5.5l8.5 -19c2.33301 -5.33301 4 -8.83301 5 -10.5
s1.83301 -3.5 2.5 -5.5c1.33301 -3.33301 7.66602 -15 18.999 -35c-15.333 -12.667 -26.333 -21.334 -33 -26.001z" />
    <glyph glyph-name="Amacron" unicode="&#x100;" horiz-adv-x="634" 
d="M24 9l38.002 72c14.667 -4.66699 30 -7 46 -7c23.333 0 43.666 4 60.999 12s36.333 22 57 42c38.667 37.333 84.667 90.666 138 159.999l177 229c-33.333 2.66699 -51.333 4 -54 4l-15 1l-41 5c-18.667 1.33301 -31.334 2 -38.001 2
c-37.333 0 -66.5 -8.16699 -87.5 -24.5s-31.5 -39.166 -31.5 -68.499c0 -19.333 7.33301 -51 22 -95l-76 -41c-9.33301 25.333 -14 48.666 -14 69.999c0 52 26 102.667 78 152c48.667 47.333 96.667 71 144 71c17.333 0 48.333 -3.33301 93 -10c28 -5.33301 47.667 -8 59 -8
c14 0 28.333 7 43 21c2 2.66699 5.66699 6.66699 11 12l14 -10c-16 -79.333 -32.167 -177 -48.5 -293s-24.5 -190 -24.5 -222c0 -18 3.83301 -30.167 11.5 -36.5s21.5 -9.5 41.5 -9.5c13.333 0 30.666 1 51.999 3c2 0 9.66699 0.666992 23 2l-16 -25
c-32.667 -5.33301 -81.667 -14 -147 -26c-11.333 -2.66699 -21.333 -4 -30 -4c-6.66699 0 -12.334 2.16699 -17.001 6.5s-7 9.5 -7 15.5c0 12.667 2 27.334 6 44.001c1.33301 4.66699 3.33301 18.667 6 42l5 32.5c2 13 3 20.5 3 22.5c0.666992 8 2.33398 20 5.00098 36
c-35.333 2.66699 -95.666 4 -180.999 4c-67.333 -76.667 -117.5 -127.5 -150.5 -152.5s-66.833 -37.5 -101.5 -37.5c-16 0 -34 3 -54 9zM361.002 232h156l42 260zM438.002 697l8.99902 10.001l13 15l11 11c0.666992 0.666992 2.33398 2.66699 5.00098 6
s4.66699 5.66602 6 6.99902h296c-10 -10 -23.667 -26.333 -41 -49h-299z" />
    <glyph glyph-name="amacron" unicode="&#x101;" horiz-adv-x="430" 
d="M504 133l-0.998047 -30c-39.333 -28.667 -70 -50 -92 -64c-40.667 -26 -65 -41.167 -73 -45.5s-15.333 -6.5 -22 -6.5c-10.667 0 -16 7 -16 21s5 44.333 15 91c-64 -46 -107.833 -76.167 -131.5 -90.5s-41.167 -21.5 -52.5 -21.5c-12.667 0 -22.834 7.33301 -30.501 22
s-11.5 34.667 -11.5 60c0 41.333 8.66699 90.333 26 147s35.666 95.667 54.999 117c18.667 20 49.667 42.333 93 67c22 14 51.333 21 88 21c41.333 0 84.333 -5 129 -15l-29 -37c-41.333 -153.333 -62 -245.333 -62 -276c0 -13.333 4 -20 12 -20s42.333 20 103 60z
M304.002 127l20.001 13c5.33301 18.667 8.33301 30.667 9 36c1.33301 6.66699 4 18.834 8 36.501s7 31.5 9 41.5c0 1.33301 0.833008 5 2.5 11l10 36.5l16.5 58.5c-38.667 9.33301 -67.667 14 -87 14c-17.333 0 -32.333 -6 -45 -18s-25 -32 -37 -60
c-28 -62.667 -42 -122.334 -42 -179.001c0 -34 9 -51 27 -51c17.333 0 53.666 20.333 108.999 61zM177.003 532l9 10l13 15l11 11c0 0.666992 1.33301 2.5 4 5.5s5 5.83301 7 8.5h296c-11.333 -12 -25 -28.667 -41 -50h-299z" />
    <glyph glyph-name="Abreve" unicode="&#x102;" horiz-adv-x="634" 
d="M24 9l38.002 72c14.667 -4.66699 30 -7 46 -7c23.333 0 43.666 4 60.999 12s36.333 22 57 42c38.667 37.333 84.667 90.666 138 159.999l177 229c-33.333 2.66699 -51.333 4 -54 4l-15 1l-41 5c-18.667 1.33301 -31.334 2 -38.001 2
c-37.333 0 -66.5 -8.16699 -87.5 -24.5s-31.5 -39.166 -31.5 -68.499c0 -19.333 7.33301 -51 22 -95l-76 -41c-9.33301 25.333 -14 48.666 -14 69.999c0 52 26 102.667 78 152c48.667 47.333 96.667 71 144 71c17.333 0 48.333 -3.33301 93 -10c28 -5.33301 47.667 -8 59 -8
c14 0 28.333 7 43 21c2 2.66699 5.66699 6.66699 11 12l14 -10c-16 -79.333 -32.167 -177 -48.5 -293s-24.5 -190 -24.5 -222c0 -18 3.83301 -30.167 11.5 -36.5s21.5 -9.5 41.5 -9.5c13.333 0 30.666 1 51.999 3c2 0 9.66699 0.666992 23 2l-16 -25
c-32.667 -5.33301 -81.667 -14 -147 -26c-11.333 -2.66699 -21.333 -4 -30 -4c-6.66699 0 -12.334 2.16699 -17.001 6.5s-7 9.5 -7 15.5c0 12.667 2 27.334 6 44.001c1.33301 4.66699 3.33301 18.667 6 42l5 32.5c2 13 3 20.5 3 22.5c0.666992 8 2.33398 20 5.00098 36
c-35.333 2.66699 -95.666 4 -180.999 4c-67.333 -76.667 -117.5 -127.5 -150.5 -152.5s-66.833 -37.5 -101.5 -37.5c-16 0 -34 3 -54 9zM361.002 232h156l42 260zM417.002 790l21.001 10c17.333 -28.667 36.666 -49 57.999 -61s48.666 -18 81.999 -18c50 0 90 10.667 120 32
c18.667 11.333 33.334 28 44.001 50l16 -10c-13.333 -37.333 -37.666 -67.833 -72.999 -91.5s-75 -35.5 -119 -35.5c-76.667 0 -126.334 41.333 -149.001 124z" />
    <glyph glyph-name="abreve" unicode="&#x103;" horiz-adv-x="430" 
d="M504 133l-0.998047 -30c-39.333 -28.667 -70 -50 -92 -64c-40.667 -26 -65 -41.167 -73 -45.5s-15.333 -6.5 -22 -6.5c-10.667 0 -16 7 -16 21s5 44.333 15 91c-64 -46 -107.833 -76.167 -131.5 -90.5s-41.167 -21.5 -52.5 -21.5c-12.667 0 -22.834 7.33301 -30.501 22
s-11.5 34.667 -11.5 60c0 41.333 8.66699 90.333 26 147s35.666 95.667 54.999 117c18.667 20 49.667 42.333 93 67c22 14 51.333 21 88 21c41.333 0 84.333 -5 129 -15l-29 -37c-41.333 -153.333 -62 -245.333 -62 -276c0 -13.333 4 -20 12 -20s42.333 20 103 60z
M304.002 127l20.001 13c5.33301 18.667 8.33301 30.667 9 36c1.33301 6.66699 4 18.834 8 36.501s7 31.5 9 41.5c0 1.33301 0.833008 5 2.5 11l10 36.5l16.5 58.5c-38.667 9.33301 -67.667 14 -87 14c-17.333 0 -32.333 -6 -45 -18s-25 -32 -37 -60
c-28 -62.667 -42 -122.334 -42 -179.001c0 -34 9 -51 27 -51c17.333 0 53.666 20.333 108.999 61zM198.003 624l21 10c17.333 -28.667 36.666 -49 57.999 -61s48.333 -18 81 -18c50.667 0 91 10.667 121 32c17.333 10.667 32 27.667 44 51l16 -10
c-13.333 -38 -37.666 -68.833 -72.999 -92.5s-75.333 -35.5 -120 -35.5c-54 0 -95.333 21.667 -124 65c-9.33301 16 -17.333 35.667 -24 59z" />
    <glyph glyph-name="Aogonek" unicode="&#x104;" horiz-adv-x="634" 
d="M676 -79l13.0039 -5c-32.667 -48.667 -68.334 -73 -107.001 -73c-16.667 0 -30 5 -40 15s-15 23 -15 39c0 19.333 7 36.833 21 52.5s39 34.5 75 56.5c-3.33301 -0.666992 -7.83301 -1.5 -13.5 -2.5s-9.16699 -1.5 -10.5 -1.5c-35.333 -6.66699 -55 -10.334 -59 -11.001
c-11.333 -2.66699 -21.333 -4 -30 -4c-6.66699 0 -12.334 2.16699 -17.001 6.5s-7 9.5 -7 15.5c0 12.667 2 27.334 6 44.001c1.33301 4.66699 3.33301 18.667 6 42l5 32.5c2 13 3 20.5 3 22.5c0.666992 8 2.33398 20 5.00098 36c-35.333 2.66699 -95.666 4 -180.999 4
c-67.333 -76.667 -117.5 -127.5 -150.5 -152.5s-66.833 -37.5 -101.5 -37.5c-16 0 -34 3 -54 9l38 72c14.667 -4.66699 30 -7 46 -7c23.333 0 43.666 4 60.999 12s36.333 22 57 42c38.667 37.333 84.667 90.666 138 159.999l177 229c-33.333 2.66699 -51.333 4 -54 4l-15 1
l-41 5c-18.667 1.33301 -31.334 2 -38.001 2c-37.333 0 -66.5 -8.16699 -87.5 -24.5s-31.5 -39.166 -31.5 -68.499c0 -19.333 7.33301 -51 22 -95l-76 -41c-9.33301 25.333 -14 48.666 -14 69.999c0 52 26 102.667 78 152c48.667 47.333 96.667 71 144 71
c17.333 0 48.333 -3.33301 93 -10c28 -5.33301 47.667 -8 59 -8c14 0 28.333 7 43 21c2 2.66699 5.66699 6.66699 11 12l14 -10c-16 -79.333 -32.167 -177 -48.5 -293s-24.5 -190 -24.5 -222c0 -18 3.83301 -30.167 11.5 -36.5s21.5 -9.5 41.5 -9.5
c13.333 0 30.666 1 51.999 3c2 0 9.66699 0.666992 23 2l-16 -25c-18.667 -5.33301 -36.334 -14.333 -53.001 -27c-32 -28 -48 -49 -48 -63c0 -9.33301 4 -17.666 12 -24.999s17.333 -11 28 -11c13.333 0 30 10 50 30zM361.004 232h156l42 260z" />
    <glyph glyph-name="aogonek" unicode="&#x105;" horiz-adv-x="430" 
d="M504 133l-0.99707 -30c-44 -30.667 -82.167 -63.5 -114.5 -98.5s-48.5 -61.167 -48.5 -78.5c0 -9.33301 4 -17.5 12 -24.5s17.333 -10.5 28 -10.5c14 0 30.667 10 50 30l13 -5c-32 -48.667 -67.667 -73 -107 -73c-16.667 0 -29.834 5 -39.501 15s-14.5 23.333 -14.5 40
c0 34.667 20.667 67.667 62 99c-12 -6.66699 -21 -10 -27 -10c-11.333 0 -17 7 -17 21c0 14.667 5 45 15 91c-64 -46 -107.833 -76.167 -131.5 -90.5s-41.167 -21.5 -52.5 -21.5c-12.667 0 -22.834 7.33301 -30.501 22s-11.5 34.667 -11.5 60
c0 41.333 8.66699 90.333 26 147s35.666 95.667 54.999 117c18.667 20 49.667 42.333 93 67c22 14 51.333 21 88 21c41.333 0 84.333 -5 129 -15l-29 -37c-41.333 -153.333 -62 -245.333 -62 -276c0 -13.333 4 -20 12 -20s42.333 20 103 60zM304.003 127l20.001 13
c5.33301 18.667 8.33301 30.667 9 36c1.33301 6.66699 4 18.834 8 36.501s7 31.5 9 41.5c0 1.33301 0.833008 5 2.5 11l10 36.5l16.5 58.5c-38.667 9.33301 -67.667 14 -87 14c-17.333 0 -32.333 -6 -45 -18s-25 -32 -37 -60c-28 -62.667 -42 -122.334 -42 -179.001
c0 -34 9 -51 27 -51c17.333 0 53.666 20.333 108.999 61z" />
    <glyph glyph-name="Cacute" unicode="&#x106;" horiz-adv-x="532" 
d="M542 65l-6.99902 -31c-44.667 -33.333 -92.834 -59.833 -144.501 -79.5s-99.5 -29.5 -143.5 -29.5c-49.333 0 -87.833 15 -115.5 45s-41.5 71.333 -41.5 124c0 66.667 13.833 132.5 41.5 197.5s66.5 122.167 116.5 171.5c45.333 45.333 92.5 80.333 141.5 105
s95.833 37 140.5 37c36.667 0 64.667 -8.16699 84 -24.5s31.333 -42.166 36 -77.499l-76 -65c-3.33301 40.667 -12.833 70.667 -28.5 90s-38.834 29 -69.501 29c-49.333 0 -97.5 -20.5 -144.5 -61.5s-85 -94.5 -114 -160.5s-43.5 -133.667 -43.5 -203
c0 -48.667 11.833 -87.334 35.5 -116.001s55.834 -43 96.501 -43c68 0 146.667 30.667 236 92zM473.001 640l-24.001 7l141 193l46 -22c-59.333 -60.667 -113.666 -120 -162.999 -178z" />
    <glyph glyph-name="cacute" unicode="&#x107;" horiz-adv-x="348" 
d="M392 130l-2.00098 -33c-98.667 -73.333 -174 -110 -226 -110c-23.333 0 -41.666 8.33301 -54.999 25s-20 39.667 -20 69c0 31.333 4.83301 66.333 14.5 105s21.5 72.334 35.5 101.001c11.333 21.333 24 38.166 38 50.499s40 30.5 78 54.5c28.667 19.333 51 29 67 29
c17.333 0 31.333 -6.5 42 -19.5s16 -30.5 16 -52.5c0 -4 -0.333008 -7.66699 -1 -11l-60 -35c-4.66699 43.333 -19 65 -43 65c-30.667 0 -56 -27.333 -76 -82c-21.333 -51.333 -32 -105.666 -32 -162.999c0 -24.667 5 -43.834 15 -57.501s24.333 -20.5 43 -20.5
c30.667 0 86 28.333 166 85zM288.999 471l-25 6l142 194l46 -23c-64 -64.667 -118.333 -123.667 -163 -177z" />
    <glyph glyph-name="Ccircumflex" unicode="&#x108;" horiz-adv-x="532" 
d="M542 65l-6.99902 -31c-44.667 -33.333 -92.834 -59.833 -144.501 -79.5s-99.5 -29.5 -143.5 -29.5c-49.333 0 -87.833 15 -115.5 45s-41.5 71.333 -41.5 124c0 66.667 13.833 132.5 41.5 197.5s66.5 122.167 116.5 171.5c45.333 45.333 92.5 80.333 141.5 105
s95.833 37 140.5 37c36.667 0 64.667 -8.16699 84 -24.5s31.333 -42.166 36 -77.499l-76 -65c-3.33301 40.667 -12.833 70.667 -28.5 90s-38.834 29 -69.501 29c-49.333 0 -97.5 -20.5 -144.5 -61.5s-85 -94.5 -114 -160.5s-43.5 -133.667 -43.5 -203
c0 -48.667 11.833 -87.334 35.5 -116.001s55.834 -43 96.501 -43c68 0 146.667 30.667 236 92zM378.001 737l-0.99707 10.998c0 0.666992 -0.666992 3.66699 -2 9c78 78.667 137 135.334 177 170.001c2.66699 0.666992 5.5 1.16699 8.5 1.5s4.83301 0.5 5.5 0.5
c1.33301 0 6 -0.666992 14 -2c1.33301 -20 2.66602 -38.667 3.99902 -56s2 -27.666 2 -30.999c1.33301 -10 2.66602 -25.167 3.99902 -45.5s2.66602 -35.5 3.99902 -45.5c-4 -2 -9.5 -5 -16.5 -9l-20.5 -12c-1.33301 14 -4.33301 38 -9 72l-11 65
c-28.667 -22 -53.667 -42.333 -75 -61l-83 -76z" />
    <glyph glyph-name="ccircumflex" unicode="&#x109;" horiz-adv-x="348" 
d="M392 130l-2.00098 -33c-98.667 -73.333 -174 -110 -226 -110c-23.333 0 -41.666 8.33301 -54.999 25s-20 39.667 -20 69c0 31.333 4.83301 66.333 14.5 105s21.5 72.334 35.5 101.001c11.333 21.333 24 38.166 38 50.499s40 30.5 78 54.5c28.667 19.333 51 29 67 29
c17.333 0 31.333 -6.5 42 -19.5s16 -30.5 16 -52.5c0 -4 -0.333008 -7.66699 -1 -11l-60 -35c-4.66699 43.333 -19 65 -43 65c-30.667 0 -56 -27.333 -76 -82c-21.333 -51.333 -32 -105.666 -32 -162.999c0 -24.667 5 -43.834 15 -57.501s24.333 -20.5 43 -20.5
c30.667 0 86 28.333 166 85zM251.999 553l-1.00098 9.99805c0 0.666992 -0.666992 3.66699 -2 9c73.333 74.667 132.333 131.334 177 170.001c2.66699 0 5.5 0.333008 8.5 1s4.83301 1 5.5 1c2.66699 0 7.33398 -0.666992 14.001 -2
c1.33301 -20.667 2.66602 -39.667 3.99902 -57s2 -27.333 2 -30c1.33301 -10 2.83301 -25.333 4.5 -46s2.83398 -35.667 3.50098 -45c-2.66699 -1.33301 -15 -8 -37 -20c-1.33301 14.667 -4.33301 38.334 -9 71.001l-11 66c-38.667 -30.667 -63.667 -51 -75 -61l-83 -76z
" />
    <glyph glyph-name="Cdotaccent" unicode="&#x10a;" horiz-adv-x="532" 
d="M542 65l-6.99902 -31c-44.667 -33.333 -92.834 -59.833 -144.501 -79.5s-99.5 -29.5 -143.5 -29.5c-49.333 0 -87.833 15 -115.5 45s-41.5 71.333 -41.5 124c0 66.667 13.833 132.5 41.5 197.5s66.5 122.167 116.5 171.5c45.333 45.333 92.5 80.333 141.5 105
s95.833 37 140.5 37c36.667 0 64.667 -8.16699 84 -24.5s31.333 -42.166 36 -77.499l-76 -65c-3.33301 40.667 -12.833 70.667 -28.5 90s-38.834 29 -69.501 29c-49.333 0 -97.5 -20.5 -144.5 -61.5s-85 -94.5 -114 -160.5s-43.5 -133.667 -43.5 -203
c0 -48.667 11.833 -87.334 35.5 -116.001s55.834 -43 96.501 -43c68 0 146.667 30.667 236 92zM480.001 728c-19.333 29.333 -32.334 53.333 -39.001 72c20.667 13.333 39.667 27.666 57 42.999c5.33301 4 10 7.66699 14 11c2.66699 -4.66699 4.33398 -9 5.00098 -13
c8 -18.667 18 -37.667 30 -57c-6.66699 -4.66699 -12.5 -9 -17.5 -13l-10 -8c-1.66699 -1.33301 -3.5 -2.66602 -5.5 -3.99902z" />
    <glyph glyph-name="cdotaccent" unicode="&#x10b;" horiz-adv-x="348" 
d="M392 130l-2.00098 -33c-98.667 -73.333 -174 -110 -226 -110c-23.333 0 -41.666 8.33301 -54.999 25s-20 39.667 -20 69c0 31.333 4.83301 66.333 14.5 105s21.5 72.334 35.5 101.001c11.333 21.333 24 38.166 38 50.499s40 30.5 78 54.5c28.667 19.333 51 29 67 29
c17.333 0 31.333 -6.5 42 -19.5s16 -30.5 16 -52.5c0 -4 -0.333008 -7.66699 -1 -11l-60 -35c-4.66699 43.333 -19 65 -43 65c-30.667 0 -56 -27.333 -76 -82c-21.333 -51.333 -32 -105.666 -32 -162.999c0 -24.667 5 -43.834 15 -57.501s24.333 -20.5 43 -20.5
c30.667 0 86 28.333 166 85zM353.999 544c-19.333 29.333 -32.333 53.002 -39 71.002c21.333 15.333 40.333 29.666 57 42.999c1.33301 1.33301 6 5.33301 14 12c2 -4 3.66699 -8.66699 5 -14c8 -18.667 18 -37.334 30 -56.001l-33 -26z" />
    <glyph glyph-name="Ccaron" unicode="&#x10c;" horiz-adv-x="532" 
d="M542 65l-6.99902 -31c-44.667 -33.333 -92.834 -59.833 -144.501 -79.5s-99.5 -29.5 -143.5 -29.5c-49.333 0 -87.833 15 -115.5 45s-41.5 71.333 -41.5 124c0 66.667 13.833 132.5 41.5 197.5s66.5 122.167 116.5 171.5c45.333 45.333 92.5 80.333 141.5 105
s95.833 37 140.5 37c36.667 0 64.667 -8.16699 84 -24.5s31.333 -42.166 36 -77.499l-76 -65c-3.33301 40.667 -12.833 70.667 -28.5 90s-38.834 29 -69.501 29c-49.333 0 -97.5 -20.5 -144.5 -61.5s-85 -94.5 -114 -160.5s-43.5 -133.667 -43.5 -203
c0 -48.667 11.833 -87.334 35.5 -116.001s55.834 -43 96.501 -43c68 0 146.667 30.667 236 92zM693.001 830l0.998047 -9.00098c0 -0.666992 0.666992 -3.66699 2 -9c-81.333 -82 -140.333 -138.667 -177 -170c-8.66699 -2 -13.334 -3 -14.001 -3
c-3.33301 0 -7.66602 1 -12.999 3l-14 177l36 22c9.33301 -70.667 16.333 -116.667 21 -138c32.667 26.667 75.334 63.334 128.001 110.001c10.667 12 20.334 21.333 29.001 28z" />
    <glyph glyph-name="ccaron" unicode="&#x10d;" horiz-adv-x="348" 
d="M392 130l-2.00098 -33c-98.667 -73.333 -174 -110 -226 -110c-23.333 0 -41.666 8.33301 -54.999 25s-20 39.667 -20 69c0 31.333 4.83301 66.333 14.5 105s21.5 72.334 35.5 101.001c11.333 21.333 24 38.166 38 50.499s40 30.5 78 54.5c28.667 19.333 51 29 67 29
c17.333 0 31.333 -6.5 42 -19.5s16 -30.5 16 -52.5c0 -4 -0.333008 -7.66699 -1 -11l-60 -35c-4.66699 43.333 -19 65 -43 65c-30.667 0 -56 -27.333 -76 -82c-21.333 -51.333 -32 -105.666 -32 -162.999c0 -24.667 5 -43.834 15 -57.501s24.333 -20.5 43 -20.5
c30.667 0 86 28.333 166 85zM474.999 660l1.00098 -9l2 -10c-77.333 -78 -136.333 -134.333 -177 -169c-8.66699 -2 -13.334 -3 -14.001 -3c-3.33301 0 -8 1 -14 3l-13 177c14.667 8.66699 26.667 16 36 22c9.33301 -72 16 -118.333 20 -139c42 34 84.667 71 128 111
c8 8 18 17.333 30 28z" />
    <glyph glyph-name="Dcaron" unicode="&#x10e;" horiz-adv-x="716" 
d="M88 0l49.001 46.998c55.333 4 93.666 18.667 114.999 44s42 81 62 167l77 305c-71.333 -7.33301 -125.666 -28.666 -162.999 -63.999s-56 -83.333 -56 -144c0 -16.667 2.33301 -35.667 7 -57l-84 -38c-4.66699 21.333 -7 40.666 -7 57.999c0 86 43 156.667 129 212
c50 32 114 54.667 192 68l73 31l-7 -29c93.333 -5.33301 158.666 -16.666 195.999 -33.999c70.667 -30.667 106 -82 106 -154c0 -43.333 -8.33301 -89.333 -25 -138s-38 -89 -64 -121c-20 -24.667 -49 -49.167 -87 -73.5s-77.667 -43.166 -119 -56.499
c-26.667 -10 -56 -16.333 -88 -19s-90.667 -4 -176 -4h-130zM467.001 567.998l-56 -222l-27.5 -109.5c-5 -19 -14.5 -40.833 -28.5 -65.5s-27 -42.834 -39 -54.501l-70 -66.5l131 -4h15c52.667 0 95.5 6.83301 128.5 20.5s62.167 36.5 87.5 68.5
c22.667 29.333 41.667 68.333 57 117s23 95 23 139c0 34.667 -7 65.334 -21 92.001s-33.667 46.667 -59 60c-27.333 14 -74.333 22.333 -141 25zM683.001 829.998l1.00195 -9c0 -0.666992 0.666992 -3.66699 2 -9c-81.333 -82 -140.333 -138.667 -177 -170
c-8.66699 -2 -13.334 -3 -14.001 -3c-4.66699 0 -9.33398 1 -14.001 3c-0.666992 16 -5 75 -13 177l36 22c9.33301 -73.333 16 -119.333 20 -138c35.333 28 78 64.667 128 110c8.66699 10 18.667 19.333 30 28z" />
    <glyph glyph-name="dcaron" unicode="&#x10f;" horiz-adv-x="508" 
d="M509 134l-4 -32c-42.667 -30.667 -83 -57.5 -121 -80.5s-61.333 -34.5 -70 -34.5c-14.667 0 -22 10.333 -22 31c0 22.667 2.66699 47.334 8 74.001c-96 -70 -153.333 -105 -172 -105c-9.33301 0 -18.166 8.33301 -26.499 25s-12.5 34.667 -12.5 54
c0 35.333 9.16699 81.666 27.5 138.999s36.166 96 53.499 116c20.667 22.667 48.667 45 84 67s61 33 77 33c8.66699 0 22.667 -2 42 -6l8 32c13.333 53.333 23.833 87.5 31.5 102.5s23.834 34.5 48.501 58.5c31.333 30 61 52.667 89 68c20 11.333 40.333 17 61 17
c8.66699 0 19.667 -1.33301 33 -4l-36 -57c-20.667 5.33301 -36.334 8 -47.001 8c-18.667 0 -34.167 -6.5 -46.5 -19.5s-24.166 -34.833 -35.499 -65.5c-10.667 -32.667 -31.167 -114.667 -61.5 -246s-45.5 -205.333 -45.5 -222c0 -18 4.66699 -27 14 -27
s40.666 18.667 93.999 56zM308 130l48.002 215c-18.667 18.667 -36.334 28 -53.001 28c-51.333 0 -92 -51.667 -122 -155c-12 -45.333 -18 -84.666 -18 -117.999c0 -30 7 -45 21 -45c7.33301 0 18.666 4.66699 33.999 14s45.333 29.666 90 60.999zM612.002 479
l-27.999 7.99902c27.333 35.333 45.166 60.833 53.499 76.5s12.5 31.834 12.5 48.501c0 6.66699 -2.66699 22 -8 46l65 36c4.66699 -18 7 -32.333 7 -43c0 -33.333 -26 -81.333 -78 -144l-14 -17z" />
    <glyph glyph-name="Dcroat" unicode="&#x110;" horiz-adv-x="716" 
d="M314 258l8.99902 31.999c-23.333 0.666992 -36.333 1 -39 1c-4 0 -24 -0.666992 -60 -2c10 6.66699 17 11 21 13c8 5.33301 15.667 9.66602 23 12.999c6.66699 6.66699 11.334 11 14.001 13c10 -0.666992 26.333 -1.33398 49 -2.00098l60 238
c-71.333 -7.33301 -125.666 -28.666 -162.999 -63.999s-56 -83.666 -56 -144.999c0 -16.667 2.33301 -35.667 7 -57l-84 -38c-4.66699 24 -7 43 -7 57c0 88 43 159.333 129 214c50.667 32.667 114.667 55 192 67l73 32l-7 -30c90.667 -4.66699 156 -16 196 -34
c70.667 -30 106 -81 106 -153c0 -44 -8.33301 -90.333 -25 -139s-38 -89 -64 -121c-20 -24.667 -49 -49.167 -87 -73.5s-77.667 -43.166 -119 -56.499c-26.667 -10 -56 -16.333 -88 -19s-90.667 -4 -176 -4h-130l49 47c55.333 4 93.666 18.667 114.999 44s42 81 62 167z
M537.999 289.999h-141.001c-16.667 -62 -32.167 -104.667 -46.5 -128s-49.166 -60.666 -104.499 -111.999l131 -4h15c52.667 0 95.5 6.83301 128.5 20.5s62.167 36.5 87.5 68.5c23.333 29.333 42.5 68.166 57.5 116.499s22.5 94.833 22.5 139.5c0 34.667 -7 65.5 -21 92.5
s-33.667 46.833 -59 59.5c-27.333 14.667 -74.333 23 -141 25l-61 -242h38c36 0 60.333 0.333008 73 1c16.667 0.666992 38 1 64 1z" />
    <glyph glyph-name="dcroat" unicode="&#x111;" 
d="M393 494l2 8c-33.333 0 -52.666 -0.333008 -57.999 -1h-28c-12.667 0 -24.334 0.333008 -35.001 1c12 7.33301 20.333 12.666 25 15.999c7.33301 4.66699 13.666 9.33398 18.999 14.001c31.333 4 61.333 6.33301 90 7c8 20 26 42.667 54 68c58 57.333 108 86 150 86
c8 0 18.667 -1.33301 32 -4l-36 -57c-20.667 5.33301 -36 8 -46 8c-20.667 0 -37.167 -7.33301 -49.5 -22s-25.166 -41 -38.499 -79l111 -2l-40 -30c-15.333 -2.66699 -42.333 -4.33398 -81 -5.00098c-15.333 -56 -34.5 -135.833 -57.5 -239.5s-34.5 -162.167 -34.5 -175.5
c0 -18 4.66699 -27 14 -27c8 0 39.667 18.667 95 56c1.33301 1.33301 5.33301 4 12 8s12 7.33301 16 10l-4 -32c-42 -30.667 -82.167 -57.5 -120.5 -80.5s-61.833 -34.5 -70.5 -34.5c-14.667 0 -22 10.333 -22 31c0 22.667 2.66699 47.334 8 74.001
c-98 -70 -155.333 -105 -172 -105c-9.33301 0 -18.166 8.33301 -26.499 25s-12.5 35 -12.5 55c0 34.667 9.16699 80.667 27.5 138s36.166 96 53.499 116c20.667 22.667 48.667 45 84 67s61.333 33 78 33c9.33301 0 23 -2 41 -6c4 12 6.66699 22.667 8 32zM308 130
l49.001 215c-18.667 18.667 -36.667 28 -54 28c-51.333 0 -92 -51.667 -122 -155c-12 -45.333 -18 -84.666 -18 -117.999c0 -30 7 -45 21 -45c7.33301 0 18.666 4.66699 33.999 14s45.333 29.666 90 60.999z" />
    <glyph glyph-name="Emacron" unicode="&#x112;" horiz-adv-x="634" 
d="M371 314l183 -0.00488281l-39 -29c-3.33301 0 -8.33301 -0.166992 -15 -0.5s-11 -0.833008 -13 -1.5c-2 0 -4.83301 -0.166992 -8.5 -0.5s-9 -0.666016 -16 -0.999023s-13.5 -0.5 -19.5 -0.5c-8 -0.666992 -19.333 -1.5 -34 -2.5l-49 -3.5
c-18 -70 -32.833 -115 -44.5 -135s-42.5 -52.667 -92.5 -98h266c49.333 0 80.333 2.5 93 7.5s19 17.167 19 36.5c0 6.66699 -1.33301 19.667 -4 39l78 29c2.66699 -10 4 -18 4 -24c0 -22 -21.667 -52 -65 -90c-23.333 -21.333 -41.333 -34.666 -54 -39.999
s-32.334 -8 -59.001 -8c-30 0 -86.333 1.33301 -169 4c-32 1.33301 -59.333 2 -82 2l-92 1c-19.333 0 -38.666 0.333008 -57.999 1l39 34c42 10 70 25.333 84 46s30.667 70.334 50 149.001c2 6 6 19.667 12 41h-29c11.333 14 24.666 28.667 39.999 44l57 231
c-70 -2 -120.167 -12 -150.5 -30s-45.5 -47 -45.5 -87c0 -24.667 4.33301 -53 13 -85l-74 -49c-12 30.667 -18 58.334 -18 83.001c0 51.333 24.667 96.333 74 135c55.333 44 128.333 66.333 219 67l71 21l-6 -21l219 4c16.667 -5.33301 26.334 -18.666 29.001 -39.999
l-68 -68c-13.333 34 -24 55 -32 63s-22 12 -42 12c-10.667 0 -37.667 -1 -81 -3h-32zM324 696.995l9 10.001l12 15l11 11c0.666992 1.33301 4.66699 5.66602 12 12.999h296c-12 -10.667 -25.667 -27 -41 -49h-299z" />
    <glyph glyph-name="emacron" unicode="&#x113;" horiz-adv-x="348" 
d="M389 140v-29.0039c-82.667 -82.667 -154.667 -124 -216 -124c-26 0 -46.5 8.83301 -61.5 26.5s-22.5 41.5 -22.5 71.5c0 41.333 7.5 86.333 22.5 135s32.167 84.667 51.5 108c23.333 26.667 55 51.334 95 74.001c22 12.667 43 19 63 19
c17.333 0 31.333 -5.16699 42 -15.5s16 -24.166 16 -41.499c0 -23.333 -5.83301 -44.166 -17.5 -62.499s-31.5 -38.166 -59.5 -59.499c-54 -40 -99.667 -72 -137 -96c0 -24.667 1.66699 -43.667 5 -57s10 -24 20 -32s21.333 -12 34 -12c36 0 91 31.667 165 95zM168 182.996
c54.667 35.333 91.168 63.332 109.501 83.999s27.5 43.667 27.5 69c0 12 -2.66699 22 -8 30s-12.333 12 -21 12c-22 0 -43.333 -18.667 -64 -56s-35.334 -83.666 -44.001 -138.999zM136.001 531.995l9 10l13 15l11 11c0 0.666992 1.33301 2.5 4 5.5s5 5.83301 7 8.5h296
c-11.333 -12 -25 -28.667 -41 -50h-299z" />
    <glyph glyph-name="Ebreve" unicode="&#x114;" horiz-adv-x="634" 
d="M371 314l183 -0.00488281l-39 -29c-3.33301 0 -8.33301 -0.166992 -15 -0.5s-11 -0.833008 -13 -1.5c-2 0 -4.83301 -0.166992 -8.5 -0.5s-9 -0.666016 -16 -0.999023s-13.5 -0.5 -19.5 -0.5c-8 -0.666992 -19.333 -1.5 -34 -2.5l-49 -3.5
c-18 -70 -32.833 -115 -44.5 -135s-42.5 -52.667 -92.5 -98h266c49.333 0 80.333 2.5 93 7.5s19 17.167 19 36.5c0 6.66699 -1.33301 19.667 -4 39l78 29c2.66699 -10 4 -18 4 -24c0 -22 -21.667 -52 -65 -90c-23.333 -21.333 -41.333 -34.666 -54 -39.999
s-32.334 -8 -59.001 -8c-30 0 -86.333 1.33301 -169 4c-32 1.33301 -59.333 2 -82 2l-92 1c-19.333 0 -38.666 0.333008 -57.999 1l39 34c42 10 70 25.333 84 46s30.667 70.334 50 149.001c2 6 6 19.667 12 41h-29c11.333 14 24.666 28.667 39.999 44l57 231
c-70 -2 -120.167 -12 -150.5 -30s-45.5 -47 -45.5 -87c0 -24.667 4.33301 -53 13 -85l-74 -49c-12 30.667 -18 58.334 -18 83.001c0 51.333 24.667 96.333 74 135c55.333 44 128.333 66.333 219 67l71 21l-6 -21l219 4c16.667 -5.33301 26.334 -18.666 29.001 -39.999
l-68 -68c-13.333 34 -24 55 -32 63s-22 12 -42 12c-10.667 0 -37.667 -1 -81 -3h-32zM356 846.995l22 10c17.333 -28.667 36.666 -49 57.999 -61s48.333 -18 81 -18c47.333 0 87.666 10.667 120.999 32c16.667 11.333 31.334 28.333 44.001 51l15 -10
c-12.667 -38 -36.667 -68.833 -72 -92.5s-75.333 -35.5 -120 -35.5c-53.333 0 -94.666 21.667 -123.999 65c-8.66699 15.333 -17 35 -25 59z" />
    <glyph glyph-name="ebreve" unicode="&#x115;" horiz-adv-x="348" 
d="M389 140v-29.0039c-82.667 -82.667 -154.667 -124 -216 -124c-26 0 -46.5 8.83301 -61.5 26.5s-22.5 41.5 -22.5 71.5c0 41.333 7.5 86.333 22.5 135s32.167 84.667 51.5 108c23.333 26.667 55 51.334 95 74.001c22 12.667 43 19 63 19
c17.333 0 31.333 -5.16699 42 -15.5s16 -24.166 16 -41.499c0 -23.333 -5.83301 -44.166 -17.5 -62.499s-31.5 -38.166 -59.5 -59.499c-54 -40 -99.667 -72 -137 -96c0 -24.667 1.66699 -43.667 5 -57s10 -24 20 -32s21.333 -12 34 -12c36 0 91 31.667 165 95zM168 182.996
c54.667 35.333 91.168 63.332 109.501 83.999s27.5 43.667 27.5 69c0 12 -2.66699 22 -8 30s-12.333 12 -21 12c-22 0 -43.333 -18.667 -64 -56s-35.334 -83.666 -44.001 -138.999zM211.001 667.995l21.001 10c17.333 -28.667 36.666 -49 57.999 -61s48.666 -18 81.999 -18
c49.333 0 89.666 10.667 120.999 32c16.667 10.667 31.334 27.667 44.001 51l15 -10c-13.333 -38 -37.666 -68.833 -72.999 -92.5s-75.333 -35.5 -120 -35.5c-54.667 0 -95.667 21.667 -123 65c-10 15.333 -18.333 35 -25 59z" />
    <glyph glyph-name="Edotaccent" unicode="&#x116;" horiz-adv-x="634" 
d="M371 314l183 -0.00488281l-39 -29c-3.33301 0 -8.33301 -0.166992 -15 -0.5s-11 -0.833008 -13 -1.5c-2 0 -4.83301 -0.166992 -8.5 -0.5s-9 -0.666016 -16 -0.999023s-13.5 -0.5 -19.5 -0.5c-8 -0.666992 -19.333 -1.5 -34 -2.5l-49 -3.5
c-18 -70 -32.833 -115 -44.5 -135s-42.5 -52.667 -92.5 -98h266c49.333 0 80.333 2.5 93 7.5s19 17.167 19 36.5c0 6.66699 -1.33301 19.667 -4 39l78 29c2.66699 -10 4 -18 4 -24c0 -22 -21.667 -52 -65 -90c-23.333 -21.333 -41.333 -34.666 -54 -39.999
s-32.334 -8 -59.001 -8c-30 0 -86.333 1.33301 -169 4c-32 1.33301 -59.333 2 -82 2l-92 1c-19.333 0 -38.666 0.333008 -57.999 1l39 34c42 10 70 25.333 84 46s30.667 70.334 50 149.001c2 6 6 19.667 12 41h-29c11.333 14 24.666 28.667 39.999 44l57 231
c-70 -2 -120.167 -12 -150.5 -30s-45.5 -47 -45.5 -87c0 -24.667 4.33301 -53 13 -85l-74 -49c-12 30.667 -18 58.334 -18 83.001c0 51.333 24.667 96.333 74 135c55.333 44 128.333 66.333 219 67l71 21l-6 -21l219 4c16.667 -5.33301 26.334 -18.666 29.001 -39.999
l-68 -68c-13.333 34 -24 55 -32 63s-22 12 -42 12c-10.667 0 -37.667 -1 -81 -3h-32zM499 665.995c-19.333 27.333 -32.334 50.998 -39.001 70.998c22 16 40.667 30.333 56 43c5.33301 4 10 8 14 12c0.666992 -1.33301 1.66699 -3.66602 3 -6.99902
s2.33301 -5.66602 3 -6.99902c6.66699 -16 16.334 -34.667 29.001 -56c-18.667 -15.333 -29.667 -24 -33 -26z" />
    <glyph glyph-name="edotaccent" unicode="&#x117;" horiz-adv-x="348" 
d="M389 140v-29.0039c-82.667 -82.667 -154.667 -124 -216 -124c-26 0 -46.5 8.83301 -61.5 26.5s-22.5 41.5 -22.5 71.5c0 41.333 7.5 86.333 22.5 135s32.167 84.667 51.5 108c23.333 26.667 55 51.334 95 74.001c22 12.667 43 19 63 19
c17.333 0 31.333 -5.16699 42 -15.5s16 -24.166 16 -41.499c0 -23.333 -5.83301 -44.166 -17.5 -62.499s-31.5 -38.166 -59.5 -59.499c-54 -40 -99.667 -72 -137 -96c0 -24.667 1.66699 -43.667 5 -57s10 -24 20 -32s21.333 -12 34 -12c36 0 91 31.667 165 95zM168 182.996
c54.667 35.333 91.168 63.332 109.501 83.999s27.5 43.667 27.5 69c0 12 -2.66699 22 -8 30s-12.333 12 -21 12c-22 0 -43.333 -18.667 -64 -56s-35.334 -83.666 -44.001 -138.999zM311.001 500.995c-19.333 29.333 -32.333 53.0029 -39 71.0029
c21.333 15.333 40.333 29.666 57 42.999c1.33301 1.33301 3.5 3.33301 6.5 6s5.5 4.66699 7.5 6c2 -4 3.66699 -8.66699 5 -14c8 -18.667 18 -37.334 30 -56.001c-12 -8.66699 -23 -17.334 -33 -26.001z" />
    <glyph glyph-name="Eogonek" unicode="&#x118;" horiz-adv-x="634" 
d="M371 314l183.001 -0.00585938l-39 -29c-3.33301 0 -8.33301 -0.166992 -15 -0.5s-11 -0.833008 -13 -1.5c-2 0 -4.83301 -0.166992 -8.5 -0.5s-9 -0.666016 -16 -0.999023s-13.5 -0.5 -19.5 -0.5c-8 -0.666992 -19.333 -1.5 -34 -2.5l-49 -3.5
c-18 -70 -32.833 -115 -44.5 -135s-42.5 -52.667 -92.5 -98h266c49.333 0 80.333 2.5 93 7.5s19 17.167 19 36.5c0 6.66699 -1.33301 19.667 -4 39l78 29c2.66699 -10 4 -18 4 -24c0 -32 -34 -72 -102 -120c-30 -22 -50.833 -38.833 -62.5 -50.5s-17.5 -22.5 -17.5 -32.5
c0 -9.33301 4 -17.666 12 -24.999s17.333 -11 28 -11c13.333 0 30 10 50 30l13 -5c-32.667 -48.667 -68.334 -73 -107.001 -73c-16.667 0 -30 5 -40 15s-15 23 -15 39c0 17.333 5.66699 33.333 17 48s30.333 30.334 57 47.001h-26c-18 0 -69 1.33301 -153 4
c-30.667 1.33301 -58.334 2 -83.001 2l-92 1c-19.333 0 -38.666 0.333008 -57.999 1l39 34c42 10 70 25.333 84 46s30.667 70.334 50 149.001c2 6 6 19.667 12 41h-29c11.333 14 24.666 28.667 39.999 44l57 231c-70 -2 -120.167 -12 -150.5 -30s-45.5 -47 -45.5 -87
c0 -24.667 4.33301 -53 13 -85l-74 -49c-12 30.667 -18 58.334 -18 83.001c0 51.333 24.667 96.333 74 135c55.333 44 128.333 66.333 219 67l71 21l-6 -21l219 4c16.667 -5.33301 26.334 -18.666 29.001 -39.999l-68 -68c-13.333 34 -24 55 -32 63s-22 12 -42 12
c-10.667 0 -37.667 -1 -81 -3h-32z" />
    <glyph glyph-name="eogonek" unicode="&#x119;" horiz-adv-x="348" 
d="M389 140v-29.0039c-14 -14.667 -32.333 -31.667 -55 -51l-100 -74c-30 -23.333 -45 -43.333 -45 -60c0 -9.33301 4 -17.5 12 -24.5s17.333 -10.5 28 -10.5c14 0 31.333 10 52 30l12 -5c-32 -48.667 -68 -73 -108 -73c-16 0 -29 5 -39 15s-15 23 -15 39
c0 32 23.667 63 71 93c-14 -2 -23 -3 -27 -3c-26.667 0 -47.667 8.66699 -63 26s-23 41.333 -23 72c0 41.333 7.5 86.333 22.5 135s32.167 84.667 51.5 108c23.333 26.667 55 51.334 95 74.001c22.667 12.667 43.667 19 63 19c17.333 0 31.333 -5.16699 42 -15.5
s16 -24.166 16 -41.499c0 -23.333 -5.83301 -44.166 -17.5 -62.499s-31.5 -38.166 -59.5 -59.499c-54 -40 -99.667 -72 -137 -96c0 -24.667 1.66699 -43.667 5 -57s10 -24 20 -32s21.333 -12 34 -12c36 0 91 31.667 165 95zM168 182.996
c54.667 35.333 91.168 63.332 109.501 83.999s27.5 43.667 27.5 69c0 12 -2.66699 22 -8 30s-12.333 12 -21 12c-22 0 -43.333 -18.667 -64 -56s-35.334 -83.666 -44.001 -138.999z" />
    <glyph glyph-name="Ecaron" unicode="&#x11a;" horiz-adv-x="634" 
d="M371 314l183 -0.00488281l-39 -29c-3.33301 0 -8.33301 -0.166992 -15 -0.5s-11 -0.833008 -13 -1.5c-2 0 -4.83301 -0.166992 -8.5 -0.5s-9 -0.666016 -16 -0.999023s-13.5 -0.5 -19.5 -0.5c-8 -0.666992 -19.333 -1.5 -34 -2.5l-49 -3.5
c-18 -70 -32.833 -115 -44.5 -135s-42.5 -52.667 -92.5 -98h266c49.333 0 80.333 2.5 93 7.5s19 17.167 19 36.5c0 6.66699 -1.33301 19.667 -4 39l78 29c2.66699 -10 4 -18 4 -24c0 -22 -21.667 -52 -65 -90c-23.333 -21.333 -41.333 -34.666 -54 -39.999
s-32.334 -8 -59.001 -8c-30 0 -86.333 1.33301 -169 4c-32 1.33301 -59.333 2 -82 2l-92 1c-19.333 0 -38.666 0.333008 -57.999 1l39 34c42 10 70 25.333 84 46s30.667 70.334 50 149.001c2 6 6 19.667 12 41h-29c11.333 14 24.666 28.667 39.999 44l57 231
c-70 -2 -120.167 -12 -150.5 -30s-45.5 -47 -45.5 -87c0 -24.667 4.33301 -53 13 -85l-74 -49c-12 30.667 -18 58.334 -18 83.001c0 51.333 24.667 96.333 74 135c55.333 44 128.333 66.333 219 67l71 21l-6 -21l219 4c16.667 -5.33301 26.334 -18.666 29.001 -39.999
l-68 -68c-13.333 34 -24 55 -32 63s-22 12 -42 12c-10.667 0 -37.667 -1 -81 -3h-32zM642 829.995l1 -9c0 -0.666992 0.666992 -3.66699 2 -9c-81.333 -82 -140.333 -138.667 -177 -170l-14 -3c-4 0 -8.66699 1 -14 3c-0.666992 16 -5 75 -13 177l36 22
c9.33301 -73.333 16 -119.333 20 -138c35.333 28 78 64.667 128 110c14 14 24 23.333 30 28z" />
    <glyph glyph-name="ecaron" unicode="&#x11b;" horiz-adv-x="348" 
d="M389 140v-29.0039c-82.667 -82.667 -154.667 -124 -216 -124c-26 0 -46.5 8.83301 -61.5 26.5s-22.5 41.5 -22.5 71.5c0 41.333 7.5 86.333 22.5 135s32.167 84.667 51.5 108c23.333 26.667 55 51.334 95 74.001c22 12.667 43 19 63 19
c17.333 0 31.333 -5.16699 42 -15.5s16 -24.166 16 -41.499c0 -23.333 -5.83301 -44.166 -17.5 -62.499s-31.5 -38.166 -59.5 -59.499c-54 -40 -99.667 -72 -137 -96c0 -24.667 1.66699 -43.667 5 -57s10 -24 20 -32s21.333 -12 34 -12c36 0 91 31.667 165 95zM168 182.996
c54.667 35.333 91.168 63.332 109.501 83.999s27.5 43.667 27.5 69c0 12 -2.66699 22 -8 30s-12.333 12 -21 12c-22 0 -43.333 -18.667 -64 -56s-35.334 -83.666 -44.001 -138.999zM496.001 659.995l0.999023 -8.99902l2 -10c-82 -82 -141 -138.333 -177 -169l-15 -3
c-3.33301 0 -7.66602 1 -12.999 3l-13 177l35 22c10.667 -74 17.667 -120.333 21 -139l128 111c8 9.33301 18 18.666 30 27.999z" />
    <glyph glyph-name="Gcircumflex" unicode="&#x11c;" horiz-adv-x="634" 
d="M596 246l-39.9951 -160.001c-15.333 -60 -29 -104.167 -41 -132.5s-29 -54.833 -51 -79.5c-66.667 -77.333 -139.667 -116 -219 -116c-18.667 0 -43.334 1.66699 -74.001 5l43 68c37.333 -6 74.333 -9 111 -9c27.333 0 49 6 65 18s29 32 39 60
c10 24.667 24.333 74.667 43 150c-82 -41.333 -151.667 -62 -209 -62c-44 0 -78.667 14.333 -104 43s-38 67.667 -38 117c0 54 12.167 110.167 36.5 168.5s57.166 109.833 98.499 154.5c83.333 89.333 181.666 134 294.999 134c39.333 0 69.333 -6.16699 90 -18.5
s35.667 -33.166 45 -62.499l-76 -85c-5.33301 37.333 -13.333 64.333 -24 81c-20.667 32 -53.334 48 -98.001 48c-71.333 0 -135.5 -39.333 -192.5 -118s-85.5 -168 -85.5 -268c0 -46.667 11 -83.667 33 -111s52 -41 90 -41c23.333 0 49 6.16699 77 18.5
s52.667 28.833 74 49.5l37 148c-48.667 -1.33301 -98.334 -3.33301 -149.001 -6v8l62 32c113.333 0 190.333 -2 231 -6l-48 -28h-21zM422.005 736.999l-0.99707 10.998c0 0.666992 -0.666992 3.66699 -2 9c78 78.667 137 135.334 177 170.001
c2.66699 0.666992 5.5 1.16699 8.5 1.5s4.83301 0.5 5.5 0.5c1.33301 0 6 -0.666992 14 -2c1.33301 -20 2.66602 -38.667 3.99902 -56s2 -27.666 2 -30.999c1.33301 -10 2.66602 -25.167 3.99902 -45.5s2.66602 -35.5 3.99902 -45.5c-4 -2 -9.5 -5 -16.5 -9l-20.5 -12
c-1.33301 14 -4.33301 38 -9 72l-11 65c-28.667 -22 -53.667 -42.333 -75 -61l-83 -76z" />
    </font>
</defs>
</svg>
